<?xml version="1.0" encoding="utf-8"?>
<!-- Generator: Adobe Illustrator 16.0.0, SVG Export Plug-In . SVG Version: 6.00 Build 0)  -->
<!DOCTYPE svg PUBLIC "-//W3C//DTD SVG 1.1//EN" "http://www.w3.org/Graphics/SVG/1.1/DTD/svg11.dtd">
<svg version="1.1" id="Layer_1" xmlns="http://www.w3.org/2000/svg" xmlns:xlink="http://www.w3.org/1999/xlink" x="0px" y="0px"
	 width="100px" height="100px" viewBox="0 0 100 100" enable-background="new 0 0 100 100" xml:space="preserve">
<g>
	<path d="M49.602,35.449c-11.58,0-21,9.42-21,21s9.42,21,21,21s21-9.42,21-21S61.182,35.449,49.602,35.449z M49.602,75.449
		c-10.477,0-19-8.523-19-19s8.523-19,19-19s19,8.523,19,19S60.079,75.449,49.602,75.449z"/>
	<path d="M39.5,44.986c-0.391-0.391-1.023-0.391-1.414,0s-0.391,1.023,0,1.414l10.783,10.784l-7.425,7.424
		c-0.391,0.391-0.391,1.023,0,1.414c0.195,0.195,0.451,0.293,0.707,0.293s0.512-0.098,0.707-0.293l8.132-8.131
		c0.391-0.391,0.391-1.023,0-1.414L39.5,44.986z"/>
	<path d="M43.151,29.964c0-0.265-0.105-0.52-0.293-0.707c-2.106-2.106-4.907-3.267-7.886-3.267c-2.979,0-5.779,1.16-7.885,3.267
		c-2.106,2.106-3.266,4.906-3.267,7.885c0,2.979,1.16,5.779,3.267,7.886c0.195,0.195,0.451,0.293,0.707,0.293
		s0.512-0.098,0.707-0.293l14.357-14.356C43.046,30.484,43.151,30.229,43.151,29.964z M27.833,42.869
		c-1.304-1.619-2.012-3.618-2.012-5.727c0-2.444,0.952-4.742,2.681-6.471s4.027-2.681,6.471-2.681c2.108,0,4.107,0.708,5.727,2.012
		L27.833,42.869z"/>
	<path d="M72.913,29.257c-2.106-2.106-4.907-3.267-7.885-3.267c-2.979,0-5.779,1.16-7.886,3.267
		c-0.188,0.188-0.293,0.442-0.293,0.707s0.105,0.52,0.293,0.707l14.357,14.356c0.195,0.195,0.451,0.293,0.707,0.293
		s0.512-0.098,0.707-0.293c2.106-2.106,3.267-4.907,3.267-7.886C76.179,34.164,75.019,31.363,72.913,29.257z M72.167,42.869
		L59.301,30.002c1.619-1.304,3.619-2.012,5.727-2.012c2.444,0,4.743,0.952,6.471,2.681s2.681,4.026,2.681,6.471
		C74.179,39.25,73.471,41.25,72.167,42.869z"/>
</g>
</svg>
