<?xml version="1.0" encoding="utf-8"?>
<!-- Generator: Adobe Illustrator 16.0.0, SVG Export Plug-In . SVG Version: 6.00 Build 0)  -->
<!DOCTYPE svg PUBLIC "-//W3C//DTD SVG 1.1//EN" "http://www.w3.org/Graphics/SVG/1.1/DTD/svg11.dtd">
<svg version="1.1" id="Layer_1" xmlns="http://www.w3.org/2000/svg" xmlns:xlink="http://www.w3.org/1999/xlink" x="0px" y="0px"
	 width="100px" height="100px" viewBox="0 0 100 100" enable-background="new 0 0 100 100" xml:space="preserve">
<g>
	<path d="M41.025,48.176c0.391,0.39,1.023,0.39,1.414,0l7.127-7.126v35.586c0,0.552,0.447,1,1,1c0.552,0,1-0.448,1-1V41.05
		l7.125,7.126c0.391,0.39,1.023,0.39,1.414,0c0.391-0.392,0.391-1.024,0-1.414l-8.832-8.833c-0.092-0.093-0.203-0.166-0.325-0.217
		c-0.122-0.05-0.252-0.076-0.382-0.076c-0.131,0-0.26,0.026-0.383,0.076c-0.122,0.051-0.232,0.124-0.325,0.217l-8.833,8.833
		C40.635,47.151,40.635,47.784,41.025,48.176z"/>
	<path d="M36.902,64.968h3.018h2.146h1.979h0.021v-0.004c0.542-0.012,0.979-0.451,0.979-0.996s-0.438-0.984-0.979-0.995v-0.005
		h-0.021h-1.979H39.92h-3.018c-2.575,0-4.67-2.094-4.67-4.668V30.97c0-2.574,2.095-4.668,4.67-4.668H64.23
		c2.574,0,4.669,2.094,4.669,4.668V58.3c0,2.574-2.095,4.668-4.669,4.668h-3.019h-2.146h-1.979h-0.021v0.005
		c-0.542,0.013-0.979,0.451-0.979,0.995c0,0.545,0.437,0.984,0.979,0.996v0.004h0.021h1.979h2.146h3.019
		c3.678,0,6.669-2.991,6.669-6.668V30.97c0-3.677-2.991-6.668-6.669-6.668H36.902c-3.678,0-6.67,2.991-6.67,6.668V58.3
		C30.232,61.977,33.225,64.968,36.902,64.968z"/>
</g>
</svg>
