<?xml version="1.0" encoding="utf-8"?>
<!-- Generator: Adobe Illustrator 16.0.0, SVG Export Plug-In . SVG Version: 6.00 Build 0)  -->
<!DOCTYPE svg PUBLIC "-//W3C//DTD SVG 1.1//EN" "http://www.w3.org/Graphics/SVG/1.1/DTD/svg11.dtd">
<svg version="1.1" id="Layer_1" xmlns="http://www.w3.org/2000/svg" xmlns:xlink="http://www.w3.org/1999/xlink" x="0px" y="0px"
	 width="100px" height="100px" viewBox="0 0 100 100" enable-background="new 0 0 100 100" xml:space="preserve">
<g>
	<path d="M60.058,53.762c-0.391-0.392-1.023-0.392-1.414,0l-7.127,7.126V25.302c0-0.553-0.447-1-1-1s-1,0.447-1,1v35.586
		l-7.126-7.126c-0.391-0.392-1.023-0.392-1.414,0c-0.391,0.39-0.391,1.022,0,1.414l8.833,8.832c0.092,0.093,0.203,0.165,0.324,0.216
		c0.123,0.051,0.252,0.078,0.383,0.078s0.26-0.027,0.383-0.078c0.121-0.051,0.232-0.123,0.324-0.216l8.834-8.832
		C60.448,54.784,60.448,54.151,60.058,53.762z"/>
	<path d="M64.181,36.968h-3.018h-2.146h-1.979h-0.021v0.005c-0.541,0.011-0.979,0.45-0.979,0.995s0.438,0.984,0.979,0.996v0.004
		h0.021h1.979h2.146h3.018c2.574,0,4.67,2.095,4.67,4.67v27.328c0,2.575-2.096,4.67-4.67,4.67H36.853c-2.574,0-4.67-2.095-4.67-4.67
		V43.638c0-2.575,2.096-4.67,4.67-4.67h3.018h2.146h1.979h0.021v-0.004c0.542-0.012,0.979-0.451,0.979-0.996
		c0-0.544-0.437-0.982-0.979-0.995v-0.005h-0.021h-1.979H39.87h-3.018c-3.678,0-6.67,2.992-6.67,6.67v27.328
		c0,3.678,2.992,6.67,6.67,6.67h27.328c3.678,0,6.67-2.992,6.67-6.67V43.638C70.851,39.96,67.858,36.968,64.181,36.968z"/>
</g>
</svg>
