<?xml version="1.0" encoding="utf-8"?>
<!-- Generator: Adobe Illustrator 16.0.0, SVG Export Plug-In . SVG Version: 6.00 Build 0)  -->
<!DOCTYPE svg PUBLIC "-//W3C//DTD SVG 1.1//EN" "http://www.w3.org/Graphics/SVG/1.1/DTD/svg11.dtd">
<svg version="1.1" id="Layer_1" xmlns="http://www.w3.org/2000/svg" xmlns:xlink="http://www.w3.org/1999/xlink" x="0px" y="0px"
	 width="100px" height="100px" viewBox="0 0 100 100" enable-background="new 0 0 100 100" xml:space="preserve">
<g>
	<path d="M73.536,67.968c-0.372,0-0.722-0.208-0.894-0.552C72.584,67.304,68,58.804,48.87,58.515v8.453
		c0,0.381-0.216,0.729-0.558,0.897c-0.341,0.167-0.748,0.128-1.051-0.103L26.299,51.699c-0.247-0.189-0.392-0.482-0.392-0.793
		c0-0.312,0.145-0.605,0.392-0.795l20.962-16.062c0.303-0.232,0.71-0.271,1.051-0.104c0.341,0.168,0.558,0.516,0.558,0.896v8.908
		c0.506-0.032,1.165-0.06,1.943-0.06c7.133,0,23.724,2.269,23.724,23.278c0,0.465-0.32,0.869-0.773,0.975
		C73.688,67.96,73.611,67.968,73.536,67.968z M28.551,50.906L46.87,64.943v-7.435c0-0.552,0.448-1,1-1
		c14.554,0,21.51,4.454,24.531,7.427C70.881,47.541,56.982,45.69,50.812,45.69c-1.703,0-2.801,0.142-2.812,0.144
		c-0.289,0.037-0.574-0.051-0.791-0.24c-0.216-0.189-0.341-0.463-0.341-0.752v-7.973L28.551,50.906z"/>
</g>
</svg>
