<?xml version="1.0" encoding="utf-8"?>
<!-- Generator: Adobe Illustrator 16.0.0, SVG Export Plug-In . SVG Version: 6.00 Build 0)  -->
<!DOCTYPE svg PUBLIC "-//W3C//DTD SVG 1.1//EN" "http://www.w3.org/Graphics/SVG/1.1/DTD/svg11.dtd">
<svg version="1.1" id="Layer_1" xmlns="http://www.w3.org/2000/svg" xmlns:xlink="http://www.w3.org/1999/xlink" x="0px" y="0px"
	 width="100px" height="100px" viewBox="0 0 100 100" enable-background="new 0 0 100 100" xml:space="preserve">
<g>
	<path d="M72.596,31.493H31.932c-2.115,0-3.836,1.72-3.836,3.834v38.671c0,2.114,1.721,3.835,3.836,3.835h40.664
		c2.113,0,3.834-1.721,3.834-3.835V35.327C76.43,33.213,74.709,31.493,72.596,31.493z M74.43,73.998
		c0,1.012-0.822,1.835-1.834,1.835H31.932c-1.012,0-1.836-0.823-1.836-1.835V35.327c0-1.012,0.824-1.834,1.836-1.834h40.664
		c1.012,0,1.834,0.822,1.834,1.834V73.998z"/>
	<path d="M67.242,40.163h-5.166c-0.553,0-1,0.447-1,1s0.447,1,1,1h1.582v14.838c0,1.012-0.822,1.834-1.834,1.834H42.701
		c-1.012,0-1.834-0.822-1.834-1.834V42.163h1.584c0.553,0,1-0.447,1-1s-0.447-1-1-1h-5.168c-0.551,0-1,0.447-1,1s0.449,1,1,1h1.584
		v14.838c0,2.113,1.721,3.834,3.834,3.834h19.123c2.115,0,3.834-1.721,3.834-3.834V42.163h1.584c0.553,0,1-0.447,1-1
		S67.795,40.163,67.242,40.163z"/>
</g>
</svg>
