<?xml version="1.0" encoding="utf-8"?>
<!-- Generator: Adobe Illustrator 16.0.0, SVG Export Plug-In . SVG Version: 6.00 Build 0)  -->
<!DOCTYPE svg PUBLIC "-//W3C//DTD SVG 1.1//EN" "http://www.w3.org/Graphics/SVG/1.1/DTD/svg11.dtd">
<svg version="1.1" id="Layer_1" xmlns="http://www.w3.org/2000/svg" xmlns:xlink="http://www.w3.org/1999/xlink" x="0px" y="0px"
	 width="100px" height="100px" viewBox="0 0 100 100" enable-background="new 0 0 100 100" xml:space="preserve">
<path d="M77.629,48.733v-3.143c0-2.113-1.72-3.834-3.834-3.834H25.964c-2.114,0-3.835,1.721-3.835,3.834v18.145
	c0,2.113,1.721,3.834,3.835,3.834h47.831c2.114,0,3.834-1.721,3.834-3.834v-3.143c1.022-0.4,1.75-1.392,1.75-2.555v-6.75
	C79.379,50.125,78.652,49.134,77.629,48.733z M24.129,63.735V45.591c0-1.012,0.823-1.834,1.835-1.834h22.915v21.813H25.964
	C24.953,65.569,24.129,64.747,24.129,63.735z M75.629,63.735c0,1.012-0.822,1.834-1.834,1.834H50.879V43.757h22.916
	c1.012,0,1.834,0.822,1.834,1.834V63.735z"/>
</svg>
