<?xml version="1.0" encoding="utf-8"?>
<!-- Generator: Adobe Illustrator 16.0.0, SVG Export Plug-In . SVG Version: 6.00 Build 0)  -->
<!DOCTYPE svg PUBLIC "-//W3C//DTD SVG 1.1//EN" "http://www.w3.org/Graphics/SVG/1.1/DTD/svg11.dtd">
<svg version="1.1" id="Layer_1" xmlns="http://www.w3.org/2000/svg" xmlns:xlink="http://www.w3.org/1999/xlink" x="0px" y="0px"
	 width="100px" height="100px" viewBox="0 0 100 100" enable-background="new 0 0 100 100" xml:space="preserve">
<path d="M67.544,32h-36.16C27.706,32,25,34.642,25,38.319v17.328C25,59.325,27.706,62,31.384,62h8.442l-6.036,7.173
	c-0.256,0.296-0.314,0.801-0.151,1.157S34.156,71,34.548,71H64.88c0.395,0,0.752-0.24,0.912-0.599
	c0.162-0.359,0.098-0.942-0.164-1.237L59.4,62h8.144C71.222,62,74,59.325,74,55.647V38.319C74,34.642,71.222,32,67.544,32z
	 M36.728,69l12.748-14.814L56.425,62c0,0,0.001,0,0.002,0l6.227,7H36.728z M72,55.647C72,58.223,70.119,60,67.544,60h-9.923
	l-7.41-8.173c-0.192-0.216-0.478-0.26-0.755-0.256c-0.289,0.002-0.562,0.01-0.75,0.229L41.547,60H31.384
	C28.809,60,27,58.223,27,55.647V38.319C27,35.744,28.809,34,31.384,34h36.16C70.119,34,72,35.744,72,38.319V55.647z"/>
</svg>
