<?xml version="1.0" encoding="utf-8"?>
<!-- Generator: Adobe Illustrator 16.0.0, SVG Export Plug-In . SVG Version: 6.00 Build 0)  -->
<!DOCTYPE svg PUBLIC "-//W3C//DTD SVG 1.1//EN" "http://www.w3.org/Graphics/SVG/1.1/DTD/svg11.dtd">
<svg version="1.1" id="Layer_1" xmlns="http://www.w3.org/2000/svg" xmlns:xlink="http://www.w3.org/1999/xlink" x="0px" y="0px"
	 width="100px" height="100px" viewBox="0 0 100 100" enable-background="new 0 0 100 100" xml:space="preserve">
<g>
	<g>
		<path d="M62.83,76.834H37.17c-3.678,0-6.67-2.991-6.67-6.669V32.737c0-3.678,2.992-6.67,6.67-6.67h25.66
			c3.678,0,6.67,2.992,6.67,6.67v37.429C69.5,73.843,66.508,76.834,62.83,76.834z M37.17,28.067c-2.575,0-4.67,2.096-4.67,4.67
			v37.429c0,2.575,2.095,4.669,4.67,4.669h25.66c2.575,0,4.67-2.094,4.67-4.669V32.737c0-2.574-2.095-4.67-4.67-4.67H37.17z"/>
	</g>
	<g>
		<path d="M62.613,40.417H37.387c-0.553,0-1-0.448-1-1v-6.582c0-0.552,0.447-1,1-1h25.227c0.553,0,1,0.448,1,1v6.582
			C63.613,39.968,63.166,40.417,62.613,40.417z M38.387,38.417h23.227v-4.582H38.387V38.417z"/>
	</g>
	<g>
		<path d="M43.654,51.914h-6.268c-0.553,0-1-0.448-1-1v-6.269c0-0.552,0.447-1,1-1h6.268c0.553,0,1,0.448,1,1v6.269
			C44.654,51.465,44.207,51.914,43.654,51.914z M38.387,49.914h4.268v-4.269h-4.268V49.914z"/>
	</g>
	<g>
		<path d="M53.134,51.914h-6.268c-0.552,0-1-0.448-1-1v-6.269c0-0.552,0.448-1,1-1h6.268c0.552,0,1,0.448,1,1v6.269
			C54.134,51.465,53.686,51.914,53.134,51.914z M47.866,49.914h4.268v-4.269h-4.268V49.914z"/>
	</g>
	<g>
		<path d="M62.613,51.914h-6.268c-0.553,0-1-0.448-1-1v-6.269c0-0.552,0.447-1,1-1h6.268c0.553,0,1,0.448,1,1v6.269
			C63.613,51.465,63.166,51.914,62.613,51.914z M57.346,49.914h4.268v-4.269h-4.268V49.914z"/>
	</g>
	<g>
		<path d="M43.654,61.254h-6.268c-0.553,0-1-0.447-1-1v-6.268c0-0.552,0.447-1,1-1h6.268c0.553,0,1,0.448,1,1v6.268
			C44.654,60.807,44.207,61.254,43.654,61.254z M38.387,59.254h4.268v-4.268h-4.268V59.254z"/>
	</g>
	<g>
		<path d="M53.134,61.254h-6.268c-0.552,0-1-0.447-1-1v-6.268c0-0.552,0.448-1,1-1h6.268c0.552,0,1,0.448,1,1v6.268
			C54.134,60.807,53.686,61.254,53.134,61.254z M47.866,59.254h4.268v-4.268h-4.268V59.254z"/>
	</g>
	<g>
		<path d="M62.613,61.254h-6.268c-0.553,0-1-0.447-1-1v-6.268c0-0.552,0.447-1,1-1h6.268c0.553,0,1,0.448,1,1v6.268
			C63.613,60.807,63.166,61.254,62.613,61.254z M57.346,59.254h4.268v-4.268h-4.268V59.254z"/>
	</g>
	<g>
		<path d="M43.654,70.462h-6.268c-0.553,0-1-0.448-1-1v-6.269c0-0.552,0.447-1,1-1h6.268c0.553,0,1,0.448,1,1v6.269
			C44.654,70.014,44.207,70.462,43.654,70.462z M38.387,68.462h4.268v-4.269h-4.268V68.462z"/>
	</g>
	<g>
		<path d="M53.134,70.462h-6.268c-0.552,0-1-0.448-1-1v-6.269c0-0.552,0.448-1,1-1h6.268c0.552,0,1,0.448,1,1v6.269
			C54.134,70.014,53.686,70.462,53.134,70.462z M47.866,68.462h4.268v-4.269h-4.268V68.462z"/>
	</g>
	<g>
		<path d="M62.613,70.462h-6.268c-0.553,0-1-0.448-1-1v-6.269c0-0.552,0.447-1,1-1h6.268c0.553,0,1,0.448,1,1v6.269
			C63.613,70.014,63.166,70.462,62.613,70.462z M57.346,68.462h4.268v-4.269h-4.268V68.462z"/>
	</g>
</g>
</svg>
