<?xml version="1.0" encoding="utf-8"?>
<!-- Generator: Adobe Illustrator 16.0.0, SVG Export Plug-In . SVG Version: 6.00 Build 0)  -->
<!DOCTYPE svg PUBLIC "-//W3C//DTD SVG 1.1//EN" "http://www.w3.org/Graphics/SVG/1.1/DTD/svg11.dtd">
<svg version="1.1" id="Layer_1" xmlns="http://www.w3.org/2000/svg" xmlns:xlink="http://www.w3.org/1999/xlink" x="0px" y="0px"
	 width="100px" height="100px" viewBox="0 0 100 100" enable-background="new 0 0 100 100" xml:space="preserve">
<g>
	<path d="M67.201,26.012H33.54c-3.678,0-6.669,2.991-6.669,6.668v34.768c0,3.678,2.992,6.67,6.669,6.67h33.661
		c3.678,0,6.669-2.992,6.669-6.67V32.68C73.87,29.003,70.878,26.012,67.201,26.012z M71.87,67.447c0,2.575-2.095,4.67-4.669,4.67
		H33.54c-2.575,0-4.669-2.095-4.669-4.67V39.115h43V67.447z M71.87,37.115h-43V32.68c0-2.574,2.095-4.668,4.669-4.668h33.661
		c2.575,0,4.669,2.094,4.669,4.668V37.115z"/>
	<path d="M44.015,65.506h2.159v-20.25h-1.689c-0.153,1.518-0.604,2.527-1.353,3.031c-0.792,0.512-1.889,0.758-3.293,0.74v1.738
		h4.176V65.506z"/>
	<path d="M55.662,63.886c-1.101,0-1.869-0.343-2.304-1.028c-0.454-0.66-0.654-1.539-0.602-2.639h-2.238
		c-0.088,3.727,1.648,5.625,5.208,5.695c2-0.035,3.399-0.799,4.2-2.293c0.766-1.459,1.141-3.115,1.123-4.971
		c0-1.713-0.375-3.198-1.124-4.455c-0.784-1.256-2.074-1.916-3.872-1.977c-1.286,0-2.321,0.487-3.105,1.463l-0.064-0.053l0.87-5.936
		h6.596v-2.027H52.01l-1.149,10.412h1.921c0.529-1.221,1.446-1.832,2.751-1.832c0.7,0,1.267,0.127,1.703,0.382
		c0.443,0.265,0.776,0.634,0.998,1.108c0.248,0.466,0.405,0.967,0.474,1.503c0.068,0.581,0.103,1.165,0.103,1.754
		c0,1.284-0.235,2.409-0.704,3.376C57.62,63.362,56.805,63.868,55.662,63.886z"/>
</g>
</svg>
