<?xml version="1.0" encoding="utf-8"?>
<!-- Generator: Adobe Illustrator 16.0.0, SVG Export Plug-In . SVG Version: 6.00 Build 0)  -->
<!DOCTYPE svg PUBLIC "-//W3C//DTD SVG 1.1//EN" "http://www.w3.org/Graphics/SVG/1.1/DTD/svg11.dtd">
<svg version="1.1" id="Layer_1" xmlns="http://www.w3.org/2000/svg" xmlns:xlink="http://www.w3.org/1999/xlink" x="0px" y="0px"
	 width="100px" height="100px" viewBox="0 0 100 100" enable-background="new 0 0 100 100" xml:space="preserve">
<g>
	<path d="M73.327,34.252H70.33v-3.039c0-3.678-2.992-6.669-6.669-6.669H27.857c-3.678,0-6.669,2.991-6.669,6.669v20.995
		c0,3.678,2.992,6.669,6.669,6.669h2.998v3.039c0,3.678,2.992,6.67,6.669,6.67h27.025l5.624,6.646
		c0.193,0.229,0.475,0.354,0.763,0.354c0.115,0,0.231-0.021,0.344-0.062c0.394-0.145,0.656-0.52,0.656-0.938v-6h1.391
		c3.678,0,6.669-2.992,6.669-6.67V40.922C79.997,37.244,77.005,34.252,73.327,34.252z M27.857,56.877
		c-2.575,0-4.669-2.094-4.669-4.669V31.213c0-2.574,2.095-4.669,4.669-4.669H63.66c2.575,0,4.669,2.095,4.669,4.669v3.039H37.524
		c-3.678,0-6.669,2.992-6.669,6.67v15.955H27.857z M77.997,61.916c0,2.574-2.095,4.67-4.669,4.67h-2.391c-0.552,0-1,0.447-1,1v4.27
		l-4.16-4.916c-0.19-0.225-0.469-0.354-0.763-0.354H37.524c-2.575,0-4.669-2.096-4.669-4.67v-3.039v-2V40.922
		c0-2.575,2.095-4.67,4.669-4.67H68.33h2h2.998c2.575,0,4.669,2.095,4.669,4.67V61.916z"/>
</g>
</svg>
