<?xml version="1.0" encoding="utf-8"?>
<!-- Generator: Adobe Illustrator 16.0.0, SVG Export Plug-In . SVG Version: 6.00 Build 0)  -->
<!DOCTYPE svg PUBLIC "-//W3C//DTD SVG 1.1//EN" "http://www.w3.org/Graphics/SVG/1.1/DTD/svg11.dtd">
<svg version="1.1" id="Layer_1" xmlns="http://www.w3.org/2000/svg" xmlns:xlink="http://www.w3.org/1999/xlink" x="0px" y="0px"
	 width="100px" height="100px" viewBox="0 0 100 100" enable-background="new 0 0 100 100" xml:space="preserve">
<path d="M68.53,32.61c-4.997-4.847-11.578-7.516-18.53-7.516c-7.679,0-14.987,3.323-20.05,9.118c0,0-0.001,0-0.001,0.001
	c-4.239,4.851-6.573,11.068-6.573,17.506c0,6.85,2.602,13.361,7.326,18.333C35.783,75.4,42.636,78.345,50,78.345
	c7.385,0,14.252-2.96,19.338-8.334c4.699-4.966,7.287-11.462,7.287-18.291c0-0.006,0-0.012,0-0.02c0-0.001,0-0.003,0-0.005
	C76.618,44.444,73.744,37.667,68.53,32.61z M51,28.421c1.941,2.245,5.123,6.494,7.199,12.125c-0.145,0.071-0.29,0.143-0.437,0.21
	c-0.215,0.098-0.433,0.188-0.651,0.279c-0.187,0.078-0.373,0.158-0.562,0.231c-0.224,0.086-0.45,0.163-0.677,0.242
	c-0.189,0.066-0.377,0.134-0.568,0.195c-0.232,0.074-0.469,0.138-0.704,0.203c-0.189,0.053-0.377,0.11-0.569,0.158
	c-0.244,0.061-0.491,0.111-0.737,0.164c-0.187,0.04-0.373,0.084-0.561,0.12c-0.26,0.048-0.523,0.085-0.786,0.124
	c-0.178,0.026-0.354,0.059-0.534,0.081c-0.137,0.017-0.275,0.026-0.414,0.039V28.421z M49,42.711
	c-0.094,0.001-0.187,0.009-0.281,0.009c-0.416,0-0.829-0.012-1.24-0.035c-0.137-0.008-0.272-0.023-0.409-0.034
	c-0.273-0.021-0.548-0.04-0.819-0.07c-0.159-0.018-0.317-0.044-0.476-0.065c-0.246-0.033-0.492-0.064-0.735-0.105
	c-0.169-0.029-0.337-0.065-0.505-0.098c-0.229-0.044-0.459-0.087-0.687-0.139c-0.174-0.039-0.345-0.086-0.518-0.129
	c-0.219-0.056-0.438-0.11-0.656-0.172c-0.174-0.05-0.345-0.106-0.518-0.161c-0.211-0.066-0.423-0.132-0.632-0.205
	c-0.049-0.017-0.098-0.036-0.146-0.055C43.444,35.316,46.921,30.738,49,28.38V42.711z M40.795,43.367
	c0.04,0.015,0.079,0.03,0.119,0.043c0.229,0.08,0.46,0.152,0.692,0.225c0.185,0.058,0.37,0.117,0.557,0.17
	c0.237,0.067,0.476,0.128,0.716,0.188c0.186,0.046,0.37,0.095,0.558,0.138c0.248,0.056,0.498,0.103,0.748,0.151
	c0.182,0.035,0.362,0.073,0.545,0.104c0.264,0.044,0.531,0.079,0.798,0.114c0.172,0.023,0.343,0.05,0.516,0.07
	c0.296,0.033,0.595,0.055,0.894,0.076c0.146,0.011,0.29,0.027,0.437,0.036c0.446,0.025,0.895,0.038,1.345,0.038
	c0.094,0,0.187-0.008,0.281-0.009v6.009h-9.296C39.773,48.103,40.177,45.643,40.795,43.367z M49,52.72v6.031
	c-0.123,0.005-0.246,0.004-0.368,0.011c-0.154,0.009-0.307,0.028-0.461,0.04c-0.31,0.025-0.619,0.048-0.927,0.085
	c-0.185,0.021-0.366,0.053-0.549,0.079c-0.275,0.039-0.55,0.077-0.823,0.125c-0.194,0.035-0.385,0.078-0.578,0.118
	c-0.259,0.053-0.518,0.104-0.774,0.166c-0.198,0.047-0.394,0.103-0.59,0.155c-0.248,0.066-0.495,0.131-0.739,0.206
	c-0.199,0.06-0.395,0.126-0.592,0.191c-0.239,0.079-0.478,0.158-0.713,0.245c-0.196,0.072-0.39,0.149-0.583,0.226
	c-0.087,0.035-0.173,0.072-0.26,0.106c-0.815-2.706-1.226-5.308-1.325-7.784H49z M41.989,62.276c0.176-0.07,0.351-0.143,0.529-0.208
	c0.221-0.082,0.445-0.155,0.669-0.229c0.177-0.06,0.354-0.121,0.533-0.175c0.229-0.07,0.461-0.13,0.693-0.193
	c0.178-0.048,0.354-0.099,0.533-0.142c0.239-0.058,0.48-0.105,0.722-0.155c0.175-0.036,0.35-0.077,0.526-0.108
	c0.254-0.046,0.511-0.081,0.768-0.117c0.166-0.024,0.33-0.053,0.497-0.073c0.283-0.034,0.568-0.055,0.854-0.078
	c0.143-0.011,0.285-0.029,0.428-0.037c0.086-0.005,0.173-0.003,0.259-0.007v14.087c-3.522-4.302-5.872-8.47-7.326-12.434
	C41.779,62.363,41.884,62.318,41.989,62.276z M51,60.75c0.107,0.005,0.215,0.003,0.323,0.01c0.14,0.008,0.278,0.025,0.417,0.036
	c0.287,0.023,0.574,0.044,0.859,0.079c0.169,0.02,0.336,0.049,0.504,0.074c0.252,0.036,0.506,0.07,0.756,0.115
	c0.18,0.032,0.357,0.073,0.537,0.11c0.236,0.049,0.474,0.095,0.708,0.151c0.184,0.044,0.365,0.097,0.547,0.146
	c0.226,0.061,0.453,0.12,0.676,0.188c0.183,0.056,0.364,0.119,0.545,0.179c0.219,0.073,0.438,0.145,0.655,0.224
	c0.181,0.067,0.36,0.14,0.539,0.212c0.086,0.034,0.17,0.07,0.256,0.105C56.79,66.587,54.357,70.749,51,74.847V60.75z M58.951,60.475
	c-0.072-0.028-0.142-0.059-0.214-0.087c-0.189-0.075-0.379-0.15-0.57-0.22c-0.24-0.087-0.482-0.168-0.725-0.248
	c-0.192-0.063-0.384-0.128-0.579-0.187c-0.249-0.075-0.5-0.141-0.75-0.208c-0.192-0.051-0.383-0.104-0.577-0.151
	c-0.259-0.062-0.521-0.114-0.782-0.167c-0.189-0.039-0.378-0.081-0.569-0.115c-0.274-0.049-0.551-0.087-0.828-0.126
	c-0.181-0.025-0.36-0.057-0.542-0.078c-0.308-0.036-0.618-0.06-0.929-0.084c-0.152-0.012-0.304-0.031-0.457-0.04
	c-0.143-0.008-0.288-0.007-0.431-0.013V52.72h9.25C60.162,55.32,59.716,57.905,58.951,60.475z M51,50.72V44.6
	c0.214-0.018,0.43-0.034,0.642-0.061c0.192-0.023,0.381-0.057,0.572-0.085c0.288-0.042,0.576-0.083,0.861-0.136
	c0.201-0.037,0.398-0.084,0.598-0.126c0.271-0.058,0.543-0.114,0.812-0.181c0.204-0.051,0.404-0.109,0.605-0.165
	c0.26-0.072,0.521-0.144,0.777-0.225c0.203-0.063,0.403-0.135,0.604-0.204c0.25-0.086,0.5-0.172,0.747-0.267
	c0.202-0.077,0.401-0.16,0.6-0.243c0.241-0.1,0.48-0.2,0.718-0.308c0.1-0.045,0.198-0.094,0.296-0.141
	c0.842,2.765,1.322,5.521,1.413,8.261H51z M59.917,39.617c-2.136-5.681-5.296-9.992-7.312-12.374
	c5.177,0.545,10.023,2.695,13.916,6.223c-0.056,0.079-0.109,0.16-0.166,0.238c-0.124,0.17-0.25,0.337-0.377,0.503
	c-0.146,0.19-0.294,0.379-0.446,0.564c-0.134,0.162-0.27,0.322-0.408,0.48c-0.156,0.179-0.314,0.355-0.475,0.528
	c-0.143,0.154-0.288,0.305-0.434,0.454c-0.165,0.168-0.333,0.332-0.502,0.494c-0.152,0.144-0.304,0.287-0.46,0.426
	c-0.173,0.156-0.349,0.308-0.527,0.458c-0.16,0.135-0.321,0.268-0.485,0.398c-0.182,0.145-0.366,0.285-0.552,0.422
	c-0.167,0.125-0.335,0.248-0.505,0.367c-0.19,0.133-0.383,0.261-0.577,0.387c-0.174,0.114-0.348,0.227-0.524,0.335
	C60.027,39.554,59.972,39.585,59.917,39.617z M47.4,27.234c-2.148,2.537-5.603,7.272-7.727,13.523
	c-0.125-0.056-0.25-0.111-0.373-0.17c-0.169-0.081-0.336-0.167-0.503-0.252c-0.189-0.097-0.379-0.195-0.565-0.298
	c-0.166-0.091-0.329-0.186-0.492-0.281c-0.184-0.107-0.367-0.217-0.548-0.33c-0.161-0.101-0.319-0.204-0.477-0.309
	c-0.177-0.117-0.353-0.237-0.526-0.359c-0.156-0.11-0.311-0.224-0.465-0.339c-0.169-0.126-0.337-0.255-0.503-0.387
	c-0.151-0.12-0.301-0.242-0.45-0.367c-0.163-0.136-0.323-0.275-0.481-0.417c-0.145-0.128-0.289-0.259-0.431-0.392
	c-0.156-0.146-0.31-0.296-0.461-0.447c-0.138-0.137-0.275-0.275-0.409-0.416c-0.149-0.156-0.295-0.317-0.44-0.479
	c-0.13-0.145-0.26-0.289-0.387-0.437c-0.048-0.057-0.094-0.116-0.142-0.173C36.078,30.567,41.544,27.857,47.4,27.234z
	 M30.693,36.444c0.018,0.021,0.037,0.04,0.054,0.06c0.108,0.125,0.222,0.243,0.332,0.366c0.188,0.209,0.376,0.418,0.571,0.62
	c0.126,0.13,0.257,0.254,0.385,0.382c0.186,0.184,0.372,0.369,0.564,0.546c0.139,0.129,0.282,0.252,0.423,0.377
	c0.189,0.167,0.377,0.333,0.57,0.494c0.148,0.123,0.3,0.24,0.451,0.359c0.194,0.153,0.388,0.305,0.586,0.451
	c0.156,0.115,0.315,0.227,0.473,0.338c0.199,0.14,0.399,0.277,0.602,0.411c0.164,0.107,0.329,0.211,0.495,0.314
	c0.205,0.127,0.411,0.252,0.619,0.373c0.169,0.098,0.34,0.193,0.511,0.287c0.211,0.115,0.423,0.227,0.638,0.336
	c0.175,0.088,0.35,0.175,0.527,0.26c0.192,0.092,0.386,0.179,0.581,0.265c-0.693,2.483-1.155,5.174-1.245,8.036H25.395
	C25.606,45.52,27.462,40.523,30.693,36.444z M32.324,66.644c-0.184,0.204-0.36,0.417-0.537,0.628
	c-0.122,0.146-0.248,0.289-0.367,0.438c-0.022,0.028-0.046,0.054-0.068,0.082c-3.646-4.221-5.733-9.501-5.957-15.073h12.437
	c0.083,2.736,0.519,5.613,1.424,8.602c-0.151,0.077-0.301,0.155-0.451,0.235c-0.218,0.117-0.435,0.238-0.65,0.361
	c-0.182,0.105-0.363,0.212-0.542,0.323c-0.212,0.13-0.421,0.264-0.629,0.4c-0.175,0.115-0.349,0.231-0.521,0.351
	c-0.206,0.143-0.408,0.291-0.61,0.44c-0.167,0.125-0.334,0.249-0.499,0.378c-0.199,0.156-0.394,0.318-0.588,0.48
	c-0.159,0.133-0.318,0.265-0.473,0.402c-0.193,0.17-0.38,0.346-0.568,0.523c-0.148,0.14-0.299,0.279-0.444,0.423
	c-0.188,0.186-0.369,0.379-0.551,0.572C32.594,66.354,32.457,66.495,32.324,66.644z M32.898,69.071
	c0.123-0.156,0.249-0.309,0.375-0.461c0.148-0.179,0.298-0.357,0.452-0.53c0.131-0.148,0.264-0.292,0.399-0.436
	c0.158-0.169,0.317-0.336,0.48-0.499c0.139-0.14,0.279-0.276,0.422-0.411c0.167-0.159,0.336-0.315,0.508-0.468
	c0.146-0.129,0.293-0.257,0.441-0.383c0.176-0.149,0.355-0.294,0.536-0.438c0.151-0.12,0.304-0.239,0.459-0.355
	c0.184-0.138,0.371-0.272,0.56-0.404c0.158-0.111,0.317-0.222,0.478-0.328c0.192-0.127,0.387-0.25,0.583-0.371
	c0.164-0.102,0.328-0.203,0.495-0.3c0.199-0.116,0.401-0.226,0.604-0.335c0.07-0.038,0.141-0.075,0.211-0.112
	c1.522,4.158,3.975,8.513,7.652,12.986c-5.595-0.546-10.761-2.96-14.81-6.949C32.795,69.209,32.845,69.139,32.898,69.071z
	 M52.449,76.226c3.686-4.484,6.14-8.848,7.661-13.015c0.084,0.045,0.169,0.089,0.254,0.134c0.197,0.106,0.395,0.214,0.589,0.327
	c0.171,0.099,0.34,0.203,0.509,0.307c0.189,0.117,0.378,0.235,0.563,0.358c0.167,0.11,0.332,0.224,0.496,0.339
	c0.182,0.127,0.362,0.256,0.54,0.389c0.16,0.121,0.318,0.243,0.476,0.367c0.175,0.138,0.348,0.279,0.519,0.422
	c0.154,0.129,0.305,0.261,0.456,0.395c0.167,0.148,0.331,0.299,0.493,0.453c0.146,0.139,0.292,0.28,0.436,0.423
	c0.157,0.157,0.312,0.318,0.464,0.48c0.14,0.149,0.279,0.299,0.415,0.452c0.148,0.167,0.292,0.337,0.436,0.509
	c0.131,0.158,0.263,0.316,0.39,0.478c0.051,0.064,0.099,0.132,0.149,0.197C63.24,73.251,58.062,75.678,52.449,76.226z
	 M68.682,67.752c-0.022-0.028-0.046-0.054-0.069-0.082c-0.116-0.146-0.239-0.284-0.358-0.427c-0.179-0.214-0.358-0.428-0.544-0.635
	c-0.131-0.146-0.267-0.285-0.401-0.426c-0.184-0.195-0.368-0.389-0.558-0.577c-0.142-0.14-0.288-0.274-0.433-0.411
	c-0.191-0.18-0.383-0.358-0.579-0.532c-0.151-0.133-0.307-0.261-0.461-0.39c-0.198-0.166-0.396-0.33-0.6-0.488
	c-0.161-0.126-0.324-0.247-0.487-0.368c-0.205-0.152-0.411-0.302-0.62-0.447c-0.168-0.117-0.338-0.229-0.509-0.341
	c-0.212-0.14-0.426-0.275-0.642-0.408c-0.175-0.107-0.351-0.21-0.528-0.313c-0.219-0.126-0.44-0.249-0.664-0.368
	c-0.158-0.084-0.317-0.167-0.477-0.248c0.9-2.978,1.332-5.845,1.415-8.572h12.437C74.381,58.272,72.306,63.538,68.682,67.752z
	 M62.167,50.72c-0.104-3.306-0.706-6.383-1.585-9.175c0.16-0.092,0.32-0.184,0.478-0.28c0.186-0.113,0.371-0.229,0.554-0.348
	c0.217-0.14,0.431-0.284,0.644-0.432c0.18-0.125,0.358-0.251,0.535-0.381c0.208-0.153,0.413-0.311,0.617-0.471
	c0.172-0.136,0.343-0.272,0.512-0.413c0.2-0.167,0.396-0.339,0.59-0.512c0.164-0.146,0.327-0.292,0.487-0.442
	c0.191-0.18,0.377-0.367,0.563-0.554c0.153-0.155,0.308-0.308,0.458-0.468c0.183-0.195,0.359-0.396,0.536-0.597
	c0.144-0.163,0.289-0.324,0.428-0.491c0.174-0.209,0.341-0.426,0.508-0.642c0.132-0.17,0.267-0.337,0.394-0.511
	c0.028-0.037,0.058-0.072,0.085-0.11c4.072,4.337,6.398,9.885,6.634,15.826H62.167z"/>
</svg>
