<?xml version="1.0" encoding="utf-8"?>
<!-- Generator: Adobe Illustrator 16.0.0, SVG Export Plug-In . SVG Version: 6.00 Build 0)  -->
<!DOCTYPE svg PUBLIC "-//W3C//DTD SVG 1.1//EN" "http://www.w3.org/Graphics/SVG/1.1/DTD/svg11.dtd">
<svg version="1.1" id="Layer_1" xmlns="http://www.w3.org/2000/svg" xmlns:xlink="http://www.w3.org/1999/xlink" x="0px" y="0px"
	 width="100px" height="100px" viewBox="0 0 100 100" enable-background="new 0 0 100 100" xml:space="preserve">
<g>
	<path d="M50.139,27.067c-13.445,0-24.384,10.938-24.384,24.384s10.938,24.384,24.384,24.384s24.384-10.938,24.384-24.384
		S63.584,27.067,50.139,27.067z M50.139,73.513c-12.165,0-22.062-9.897-22.062-22.062S37.974,29.39,50.139,29.39
		S72.2,39.287,72.2,51.451S62.303,73.513,50.139,73.513z"/>
	<path d="M50.889,36.326c0-0.553-0.448-1-1-1s-1,0.447-1,1v15.25l-10.5,0c-0.553,0-1,0.447-1,1c0,0.276,0.112,0.526,0.293,0.707
		c0.181,0.181,0.431,0.292,0.707,0.292l11.5,0c0.553,0,1-0.447,1-1L50.889,36.326z"/>
</g>
</svg>
