<?xml version="1.0" encoding="utf-8"?>
<!-- Generator: Adobe Illustrator 16.0.0, SVG Export Plug-In . SVG Version: 6.00 Build 0)  -->
<!DOCTYPE svg PUBLIC "-//W3C//DTD SVG 1.1//EN" "http://www.w3.org/Graphics/SVG/1.1/DTD/svg11.dtd">
<svg version="1.1" id="Layer_1" xmlns="http://www.w3.org/2000/svg" xmlns:xlink="http://www.w3.org/1999/xlink" x="0px" y="0px"
	 width="100px" height="100px" viewBox="0 0 100 100" enable-background="new 0 0 100 100" xml:space="preserve">
<g>
	<path d="M66.836,33.384c-4.809-4.81-11.213-7.458-18.031-7.458s-13.223,2.648-18.031,7.458c-9.941,9.941-9.941,26.119,0,36.062
		c4.809,4.809,11.213,7.456,18.031,7.458c0.002,0,0.002,0,0.002,0c6.818,0,13.221-2.648,18.029-7.458
		c4.809-4.809,7.457-11.212,7.457-18.03C74.293,44.596,71.645,38.192,66.836,33.384z M65.422,68.031
		c-4.432,4.431-10.332,6.872-16.615,6.872h-0.002c-6.285-0.001-12.186-2.441-16.617-6.872c-9.162-9.163-9.162-24.071,0-33.233
		c4.432-4.432,10.332-6.872,16.617-6.872s12.186,2.44,16.617,6.872c4.432,4.431,6.871,10.332,6.871,16.617
		C72.293,57.698,69.854,63.601,65.422,68.031z"/>
	<path d="M58.615,44.835L47.832,55.618l-7.424-7.424c-0.391-0.392-1.023-0.392-1.414,0c-0.195,0.194-0.293,0.451-0.293,0.707
		c0.002,0.256,0.1,0.512,0.293,0.706l8.133,8.132c0.391,0.391,1.023,0.391,1.414,0l11.49-11.49c0.391-0.391,0.391-1.023,0-1.414
		C59.641,44.445,59.008,44.444,58.615,44.835z"/>
</g>
</svg>
