<?xml version="1.0" encoding="utf-8"?>
<!-- Generator: Adobe Illustrator 16.0.0, SVG Export Plug-In . SVG Version: 6.00 Build 0)  -->
<!DOCTYPE svg PUBLIC "-//W3C//DTD SVG 1.1//EN" "http://www.w3.org/Graphics/SVG/1.1/DTD/svg11.dtd">
<svg version="1.1" id="Layer_1" xmlns="http://www.w3.org/2000/svg" xmlns:xlink="http://www.w3.org/1999/xlink" x="0px" y="0px"
	 width="100px" height="100px" viewBox="0 0 100 100" enable-background="new 0 0 100 100" xml:space="preserve">
<path d="M61.465,48.281h-1.08V31.2c0-3.678-2.992-6.669-6.67-6.669h-10.16c-3.678,0-6.67,2.991-6.67,6.669v17.081h-1.08
	c-3.678,0-6.67,2.991-6.67,6.669v16.679c0,3.678,2.992,6.67,6.67,6.67h25.66c3.678,0,6.67-2.992,6.67-6.67V54.95
	C68.135,51.272,65.143,48.281,61.465,48.281z M38.885,31.2c0-2.575,2.095-4.669,4.67-4.669h10.16c2.575,0,4.67,2.094,4.67,4.669
	v17.081h-19.5V31.2z M66.135,71.629c0,2.574-2.095,4.67-4.67,4.67h-25.66c-2.575,0-4.67-2.096-4.67-4.67V54.95
	c0-2.575,2.095-4.669,4.67-4.669h2.08h21.5h2.08c2.575,0,4.67,2.094,4.67,4.669V71.629z"/>
</svg>
