<?xml version="1.0" encoding="utf-8"?>
<!-- Generator: Adobe Illustrator 16.0.0, SVG Export Plug-In . SVG Version: 6.00 Build 0)  -->
<!DOCTYPE svg PUBLIC "-//W3C//DTD SVG 1.1//EN" "http://www.w3.org/Graphics/SVG/1.1/DTD/svg11.dtd">
<svg version="1.1" id="Layer_1" xmlns="http://www.w3.org/2000/svg" xmlns:xlink="http://www.w3.org/1999/xlink" x="0px" y="0px"
	 width="100px" height="100px" viewBox="0 0 100 100" enable-background="new 0 0 100 100" xml:space="preserve">
<g>
	<path d="M70.445,69.354H33.413c-7.565,0-13.72-6.155-13.72-13.72s6.154-13.721,13.72-13.721c1.233,0,2.466,0.171,3.673,0.511
		c2.143-5.025,7.094-8.338,12.611-8.338c3.96,0,7.659,1.68,10.27,4.637c1.211-0.511,2.521-0.779,3.833-0.779
		c5.438,0,9.862,4.424,9.862,9.862c0,0.763-0.092,1.524-0.271,2.275c4.066,1.27,6.916,5.067,6.916,9.411
		C80.307,64.929,75.883,69.354,70.445,69.354z M33.413,43.913c-6.462,0-11.72,5.258-11.72,11.721c0,6.462,5.258,11.72,11.72,11.72
		h37.032c4.335,0,7.861-3.527,7.861-7.862c0-3.758-2.676-7.003-6.362-7.715c-0.286-0.056-0.534-0.233-0.679-0.487
		c-0.145-0.254-0.172-0.558-0.072-0.833c0.311-0.868,0.469-1.759,0.469-2.65c0-4.335-3.527-7.862-7.862-7.862
		c-1.279,0-2.505,0.302-3.642,0.898c-0.428,0.224-0.952,0.111-1.251-0.268c-2.243-2.853-5.601-4.489-9.21-4.489
		c-4.992,0-9.441,3.176-11.072,7.902c-0.086,0.252-0.271,0.459-0.512,0.575c-0.24,0.115-0.518,0.131-0.77,0.041
		C36.059,44.145,34.735,43.913,33.413,43.913z"/>
</g>
</svg>
