<?xml version="1.0" encoding="utf-8"?>
<!-- Generator: Adobe Illustrator 16.0.0, SVG Export Plug-In . SVG Version: 6.00 Build 0)  -->
<!DOCTYPE svg PUBLIC "-//W3C//DTD SVG 1.1//EN" "http://www.w3.org/Graphics/SVG/1.1/DTD/svg11.dtd">
<svg version="1.1" id="Layer_1" xmlns="http://www.w3.org/2000/svg" xmlns:xlink="http://www.w3.org/1999/xlink" x="0px" y="0px"
	 width="100px" height="100px" viewBox="0 0 100 100" enable-background="new 0 0 100 100" xml:space="preserve">
<g>
	<path d="M50.542,76.149h-0.494c-3.678,0-6.668-2.992-6.668-6.67V69.44c-0.631-0.228-1.262-0.491-1.889-0.791l-0.033,0.035
		c-1.26,1.26-2.936,1.953-4.717,1.953s-3.455-0.693-4.715-1.953l-0.35-0.35c-2.6-2.602-2.6-6.832,0-9.433l0.033-0.034
		c-0.299-0.626-0.562-1.257-0.789-1.887H30.88c-3.678,0-6.668-2.992-6.668-6.67v-0.494c0-3.678,2.99-6.669,6.668-6.669h0.041
		c0.227-0.63,0.49-1.261,0.789-1.888l-0.033-0.033c-1.26-1.26-1.953-2.936-1.953-4.717s0.693-3.456,1.953-4.715l0.35-0.35
		c1.26-1.26,2.934-1.954,4.715-1.954s3.457,0.694,4.717,1.954l0.033,0.033c0.627-0.299,1.258-0.562,1.889-0.789v-0.041
		c0-3.678,2.99-6.669,6.668-6.669h0.494c3.678,0,6.67,2.991,6.67,6.669v0.041c0.631,0.227,1.262,0.49,1.887,0.789l0.035-0.033
		c1.26-1.26,2.934-1.954,4.717-1.954c1.781,0,3.455,0.694,4.715,1.954l0.35,0.349c2.6,2.601,2.6,6.831,0,9.433l-0.035,0.033
		c0.301,0.627,0.564,1.258,0.791,1.888h0.039c3.678,0,6.67,2.991,6.67,6.669v0.494c0,3.678-2.992,6.67-6.67,6.67h-0.039
		c-0.227,0.63-0.49,1.261-0.791,1.887l0.035,0.035c1.26,1.26,1.953,2.934,1.953,4.715c0,1.782-0.693,3.457-1.953,4.717l-0.35,0.35
		c-1.26,1.26-2.934,1.953-4.717,1.953c-1.781,0-3.455-0.693-4.715-1.953l-0.035-0.035c-0.625,0.3-1.256,0.563-1.887,0.791v0.039
		C57.212,73.157,54.22,76.149,50.542,76.149z M41.269,66.421c0.158,0,0.316,0.037,0.463,0.113c0.98,0.512,1.979,0.928,2.963,1.239
		c0.432,0.136,0.717,0.546,0.697,0.999c0,0.008-0.006,0.109-0.008,0.117l-0.004,0.59c0,2.575,2.094,4.67,4.668,4.67h0.494
		c2.576,0,4.67-2.095,4.67-4.67v-0.494c0-0.008-0.012-0.205-0.012-0.213c-0.021-0.453,0.266-0.863,0.697-0.999
		c0.984-0.312,1.98-0.728,2.963-1.239c0.404-0.209,0.896-0.121,1.201,0.213c0.049,0.055,0.092,0.109,0.135,0.166l0.352,0.357
		c0.883,0.881,2.055,1.367,3.301,1.367c1.248,0,2.42-0.486,3.303-1.367l0.35-0.35c0.881-0.883,1.367-2.055,1.367-3.303
		c0-1.246-0.486-2.419-1.367-3.301l-0.35-0.35c-0.064-0.045-0.119-0.088-0.174-0.137c-0.334-0.307-0.422-0.799-0.213-1.201
		c0.512-0.982,0.928-1.979,1.24-2.963c0.135-0.432,0.537-0.713,0.998-0.697c0.008,0,0.109,0.006,0.117,0.007l0.59,0.005
		c2.576,0,4.67-2.095,4.67-4.67v-0.494c0-2.574-2.094-4.669-4.67-4.669h-0.494c-0.008,0.001-0.205,0.012-0.213,0.013
		c-0.461,0.012-0.863-0.266-0.998-0.698c-0.312-0.984-0.729-1.981-1.24-2.963c-0.209-0.402-0.121-0.896,0.213-1.2
		c0.055-0.049,0.109-0.094,0.166-0.136l0.357-0.351c1.82-1.821,1.82-4.783,0-6.604l-0.35-0.349
		c-0.883-0.883-2.055-1.368-3.301-1.368c-1.248,0-2.42,0.485-3.303,1.368l-0.35,0.35c-0.045,0.062-0.088,0.119-0.137,0.172
		c-0.305,0.336-0.797,0.424-1.201,0.213c-0.982-0.511-1.979-0.928-2.963-1.238c-0.432-0.137-0.719-0.547-0.697-0.999
		c0-0.007,0.006-0.11,0.008-0.118l0.004-0.59c0-2.574-2.094-4.669-4.67-4.669h-0.494c-2.574,0-4.668,2.095-4.668,4.669v0.494
		c0,0.008,0.012,0.207,0.012,0.214c0.02,0.452-0.266,0.862-0.697,0.999c-0.984,0.311-1.982,0.728-2.963,1.238
		c-0.404,0.211-0.896,0.123-1.201-0.213c-0.049-0.053-0.094-0.109-0.135-0.166l-0.352-0.355c-0.883-0.883-2.055-1.368-3.303-1.368
		c-1.246,0-2.42,0.485-3.301,1.368l-0.35,0.35c-0.883,0.881-1.367,2.055-1.367,3.301c0,1.248,0.484,2.42,1.367,3.303l0.35,0.35
		c0.062,0.043,0.119,0.088,0.172,0.137c0.336,0.305,0.424,0.798,0.213,1.2c-0.51,0.981-0.928,1.979-1.238,2.963
		c-0.137,0.433-0.533,0.71-0.998,0.698c-0.008-0.001-0.111-0.007-0.119-0.008l-0.59-0.005c-2.574,0-4.668,2.095-4.668,4.669v0.494
		c0,2.575,2.094,4.67,4.668,4.67h0.494c0.008,0,0.207-0.012,0.215-0.012c0.465-0.016,0.861,0.266,0.998,0.697
		c0.311,0.984,0.729,1.98,1.238,2.963c0.211,0.402,0.123,0.895-0.213,1.201c-0.053,0.049-0.109,0.092-0.166,0.135l-0.355,0.352
		c-1.82,1.82-1.82,4.782,0,6.604l0.35,0.35c0.883,0.881,2.055,1.367,3.301,1.367c1.248,0,2.42-0.486,3.303-1.367l0.35-0.35
		c0.043-0.064,0.088-0.119,0.137-0.174C40.724,66.534,40.995,66.421,41.269,66.421z M50.296,58.6c-4.707,0-8.535-3.829-8.535-8.534
		c0-4.707,3.828-8.535,8.535-8.535c4.705,0,8.535,3.828,8.535,8.535C58.831,54.771,55.001,58.6,50.296,58.6z M50.296,43.53
		c-3.604,0-6.535,2.932-6.535,6.535c0,3.603,2.932,6.534,6.535,6.534s6.535-2.932,6.535-6.534
		C56.831,46.462,53.899,43.53,50.296,43.53z"/>
</g>
</svg>
