<?xml version="1.0" encoding="utf-8"?>
<!-- Generator: Adobe Illustrator 16.0.0, SVG Export Plug-In . SVG Version: 6.00 Build 0)  -->
<!DOCTYPE svg PUBLIC "-//W3C//DTD SVG 1.1//EN" "http://www.w3.org/Graphics/SVG/1.1/DTD/svg11.dtd">
<svg version="1.1" id="Layer_1" xmlns="http://www.w3.org/2000/svg" xmlns:xlink="http://www.w3.org/1999/xlink" x="0px" y="0px"
	 width="100px" height="100px" viewBox="0 0 100 100" enable-background="new 0 0 100 100" xml:space="preserve">
<g>
	<path d="M43.957,67.942h12.411c3.678,0,6.669-2.991,6.669-6.669V31.111c0-3.678-2.992-6.669-6.669-6.669H43.957
		c-3.678,0-6.669,2.991-6.669,6.669v30.162C37.287,64.951,40.279,67.942,43.957,67.942z M39.287,31.111
		c0-2.574,2.095-4.669,4.669-4.669h12.411c2.575,0,4.669,2.095,4.669,4.669v30.162c0,2.574-2.095,4.669-4.669,4.669H43.957
		c-2.575,0-4.669-2.095-4.669-4.669V31.111z"/>
	<path d="M65.412,46.028c-0.552,0-1,0.448-1,1v17.411c0,2.574-1.867,4.67-4.162,4.67H40.074c-2.295,0-4.162-2.096-4.162-4.67V47.028
		c0-0.552-0.448-1-1-1s-1,0.448-1,1v17.411c0,3.678,2.764,6.67,6.162,6.67h9.088v5.083h-8.875c-0.552,0-1,0.448-1,1s0.448,1,1,1
		h19.75c0.552,0,1-0.448,1-1s-0.448-1-1-1h-8.875v-5.083h9.088c3.397,0,6.162-2.992,6.162-6.67V47.028
		C66.412,46.476,65.964,46.028,65.412,46.028z"/>
</g>
</svg>
