<?xml version="1.0" encoding="utf-8"?>
<!-- Generator: Adobe Illustrator 16.0.0, SVG Export Plug-In . SVG Version: 6.00 Build 0)  -->
<!DOCTYPE svg PUBLIC "-//W3C//DTD SVG 1.1//EN" "http://www.w3.org/Graphics/SVG/1.1/DTD/svg11.dtd">
<svg version="1.1" id="Layer_1" xmlns="http://www.w3.org/2000/svg" xmlns:xlink="http://www.w3.org/1999/xlink" x="0px" y="0px"
	 width="100px" height="100px" viewBox="0 0 100 100" enable-background="new 0 0 100 100" xml:space="preserve">
<g>
	<path d="M33.264,65.303V34.983c0-0.553-0.447-1-1-1s-1,0.447-1,1v30.319c-2.486,0.471-4.375,2.652-4.375,5.274
		c0,2.963,2.411,5.375,5.375,5.375s5.375-2.412,5.375-5.375C37.639,67.955,35.75,65.773,33.264,65.303z M32.264,73.952
		c-1.861,0-3.375-1.515-3.375-3.375c0-1.861,1.514-3.375,3.375-3.375s3.375,1.514,3.375,3.375
		C35.639,72.438,34.125,73.952,32.264,73.952z"/>
	<path d="M68.491,33.374c-2.963,0-5.375,2.411-5.375,5.375c0,2.621,1.889,4.803,4.375,5.273v30.32c0,0.552,0.448,1,1,1
		c0.553,0,1-0.448,1-1v-30.32c2.486-0.471,4.375-2.652,4.375-5.273C73.866,35.785,71.456,33.374,68.491,33.374z M68.491,42.124
		c-1.86,0-3.375-1.514-3.375-3.375s1.515-3.375,3.375-3.375c1.861,0,3.375,1.514,3.375,3.375S70.352,42.124,68.491,42.124z"/>
	<path d="M51.18,49.085V34.983c0-0.553-0.447-1-1-1c-0.552,0-1,0.447-1,1v14.102c-2.486,0.471-4.375,2.652-4.375,5.273
		s1.889,4.803,4.375,5.273v14.102c0,0.553,0.448,1,1,1c0.553,0,1-0.447,1-1V59.632c2.486-0.471,4.375-2.652,4.375-5.273
		S53.667,49.556,51.18,49.085z M51.18,57.565c-0.317,0.1-0.648,0.168-1,0.168c-0.35,0-0.682-0.068-1-0.168
		c-1.37-0.43-2.375-1.697-2.375-3.207s1.005-2.777,2.375-3.207c0.318-0.1,0.65-0.168,1-0.168c0.352,0,0.683,0.068,1,0.168
		c1.371,0.43,2.375,1.697,2.375,3.207S52.551,57.136,51.18,57.565z"/>
</g>
</svg>
