<?xml version="1.0" encoding="utf-8"?>
<!-- Generator: Adobe Illustrator 16.0.0, SVG Export Plug-In . SVG Version: 6.00 Build 0)  -->
<!DOCTYPE svg PUBLIC "-//W3C//DTD SVG 1.1//EN" "http://www.w3.org/Graphics/SVG/1.1/DTD/svg11.dtd">
<svg version="1.1" id="Layer_1" xmlns="http://www.w3.org/2000/svg" xmlns:xlink="http://www.w3.org/1999/xlink" x="0px" y="0px"
	 width="100px" height="100px" viewBox="0 0 100 100" enable-background="new 0 0 100 100" xml:space="preserve">
<g>
	<path d="M44.58,57.137h11.339c2.114,0,3.834-1.72,3.834-3.834s-1.72-3.834-3.834-3.834H44.58c-2.114,0-3.834,1.72-3.834,3.834
		S42.466,57.137,44.58,57.137z M44.58,51.468h11.339c1.012,0,1.834,0.823,1.834,1.834s-0.823,1.834-1.834,1.834H44.58
		c-1.012,0-1.834-0.823-1.834-1.834S43.568,51.468,44.58,51.468z"/>
	<path d="M71.247,29.47H28.752c-3.678,0-6.669,2.992-6.669,6.669v4.831c0,0.552,0.448,1,1,1h2.5V67.3
		c0,3.678,2.992,6.669,6.669,6.669h35.994c3.678,0,6.669-2.992,6.669-6.669V41.97h2c0.552,0,1-0.448,1-1v-4.831
		C77.917,32.461,74.925,29.47,71.247,29.47z M72.916,67.3c0,2.575-2.095,4.669-4.669,4.669H32.252c-2.575,0-4.669-2.095-4.669-4.669
		V41.97h45.333V67.3z M75.917,39.97h-2H26.583h-2.5v-3.831c0-2.575,2.095-4.669,4.669-4.669h42.495c2.575,0,4.669,2.095,4.669,4.669
		V39.97z"/>
</g>
</svg>
