<?xml version="1.0" encoding="utf-8"?>
<!-- Generator: Adobe Illustrator 16.0.4, SVG Export Plug-In . SVG Version: 6.00 Build 0)  -->
<!DOCTYPE svg PUBLIC "-//W3C//DTD SVG 1.1//EN" "http://www.w3.org/Graphics/SVG/1.1/DTD/svg11.dtd">
<svg version="1.1" id="Layer_1" xmlns="http://www.w3.org/2000/svg" xmlns:xlink="http://www.w3.org/1999/xlink" x="0px" y="0px"
	 width="100px" height="100px" viewBox="0 0 100 100" enable-background="new 0 0 100 100" xml:space="preserve">
<path d="M71.08,33.31H28.92c-3.678,0-6.67,2.992-6.67,6.669v24.996c0,3.677,2.992,6.668,6.67,6.668h42.16
	c3.678,0,6.67-2.991,6.67-6.668V39.979C77.75,36.302,74.758,33.31,71.08,33.31z M28.92,35.31h42.16c2.575,0,4.67,2.095,4.67,4.669
	h-51.5C24.25,37.405,26.345,35.31,28.92,35.31z M71.08,69.643H28.92c-2.575,0-4.67-2.094-4.67-4.668V46.971h51.5v18.003
	C75.75,67.549,73.655,69.643,71.08,69.643z"/>
</svg>
