<?xml version="1.0" encoding="utf-8"?>
<!-- Generator: Adobe Illustrator 16.0.0, SVG Export Plug-In . SVG Version: 6.00 Build 0)  -->
<!DOCTYPE svg PUBLIC "-//W3C//DTD SVG 1.1//EN" "http://www.w3.org/Graphics/SVG/1.1/DTD/svg11.dtd">
<svg version="1.1" id="Layer_1" xmlns="http://www.w3.org/2000/svg" xmlns:xlink="http://www.w3.org/1999/xlink" x="0px" y="0px"
	 width="100px" height="100px" viewBox="0 0 100 100" enable-background="new 0 0 100 100" xml:space="preserve">
<g>
	<path d="M73.271,34.549H26.896c-0.552,0-1,0.447-1,1v2.465c0,2.614,1.53,4.943,3.862,6.027v17.644c0,3.678,2.992,6.669,6.67,6.669
		h27.327c3.678,0,6.669-2.991,6.669-6.669V44.033c2.324-1.088,3.848-3.413,3.848-6.02v-2.465
		C74.271,34.996,73.824,34.549,73.271,34.549z M68.424,61.685c0,2.574-2.094,4.669-4.669,4.669H36.428
		c-2.575,0-4.67-2.095-4.67-4.669V44.633c0.268,0.033,0.537,0.05,0.807,0.05h35.038c0.274,0,0.549-0.018,0.821-0.052V61.685z
		 M72.271,38.014c0,1.999-1.273,3.774-3.169,4.418c-0.491,0.167-0.996,0.251-1.5,0.251H32.564c-0.5,0-1.001-0.083-1.487-0.247
		h-0.001c-1.902-0.64-3.181-2.417-3.181-4.422v-1.465h44.376V38.014z"/>
	<path d="M57.235,47.813c-0.391-0.391-1.023-0.391-1.414,0l-5.699,5.699l-5.699-5.699c-0.391-0.391-1.023-0.391-1.414,0
		s-0.391,1.023,0,1.414l5.699,5.699l-5.699,5.699c-0.391,0.391-0.391,1.023,0,1.414c0.195,0.195,0.451,0.293,0.707,0.293
		s0.512-0.098,0.707-0.293l5.699-5.699l5.699,5.699c0.195,0.195,0.451,0.293,0.707,0.293s0.512-0.098,0.707-0.293
		c0.391-0.391,0.391-1.023,0-1.414l-5.699-5.699l5.699-5.699C57.626,48.837,57.626,48.204,57.235,47.813z"/>
</g>
</svg>
