<?xml version="1.0" encoding="utf-8"?>
<!-- Generator: Adobe Illustrator 16.0.0, SVG Export Plug-In . SVG Version: 6.00 Build 0)  -->
<!DOCTYPE svg PUBLIC "-//W3C//DTD SVG 1.1//EN" "http://www.w3.org/Graphics/SVG/1.1/DTD/svg11.dtd">
<svg version="1.1" id="Layer_1" xmlns="http://www.w3.org/2000/svg" xmlns:xlink="http://www.w3.org/1999/xlink" x="0px" y="0px"
	 width="100px" height="100px" viewBox="0 0 100 100" enable-background="new 0 0 100 100" xml:space="preserve">
<path d="M74.127,41.121c-0.006-0.085-0.022-0.167-0.05-0.248c-0.012-0.034-0.02-0.067-0.035-0.1
	c-0.049-0.106-0.109-0.206-0.194-0.291v-0.001l0,0c0,0-0.001-0.001-0.001-0.002L56.778,23.413c-0.086-0.087-0.188-0.148-0.295-0.197
	c-0.027-0.013-0.057-0.02-0.086-0.03c-0.086-0.029-0.174-0.048-0.265-0.053c-0.021-0.002-0.04-0.013-0.062-0.013H44.794
	c-3.678,0-6.669,2.992-6.669,6.67v1.674h-4.663c-3.678,0-6.67,2.992-6.67,6.67v34.016c0,3.678,2.992,6.669,6.67,6.669h22.677
	c3.677,0,6.669-2.991,6.669-6.669v-1.675h4.664c3.678,0,6.669-2.991,6.669-6.669V41.189C74.141,41.165,74.129,41.145,74.127,41.121z
	 M57.071,26.534l13.655,13.655h-8.985c-2.575,0-4.67-2.095-4.67-4.67V26.534z M60.808,72.149c0,2.574-2.095,4.669-4.669,4.669
	H33.462c-2.575,0-4.67-2.095-4.67-4.669V38.134c0-2.575,2.095-4.67,4.67-4.67h5.663h4.614v10.399c0,3.678,2.991,6.669,6.668,6.669
	h10.4v18.942V72.149z M59.394,48.532h-8.986c-2.574,0-4.668-2.094-4.668-4.669v-8.985L59.394,48.532z M67.472,68.475h-4.664V49.532
	c0-0.023-0.012-0.044-0.014-0.067c-0.006-0.085-0.021-0.167-0.049-0.249c-0.012-0.033-0.021-0.066-0.036-0.1
	c-0.048-0.105-0.109-0.205-0.194-0.29l0,0l0,0c0-0.001-0.001-0.002-0.001-0.002L45.446,31.757c-0.087-0.086-0.188-0.147-0.295-0.196
	c-0.029-0.013-0.058-0.021-0.088-0.031c-0.086-0.03-0.172-0.048-0.263-0.053c-0.021-0.002-0.04-0.013-0.062-0.013h-4.614V29.79
	c0-2.575,2.095-4.67,4.669-4.67h10.277V35.52c0,3.678,2.992,6.67,6.67,6.67h10.399v21.616C72.141,66.38,70.046,68.475,67.472,68.475
	z"/>
</svg>
