<?xml version="1.0" encoding="utf-8"?>
<!-- Generator: Adobe Illustrator 16.0.0, SVG Export Plug-In . SVG Version: 6.00 Build 0)  -->
<!DOCTYPE svg PUBLIC "-//W3C//DTD SVG 1.1//EN" "http://www.w3.org/Graphics/SVG/1.1/DTD/svg11.dtd">
<svg version="1.1" id="Layer_1" xmlns="http://www.w3.org/2000/svg" xmlns:xlink="http://www.w3.org/1999/xlink" x="0px" y="0px"
	 width="100px" height="100px" viewBox="0 0 100 100" enable-background="new 0 0 100 100" xml:space="preserve">
<path d="M72.453,35.644c-0.001-0.002-0.002-0.003-0.003-0.005c-0.003-0.003-0.007-0.005-0.01-0.007
	c-1.173-1.024-2.703-1.651-4.379-1.651H31.399c-1.676,0-3.206,0.627-4.379,1.651c-0.003,0.003-0.007,0.004-0.01,0.007
	c-0.001,0.002-0.002,0.003-0.003,0.005c-1.392,1.224-2.277,3.012-2.277,5.006v18.328c0,1.995,0.885,3.783,2.277,5.006
	c0.001,0.002,0.002,0.005,0.003,0.006c0.003,0.003,0.007,0.004,0.01,0.007c1.173,1.025,2.703,1.651,4.379,1.651H68.06
	c1.676,0,3.206-0.626,4.379-1.651c0.003-0.003,0.007-0.004,0.01-0.007c0.001-0.001,0.002-0.004,0.003-0.006
	c1.392-1.223,2.277-3.011,2.277-5.006V40.649C74.729,38.655,73.845,36.867,72.453,35.644z M68.06,35.98
	c0.746,0,1.441,0.192,2.067,0.504L49.729,56.093L29.332,36.484c0.626-0.312,1.321-0.504,2.067-0.504H68.06z M26.729,40.649
	c0-1.1,0.398-2.098,1.037-2.896l12.546,12.061L27.766,61.876c-0.639-0.799-1.037-1.799-1.037-2.898V40.649z M31.399,63.647
	c-0.746,0-1.441-0.191-2.067-0.504L41.755,51.2l7.282,7.001c0.193,0.187,0.443,0.279,0.693,0.279s0.5-0.093,0.693-0.279l7.282-7.001
	l12.423,11.943c-0.626,0.313-1.321,0.504-2.067,0.504H31.399z M72.729,58.978c0,1.1-0.398,2.1-1.037,2.898L59.146,49.813
	l12.546-12.061c0.639,0.799,1.037,1.797,1.037,2.896V58.978z"/>
</svg>
