<?xml version="1.0" encoding="utf-8"?>
<!-- Generator: Adobe Illustrator 16.0.0, SVG Export Plug-In . SVG Version: 6.00 Build 0)  -->
<!DOCTYPE svg PUBLIC "-//W3C//DTD SVG 1.1//EN" "http://www.w3.org/Graphics/SVG/1.1/DTD/svg11.dtd">
<svg version="1.1" id="Layer_1" xmlns="http://www.w3.org/2000/svg" xmlns:xlink="http://www.w3.org/1999/xlink" x="0px" y="0px"
	 width="100px" height="100px" viewBox="0 0 100 100" enable-background="new 0 0 100 100" xml:space="preserve">
<g>
	<g>
		<path d="M47.883,67.995c-16.476,0-28.336-17.029-28.833-17.754c-0.248-0.36-0.231-0.841,0.039-1.184
			c0.561-0.712,13.906-17.424,29.913-17.424c17.953,0,29.474,16.769,29.956,17.482c0.23,0.342,0.228,0.79-0.007,1.129
			c-0.475,0.687-11.842,16.819-29.899,17.721C48.66,67.985,48.27,67.995,47.883,67.995z M21.141,49.715
			c2.326,3.097,13.553,16.967,27.812,16.254c15.237-0.76,25.763-13.453,27.938-16.3c-2.174-2.912-12.81-16.035-27.889-16.035
			C35.574,33.634,23.645,46.771,21.141,49.715z"/>
	</g>
	<g>
		<path d="M49.002,56.801c-3.852,0-6.986-3.135-6.986-6.986s3.134-6.986,6.986-6.986s6.986,3.135,6.986,6.986
			S52.854,56.801,49.002,56.801z"/>
	</g>
	<g>
		<path d="M49.002,62.301c-6.885,0-12.486-5.602-12.486-12.486s5.602-12.486,12.486-12.486s12.486,5.602,12.486,12.486
			S55.887,62.301,49.002,62.301z M49.002,39.328c-5.782,0-10.486,4.704-10.486,10.486s4.704,10.486,10.486,10.486
			s10.486-4.704,10.486-10.486S54.785,39.328,49.002,39.328z"/>
	</g>
</g>
</svg>
