<?xml version="1.0" encoding="utf-8"?>
<!-- Generator: Adobe Illustrator 16.0.0, SVG Export Plug-In . SVG Version: 6.00 Build 0)  -->
<!DOCTYPE svg PUBLIC "-//W3C//DTD SVG 1.1//EN" "http://www.w3.org/Graphics/SVG/1.1/DTD/svg11.dtd">
<svg version="1.1" id="Layer_1" xmlns="http://www.w3.org/2000/svg" xmlns:xlink="http://www.w3.org/1999/xlink" x="0px" y="0px"
	 width="100px" height="100px" viewBox="0 0 100 100" enable-background="new 0 0 100 100" xml:space="preserve">
<path d="M72.308,50.227L49.892,32.658c-0.349-0.3-0.841-0.37-1.26-0.179c-0.418,0.192-0.687,0.61-0.687,1.071v15.114L27.521,32.658
	c-0.349-0.3-0.841-0.37-1.26-0.179c-0.419,0.192-0.687,0.61-0.687,1.071v35.728c0,0.463,0.272,0.884,0.695,1.074
	c0.424,0.189,0.918,0.113,1.266-0.195l20.409-16.533v15.654c0,0.463,0.272,0.884,0.696,1.074c0.423,0.189,0.918,0.113,1.265-0.195
	l22.415-18.158c0.254-0.225,0.4-0.562,0.396-0.889C72.714,50.771,72.565,50.448,72.308,50.227z M27.931,66.654V36.118l19.45,15.016
	L27.931,66.654z M50.301,66.654V51.332c0.015-0.075,0.048-0.147,0.046-0.222c0-0.072-0.032-0.137-0.046-0.206V36.118l19.45,15.016
	L50.301,66.654z"/>
</svg>
