<?xml version="1.0" encoding="utf-8"?>
<!-- Generator: Adobe Illustrator 16.0.0, SVG Export Plug-In . SVG Version: 6.00 Build 0)  -->
<!DOCTYPE svg PUBLIC "-//W3C//DTD SVG 1.1//EN" "http://www.w3.org/Graphics/SVG/1.1/DTD/svg11.dtd">
<svg version="1.1" id="Layer_1" xmlns="http://www.w3.org/2000/svg" xmlns:xlink="http://www.w3.org/1999/xlink" x="0px" y="0px"
	 width="100px" height="100px" viewBox="0 0 100 100" enable-background="new 0 0 100 100" xml:space="preserve">
<path d="M72.512,29.297H27.514c-2.113,0-3.834,1.721-3.834,3.835v28.997c0,2.115,1.721,3.835,3.834,3.835h21.499v7.75h-6.875
	c-0.552,0-1,0.448-1,1c0,0.553,0.448,1,1,1h15.625c0.552,0,1-0.447,1-1c0-0.552-0.448-1-1-1h-6.75v-7.75h21.499
	c2.114,0,3.834-1.72,3.834-3.835V33.132C76.346,31.018,74.626,29.297,72.512,29.297z M74.346,62.129
	c0,1.012-0.822,1.835-1.834,1.835H27.514c-1.012,0-1.834-0.823-1.834-1.835V33.132c0-1.012,0.822-1.835,1.834-1.835h44.998
	c1.012,0,1.834,0.823,1.834,1.835V62.129z"/>
</svg>
