<?xml version="1.0" encoding="utf-8"?>
<!-- Generator: Adobe Illustrator 16.0.0, SVG Export Plug-In . SVG Version: 6.00 Build 0)  -->
<!DOCTYPE svg PUBLIC "-//W3C//DTD SVG 1.1//EN" "http://www.w3.org/Graphics/SVG/1.1/DTD/svg11.dtd">
<svg version="1.1" id="Layer_1" xmlns="http://www.w3.org/2000/svg" xmlns:xlink="http://www.w3.org/1999/xlink" x="0px" y="0px"
	 width="100px" height="100px" viewBox="0 0 100 100" enable-background="new 0 0 100 100" xml:space="preserve">
<g>
	<path d="M50.165,74.379c-0.259,0-0.508-0.101-0.695-0.281c-0.041-0.039-4.269-4.129-21.179-21.038l-0.117-0.118
		c-0.132-0.131-0.196-0.205-0.259-0.279c-2.552-2.76-3.928-6.255-3.928-9.907c0-7.995,6.505-14.5,14.5-14.5
		c4.565,0,8.764,2.101,11.5,5.688c2.736-3.588,6.935-5.688,11.5-5.688c7.995,0,14.5,6.505,14.5,14.5
		c0,4.046-1.637,7.806-4.609,10.584c0.006,0.001-0.027,0.04-0.067,0.079C54.298,70.432,50.928,74.027,50.896,74.061
		c-0.183,0.197-0.437,0.311-0.705,0.318C50.182,74.379,50.174,74.379,50.165,74.379z M38.488,30.255c-6.893,0-12.5,5.607-12.5,12.5
		c0,3.146,1.186,6.159,3.339,8.483l0.115,0.133c0.028,0.032,0.055,0.066,0.088,0.1c0.003,0.003,0.073,0.072,0.076,0.076
		c0,0,0.098,0.098,0.098,0.098C42.891,64.83,48.357,70.213,50.14,71.957c1.658-1.721,6.694-6.891,19.758-19.953l0.081-0.092
		c2.598-2.431,4.009-5.671,4.009-9.157c0-6.893-5.607-12.5-12.5-12.5c-4.369,0-8.35,2.235-10.648,5.978
		c-0.363,0.594-1.341,0.594-1.704,0C46.837,32.49,42.857,30.255,38.488,30.255z"/>
</g>
</svg>
