<?xml version="1.0" encoding="utf-8"?>
<!-- Generator: Adobe Illustrator 16.0.0, SVG Export Plug-In . SVG Version: 6.00 Build 0)  -->
<!DOCTYPE svg PUBLIC "-//W3C//DTD SVG 1.1//EN" "http://www.w3.org/Graphics/SVG/1.1/DTD/svg11.dtd">
<svg version="1.1" id="Layer_1" xmlns="http://www.w3.org/2000/svg" xmlns:xlink="http://www.w3.org/1999/xlink" x="0px" y="0px"
	 width="100px" height="100px" viewBox="0 0 100 100" enable-background="new 0 0 100 100" xml:space="preserve">
<g>
	<path d="M72.004,43.288h-8.818h-8.012H33.199c-2.072,0-3.758,1.721-3.758,3.834v14.332c0,0.072,0.006,0.144,0.018,0.23l-0.004,0.07
		c-0.008,0.094-0.014,0.188-0.014,0.283c0,8.369,5.514,15.471,13.098,17.875H30.441c-0.551,0-1,0.447-1,1s0.449,1,1,1h35.5
		c0.553,0,1-0.447,1-1s-0.447-1-1-1H53.846c6.578-2.085,11.58-7.709,12.795-14.625h5.363c2.115,0,3.834-1.721,3.834-3.834V47.122
		C75.838,45.009,74.119,43.288,72.004,43.288z M48.191,78.788c-9.234,0-16.75-7.514-16.75-16.75c0-0.047,0.004-0.094,0.008-0.141
		c0.006-0.074,0.01-0.148,0.01-0.318c-0.002-0.02-0.014-0.105-0.018-0.125V47.122c0-1.012,0.789-1.834,1.758-1.834h21.975h8.012
		c0.969,0,1.756,0.822,1.756,1.834V61.44c-0.008,0.051-0.02,0.183-0.018,0.234c0,0.074,0.006,0.148,0.012,0.223
		c0.002,0.047,0.006,0.094,0.006,0.141C64.941,71.274,57.428,78.788,48.191,78.788z M73.838,61.454c0,1.012-0.822,1.834-1.834,1.834
		h-5.125c0.027-0.415,0.063-0.828,0.063-1.25c0-0.096-0.006-0.189-0.012-0.283l-0.008-0.049c0.012-0.084,0.02-0.166,0.02-0.252
		V47.122c0-0.668-0.182-1.287-0.479-1.834h5.541c1.012,0,1.834,0.822,1.834,1.834V61.454z"/>
	<path d="M40.701,41.913c0.553,0,1-0.447,1-1v-9.5c0-0.553-0.447-1-1-1s-1,0.447-1,1v9.5C39.701,41.466,40.148,41.913,40.701,41.913
		z"/>
	<path d="M48.701,41.913c0.553,0,1-0.447,1-1v-12.5c0-0.553-0.447-1-1-1s-1,0.447-1,1v12.5
		C47.701,41.466,48.148,41.913,48.701,41.913z"/>
	<path d="M55.682,41.913c0.553,0,1-0.447,1-1v-9.5c0-0.553-0.447-1-1-1c-0.551,0-1,0.447-1,1v9.5
		C54.682,41.466,55.131,41.913,55.682,41.913z"/>
</g>
</svg>
