<?xml version="1.0" encoding="utf-8"?>
<!-- Generator: Adobe Illustrator 16.0.0, SVG Export Plug-In . SVG Version: 6.00 Build 0)  -->
<!DOCTYPE svg PUBLIC "-//W3C//DTD SVG 1.1//EN" "http://www.w3.org/Graphics/SVG/1.1/DTD/svg11.dtd">
<svg version="1.1" id="Layer_1" xmlns="http://www.w3.org/2000/svg" xmlns:xlink="http://www.w3.org/1999/xlink" x="0px" y="0px"
	 width="100px" height="100px" viewBox="0 0 100 100" enable-background="new 0 0 100 100" xml:space="preserve">
<path d="M49.996,22.361c-11.396,0-20.666,9.271-20.666,20.667c0,4.804,3.452,10.946,10.261,18.258
	c0.675,0.725,1.346,1.421,2.006,2.086c0.285,0.465,0.511,0.963,0.669,1.487c-0.012,0.167-0.02,0.335-0.02,0.505v4.414v2v0.834v2
	v1.414c0,3.678,2.992,6.669,6.67,6.669h2.162c3.677,0,6.668-2.991,6.668-6.669v-1.414v-2v-0.834v-2v-4.414
	c0-0.17-0.006-0.338-0.02-0.505c0.16-0.524,0.385-1.022,0.67-1.487c0.66-0.665,1.331-1.361,2.006-2.086
	c6.809-7.312,10.262-13.454,10.262-18.258C70.664,31.632,61.393,22.361,49.996,22.361z M55.746,76.026
	c0,2.574-2.094,4.669-4.668,4.669h-2.162c-2.575,0-4.67-2.095-4.67-4.669v-1.414h11.5V76.026z M55.746,72.612h-11.5v-0.834h11.5
	V72.612z M58.938,59.923c-0.687,0.737-1.369,1.444-2.04,2.12l-0.133,0.167c-0.451,0.705-0.793,1.475-1.016,2.286l-0.051,0.183
	l0.02,0.188c0.018,0.163,0.027,0.329,0.027,0.497v4.414h-11.5v-4.414c0-0.168,0.01-0.334,0.027-0.497l0.02-0.188l-0.05-0.183
	c-0.224-0.812-0.565-1.581-1.015-2.286l-0.135-0.167c-0.67-0.676-1.353-1.383-2.039-2.12c-6.362-6.831-9.725-12.674-9.725-16.895
	c0-10.293,8.373-18.667,18.666-18.667s18.668,8.374,18.668,18.667C68.664,47.249,65.301,53.092,58.938,59.923z"/>
</svg>
