<?xml version="1.0" encoding="utf-8"?>
<!-- Generator: Adobe Illustrator 16.0.0, SVG Export Plug-In . SVG Version: 6.00 Build 0)  -->
<!DOCTYPE svg PUBLIC "-//W3C//DTD SVG 1.1//EN" "http://www.w3.org/Graphics/SVG/1.1/DTD/svg11.dtd">
<svg version="1.1" id="Layer_1" xmlns="http://www.w3.org/2000/svg" xmlns:xlink="http://www.w3.org/1999/xlink" x="0px" y="0px"
	 width="100px" height="100px" viewBox="0 0 100 100" enable-background="new 0 0 100 100" xml:space="preserve">
<path d="M72.381,29.461c-0.391-0.391-1.023-0.391-1.414,0l-6.857,6.947C62.962,35.473,61.499,35,59.907,35H33v-5.929
	c0-0.552-0.448-1-1-1s-1,0.448-1,1V35h-5.673c-0.552,0-1,0.448-1,1s0.448,1,1,1H31v27.651c0,1.69,0.675,3.23,1.715,4.407
	c0.005,0.006,0.026,0.013,0.031,0.019c0.004,0.003,0.018-0.156,0.021-0.153C33.99,70.292,35.771,71,37.746,71H64v4.821
	c0,0.552,0.448,1,1,1s1-0.448,1-1V71h5.326c0.552,0,1-0.448,1-1s-0.448-1-1-1H66V41.491c0-1.364-0.125-2.634-0.831-3.691
	l7.068-6.924C72.628,30.485,72.771,29.852,72.381,29.461z M59.907,37c1.041,0,1.993,0.264,2.77,0.842L33.588,66.847
	C33.249,66.2,33,65.431,33,64.651V37H59.907z M64,41.491V69H37.746c-1.068,0-2.042-0.215-2.83-0.82L63.7,39.188
	C64.063,39.852,64,40.682,64,41.491z"/>
</svg>
