<?xml version="1.0" encoding="utf-8"?>
<!-- Generator: Adobe Illustrator 16.0.0, SVG Export Plug-In . SVG Version: 6.00 Build 0)  -->
<!DOCTYPE svg PUBLIC "-//W3C//DTD SVG 1.1//EN" "http://www.w3.org/Graphics/SVG/1.1/DTD/svg11.dtd">
<svg version="1.1" id="Layer_1" xmlns="http://www.w3.org/2000/svg" xmlns:xlink="http://www.w3.org/1999/xlink" x="0px" y="0px"
	 width="100px" height="100px" viewBox="0 0 100 100" enable-background="new 0 0 100 100" xml:space="preserve">
<g>
	<path d="M33.183,29.263c-2.896,0-5.252,2.356-5.252,5.252s2.356,5.252,5.252,5.252s5.252-2.356,5.252-5.252
		S36.079,29.263,33.183,29.263z M33.183,37.767c-1.793,0-3.252-1.459-3.252-3.252s1.459-3.252,3.252-3.252
		c1.793,0,3.252,1.459,3.252,3.252S34.976,37.767,33.183,37.767z"/>
	<path d="M50.181,29.263c-2.896,0-5.252,2.356-5.252,5.252s2.356,5.252,5.252,5.252s5.252-2.356,5.252-5.252
		S53.077,29.263,50.181,29.263z M50.181,37.767c-1.793,0-3.252-1.459-3.252-3.252s1.459-3.252,3.252-3.252
		c1.793,0,3.252,1.459,3.252,3.252S51.974,37.767,50.181,37.767z"/>
	<path d="M67.454,39.767c2.896,0,5.252-2.356,5.252-5.252s-2.356-5.252-5.252-5.252s-5.252,2.356-5.252,5.252
		S64.558,39.767,67.454,39.767z M67.454,31.263c1.793,0,3.252,1.459,3.252,3.252s-1.459,3.252-3.252,3.252
		c-1.793,0-3.252-1.459-3.252-3.252S65.661,31.263,67.454,31.263z"/>
	<path d="M33.045,56.596c2.896,0,5.252-2.355,5.252-5.252c0-2.896-2.356-5.252-5.252-5.252s-5.252,2.356-5.252,5.252
		C27.793,54.24,30.149,56.596,33.045,56.596z M33.045,48.092c1.793,0,3.252,1.459,3.252,3.252s-1.459,3.252-3.252,3.252
		c-1.793,0-3.252-1.459-3.252-3.252S31.252,48.092,33.045,48.092z"/>
	<path d="M50.044,56.596c2.896,0,5.252-2.355,5.252-5.252c0-2.896-2.356-5.252-5.252-5.252s-5.252,2.356-5.252,5.252
		C44.792,54.24,47.148,56.596,50.044,56.596z M50.044,48.092c1.793,0,3.252,1.459,3.252,3.252s-1.459,3.252-3.252,3.252
		c-1.793,0-3.252-1.459-3.252-3.252S48.25,48.092,50.044,48.092z"/>
	<path d="M67.317,56.596c2.896,0,5.252-2.355,5.252-5.252c0-2.896-2.356-5.252-5.252-5.252s-5.252,2.356-5.252,5.252
		C62.064,54.24,64.421,56.596,67.317,56.596z M67.317,48.092c1.793,0,3.252,1.459,3.252,3.252s-1.459,3.252-3.252,3.252
		c-1.793,0-3.252-1.459-3.252-3.252S65.523,48.092,67.317,48.092z"/>
	<path d="M33.166,62.867c-2.896,0-5.252,2.356-5.252,5.252c0,2.896,2.356,5.252,5.252,5.252s5.252-2.355,5.252-5.252
		C38.418,65.224,36.062,62.867,33.166,62.867z M33.166,71.371c-1.793,0-3.252-1.459-3.252-3.252s1.459-3.252,3.252-3.252
		c1.793,0,3.252,1.459,3.252,3.252S34.959,71.371,33.166,71.371z"/>
	<path d="M50.165,62.867c-2.896,0-5.252,2.356-5.252,5.252c0,2.896,2.356,5.252,5.252,5.252s5.252-2.355,5.252-5.252
		C55.417,65.224,53.061,62.867,50.165,62.867z M50.165,71.371c-1.793,0-3.252-1.459-3.252-3.252s1.459-3.252,3.252-3.252
		c1.793,0,3.252,1.459,3.252,3.252S51.958,71.371,50.165,71.371z"/>
	<path d="M67.438,62.867c-2.896,0-5.252,2.356-5.252,5.252c0,2.896,2.356,5.252,5.252,5.252s5.252-2.355,5.252-5.252
		C72.689,65.224,70.333,62.867,67.438,62.867z M67.438,71.371c-1.793,0-3.252-1.459-3.252-3.252s1.459-3.252,3.252-3.252
		c1.793,0,3.252,1.459,3.252,3.252S69.23,71.371,67.438,71.371z"/>
</g>
</svg>
