<?xml version="1.0" encoding="utf-8"?>
<!-- Generator: Adobe Illustrator 16.0.0, SVG Export Plug-In . SVG Version: 6.00 Build 0)  -->
<!DOCTYPE svg PUBLIC "-//W3C//DTD SVG 1.1//EN" "http://www.w3.org/Graphics/SVG/1.1/DTD/svg11.dtd">
<svg version="1.1" id="Layer_1" xmlns="http://www.w3.org/2000/svg" xmlns:xlink="http://www.w3.org/1999/xlink" x="0px" y="0px"
	 width="100px" height="100px" viewBox="0 0 100 100" enable-background="new 0 0 100 100" xml:space="preserve">
<g>
	<path d="M63.408,21.192H36.742c-0.552,0-1,0.448-1,1v5.375v0.792c0,0.298,0.132,0.58,0.362,0.77l0.529,0.438l7.026,5.827v38.348
		v1.031c0,0.33,0.032,0.652,0.079,0.969c0.472,3.219,3.243,5.7,6.591,5.7h0.161c3.348,0,6.119-2.481,6.591-5.7
		c0.046-0.316,0.079-0.639,0.079-0.969v-1.031V35.056l6.205-5.489l0.708-0.626c0.214-0.189,0.337-0.463,0.337-0.749v-0.625v-5.375
		C64.408,21.64,63.96,21.192,63.408,21.192z M50.489,79.442h-0.161c-2.242,0-4.117-1.589-4.565-3.7h9.291
		C54.606,77.853,52.73,79.442,50.489,79.442z M55.483,33.867c-0.226,0.2-0.349,0.49-0.336,0.791c0,0.009,0.011,0.195,0.011,0.203
		v38.881h-9.5V34.923c0-0.297-0.132-0.579-0.362-0.77l-5.532-4.587h20.58L55.483,33.867z M37.742,27.567v-4.375h24.667v4.375H37.742
		z"/>
	<g>
		<path d="M50.075,60.317c-1.827,0-3.312-1.485-3.312-3.312v-4.75c0-1.827,1.486-3.312,3.312-3.312s3.312,1.485,3.312,3.312v4.75
			C53.388,58.832,51.902,60.317,50.075,60.317z M50.075,50.942c-0.724,0-1.312,0.589-1.312,1.312v4.75
			c0,0.724,0.589,1.312,1.312,1.312s1.312-0.589,1.312-1.312v-4.75C51.388,51.531,50.799,50.942,50.075,50.942z"/>
	</g>
</g>
</svg>
