<?xml version="1.0" encoding="utf-8"?>
<!-- Generator: Adobe Illustrator 16.0.0, SVG Export Plug-In . SVG Version: 6.00 Build 0)  -->
<!DOCTYPE svg PUBLIC "-//W3C//DTD SVG 1.1//EN" "http://www.w3.org/Graphics/SVG/1.1/DTD/svg11.dtd">
<svg version="1.1" id="Layer_1" xmlns="http://www.w3.org/2000/svg" xmlns:xlink="http://www.w3.org/1999/xlink" x="0px" y="0px"
	 width="100px" height="100px" viewBox="0 0 100 100" enable-background="new 0 0 100 100" xml:space="preserve">
<g>
	<path d="M50.566,28.227C50.378,28.222,50.189,28.22,50,28.22c-0.553,0-1,0.448-1,1v11.458c0,0.552,0.447,1,1,1s1-0.448,1-1V30.243
		c11.348,0.525,20.5,10.06,20.5,21.477c0,11.855-9.645,21.5-21.5,21.5s-21.5-9.645-21.5-21.5c0-6.099,2.605-11.935,7.15-16.011
		c0.41-0.369,0.445-1.001,0.076-1.412s-1-0.445-1.412-0.077c-4.967,4.455-7.814,10.833-7.814,17.5c0,12.958,10.542,23.5,23.5,23.5
		s23.5-10.542,23.5-23.5C73.5,39.064,63.212,28.525,50.566,28.227z"/>
	<path d="M49.286,52.42c0.196,0.2,0.454,0.3,0.714,0.3c0.253,0,0.506-0.095,0.7-0.286c0.395-0.387,0.4-1.02,0.014-1.414
		L39.76,39.853c-0.387-0.395-1.02-0.4-1.414-0.014s-0.4,1.02-0.014,1.414L49.286,52.42z"/>
</g>
</svg>
