<?xml version="1.0" encoding="utf-8"?>
<!-- Generator: Adobe Illustrator 16.0.0, SVG Export Plug-In . SVG Version: 6.00 Build 0)  -->
<!DOCTYPE svg PUBLIC "-//W3C//DTD SVG 1.1//EN" "http://www.w3.org/Graphics/SVG/1.1/DTD/svg11.dtd">
<svg version="1.1" id="Layer_1" xmlns="http://www.w3.org/2000/svg" xmlns:xlink="http://www.w3.org/1999/xlink" x="0px" y="0px"
	 width="100px" height="100px" viewBox="0 0 100 100" enable-background="new 0 0 100 100" xml:space="preserve">
<path d="M25.193,51.523h1.787c-0.009,0.201-0.03,0.398-0.03,0.602c0,6.98,5.679,12.66,12.66,12.66s12.66-5.68,12.66-12.66
	c0-0.203-0.021-0.4-0.03-0.602h5.785c-0.032,0.367-0.056,0.736-0.056,1.111c0,6.98,5.679,12.66,12.66,12.66s12.66-5.68,12.66-12.66
	c0-0.375-0.024-0.744-0.056-1.111h1.585c0.552,0,1-0.447,1-1s-0.448-1-1-1h-1.932c-1.392-5.479-6.352-9.549-12.257-9.549
	s-10.866,4.07-12.257,9.549h-6.373c-1.203-5.736-6.299-10.059-12.389-10.059s-11.186,4.322-12.389,10.059h-2.028
	c-0.552,0-1,0.447-1,1S24.641,51.523,25.193,51.523z M70.629,41.975c5.878,0,10.66,4.781,10.66,10.66
	c0,5.877-4.782,10.66-10.66,10.66s-10.66-4.783-10.66-10.66C59.969,46.756,64.751,41.975,70.629,41.975z M39.61,41.465
	c5.878,0,10.66,4.781,10.66,10.66c0,5.877-4.782,10.66-10.66,10.66s-10.66-4.783-10.66-10.66
	C28.95,46.246,33.732,41.465,39.61,41.465z"/>
</svg>
