<?xml version="1.0" encoding="utf-8"?>
<!-- Generator: Adobe Illustrator 16.0.0, SVG Export Plug-In . SVG Version: 6.00 Build 0)  -->
<!DOCTYPE svg PUBLIC "-//W3C//DTD SVG 1.1//EN" "http://www.w3.org/Graphics/SVG/1.1/DTD/svg11.dtd">
<svg version="1.1" id="Layer_1" xmlns="http://www.w3.org/2000/svg" xmlns:xlink="http://www.w3.org/1999/xlink" x="0px" y="0px"
	 width="100px" height="100px" viewBox="0 0 100 100" enable-background="new 0 0 100 100" xml:space="preserve">
<g>
	<g>
		<path d="M50.518,64.422c-8.173,0-14.822-6.649-14.822-14.821c0-8.173,6.649-14.822,14.822-14.822
			c8.172,0,14.821,6.649,14.821,14.822C65.339,57.772,58.69,64.422,50.518,64.422z M50.518,36.778
			c-7.07,0-12.822,5.752-12.822,12.822c0,7.069,5.752,12.821,12.822,12.821c7.07,0,12.821-5.752,12.821-12.821
			C63.339,42.53,57.588,36.778,50.518,36.778z"/>
	</g>
	<g>
		<path d="M50.518,32.272c-0.552,0-1-0.447-1-1V20.481c0-0.553,0.448-1,1-1s1,0.447,1,1v10.791
			C51.518,31.825,51.07,32.272,50.518,32.272z"/>
	</g>
	<g>
		<path d="M50.518,80.647c-0.552,0-1-0.447-1-1V68.856c0-0.553,0.448-1,1-1s1,0.447,1,1v10.791
			C51.518,80.2,51.07,80.647,50.518,80.647z"/>
	</g>
	<g>
		<path d="M37.23,37.776c-0.256,0-0.512-0.098-0.707-0.293l-7.631-7.631c-0.391-0.391-0.391-1.023,0-1.414s1.023-0.391,1.414,0
			l7.631,7.631c0.391,0.391,0.391,1.023,0,1.414C37.742,37.679,37.486,37.776,37.23,37.776z"/>
	</g>
	<g>
		<path d="M71.436,71.983c-0.256,0-0.512-0.098-0.707-0.293l-7.631-7.631c-0.391-0.391-0.391-1.023,0-1.414s1.023-0.391,1.414,0
			l7.631,7.631c0.391,0.391,0.391,1.023,0,1.414C71.948,71.886,71.692,71.983,71.436,71.983z"/>
	</g>
	<g>
		<path d="M31.726,51.065H20.935c-0.552,0-1-0.448-1-1c0-0.553,0.448-1,1-1h10.792c0.552,0,1,0.447,1,1
			C32.726,50.617,32.278,51.065,31.726,51.065z"/>
	</g>
	<g>
		<path d="M80.101,51.065H69.31c-0.552,0-1-0.448-1-1c0-0.553,0.448-1,1-1h10.792c0.552,0,1,0.447,1,1
			C81.101,50.617,80.653,51.065,80.101,51.065z"/>
	</g>
	<g>
		<path d="M29.6,71.983c-0.256,0-0.512-0.098-0.707-0.293c-0.391-0.391-0.391-1.023,0-1.414l7.631-7.631
			c0.391-0.391,1.023-0.391,1.414,0s0.391,1.023,0,1.414l-7.631,7.631C30.112,71.886,29.856,71.983,29.6,71.983z"/>
	</g>
	<g>
		<path d="M63.806,37.776c-0.256,0-0.512-0.098-0.707-0.293c-0.391-0.391-0.391-1.023,0-1.414l7.631-7.631
			c0.391-0.391,1.023-0.391,1.414,0s0.391,1.023,0,1.414l-7.631,7.631C64.318,37.679,64.062,37.776,63.806,37.776z"/>
	</g>
</g>
</svg>
