<?xml version="1.0" encoding="utf-8"?>
<!-- Generator: Adobe Illustrator 16.0.0, SVG Export Plug-In . SVG Version: 6.00 Build 0)  -->
<!DOCTYPE svg PUBLIC "-//W3C//DTD SVG 1.1//EN" "http://www.w3.org/Graphics/SVG/1.1/DTD/svg11.dtd">
<svg version="1.1" id="Layer_1" xmlns="http://www.w3.org/2000/svg" xmlns:xlink="http://www.w3.org/1999/xlink" x="0px" y="0px"
	 width="100px" height="100px" viewBox="0 0 100 100" enable-background="new 0 0 100 100" xml:space="preserve">
<path d="M71.848,70.434l-12.189-12.19c2.718-3.337,4.354-7.589,4.354-12.219c0-10.692-8.697-19.39-19.389-19.39
	s-19.39,8.697-19.39,19.39c0,10.691,8.698,19.389,19.39,19.389c4.982,0,9.518-1.906,12.957-5.006l12.146,12.147
	c0.293,0.293,0.678,0.439,1.061,0.439c0.385,0,0.768-0.146,1.061-0.439C72.434,71.97,72.434,71.019,71.848,70.434z M27.233,46.024
	c0-9.589,7.801-17.39,17.39-17.39c9.588,0,17.389,7.801,17.389,17.39c0,4.599-1.809,8.775-4.734,11.889
	c-0.014,0.012-0.029,0.016-0.043,0.028c-0.02,0.021-0.026,0.048-0.045,0.068c-3.169,3.321-7.625,5.403-12.566,5.403
	C35.034,63.413,27.233,55.612,27.233,46.024z"/>
</svg>
