<?xml version="1.0" encoding="utf-8"?>
<!-- Generator: Adobe Illustrator 16.0.4, SVG Export Plug-In . SVG Version: 6.00 Build 0)  -->
<!DOCTYPE svg PUBLIC "-//W3C//DTD SVG 1.1//EN" "http://www.w3.org/Graphics/SVG/1.1/DTD/svg11.dtd">
<svg version="1.1" id="Layer_1" xmlns="http://www.w3.org/2000/svg" xmlns:xlink="http://www.w3.org/1999/xlink" x="0px" y="0px"
	 width="100px" height="100px" viewBox="0 0 100 100" enable-background="new 0 0 100 100" xml:space="preserve">
<g>
	<path d="M26.119,59.145c-3.677,0-6.669-2.991-6.669-6.668c0-3.678,2.992-6.669,6.669-6.669s6.669,2.992,6.669,6.669
		C32.788,56.153,29.796,59.145,26.119,59.145z M26.119,47.807c-2.575,0-4.669,2.095-4.669,4.669c0,2.574,2.094,4.668,4.669,4.668
		s4.669-2.094,4.669-4.668C30.788,49.902,28.694,47.807,26.119,47.807z"/>
	<path d="M49.619,59.145c-3.677,0-6.669-2.991-6.669-6.668c0-3.678,2.992-6.669,6.669-6.669c3.678,0,6.669,2.992,6.669,6.669
		C56.288,56.153,53.297,59.145,49.619,59.145z M49.619,47.807c-2.575,0-4.669,2.095-4.669,4.669c0,2.574,2.094,4.668,4.669,4.668
		c2.574,0,4.669-2.094,4.669-4.668C54.288,49.902,52.193,47.807,49.619,47.807z"/>
	<path d="M73.869,59.145c-3.678,0-6.669-2.991-6.669-6.668c0-3.678,2.991-6.669,6.669-6.669s6.669,2.992,6.669,6.669
		C80.538,56.153,77.547,59.145,73.869,59.145z M73.869,47.807c-2.574,0-4.669,2.095-4.669,4.669c0,2.574,2.095,4.668,4.669,4.668
		s4.669-2.094,4.669-4.668C78.538,49.902,76.443,47.807,73.869,47.807z"/>
</g>
</svg>
