<?xml version="1.0" encoding="utf-8"?>
<!-- Generator: Adobe Illustrator 16.0.0, SVG Export Plug-In . SVG Version: 6.00 Build 0)  -->
<!DOCTYPE svg PUBLIC "-//W3C//DTD SVG 1.1//EN" "http://www.w3.org/Graphics/SVG/1.1/DTD/svg11.dtd">
<svg version="1.1" id="Layer_1" xmlns="http://www.w3.org/2000/svg" xmlns:xlink="http://www.w3.org/1999/xlink" x="0px" y="0px"
	 width="100px" height="100px" viewBox="0 0 100 100" enable-background="new 0 0 100 100" xml:space="preserve">
<path d="M73.231,39.588h-0.287l-8.004,5.006c-1.701,0.075-3.234,0.795-4.372,1.914V42.02c0-3.677-2.992-6.669-6.669-6.669H28.737
	c-3.678,0-6.669,2.992-6.669,6.669v20.912c0,3.678,2.992,6.669,6.669,6.669h25.161c3.678,0,6.669-2.991,6.669-6.669v-4.265
	c1.138,1.119,2.671,1.839,4.372,1.914l8.004,5.007h0.287c4.669,0,4.669-4.675,4.669-6.67V46.257
	C77.901,44.262,77.901,39.588,73.231,39.588z M58.568,62.932c0,2.575-2.095,4.669-4.669,4.669H28.737
	c-2.575,0-4.669-2.094-4.669-4.669V42.02c0-2.574,2.095-4.669,4.669-4.669h25.161c2.575,0,4.669,2.095,4.669,4.669v9.237v2.661
	V62.932z M75.901,58.918c0,3.688-0.873,4.575-2.395,4.662l-7.982-4.992h-0.287c-2.575,0-4.669-2.095-4.669-4.67v-2.661
	c0-2.574,2.095-4.669,4.669-4.669h0.287l7.982-4.993c1.521,0.088,2.395,0.974,2.395,4.662V58.918z"/>
</svg>
