<?xml version="1.0" encoding="utf-8"?>
<!-- Generator: Adobe Illustrator 16.0.0, SVG Export Plug-In . SVG Version: 6.00 Build 0)  -->
<!DOCTYPE svg PUBLIC "-//W3C//DTD SVG 1.1//EN" "http://www.w3.org/Graphics/SVG/1.1/DTD/svg11.dtd">
<svg version="1.1" id="Layer_1" xmlns="http://www.w3.org/2000/svg" xmlns:xlink="http://www.w3.org/1999/xlink" x="0px" y="0px"
	 width="100px" height="100px" viewBox="0 0 100 100" enable-background="new 0 0 100 100" xml:space="preserve">
<g>
	<path d="M70.752,29.257c-4.322-3.468-10.82-2.076-11.095-2.014c-0.458,0.102-0.783,0.507-0.783,0.976v36.32
		c-1.169-1.124-2.753-1.82-4.5-1.82h-3.5c-3.584,0-6.5,2.916-6.5,6.5s2.916,6.5,6.5,6.5h3.5c3.584,0,6.5-2.916,6.5-6.5v-30h12.511
		c0.552,0,1-0.448,1-1C74.385,34.206,73.162,31.19,70.752,29.257z M54.374,73.719h-3.5c-2.481,0-4.5-2.019-4.5-4.5
		s2.019-4.5,4.5-4.5h3.5c2.481,0,4.5,2.019,4.5,4.5S56.855,73.719,54.374,73.719z M60.874,37.219v-8.153
		c1.706-0.229,5.833-0.49,8.627,1.752c1.72,1.379,2.677,3.529,2.854,6.401H60.874z"/>
	<path d="M25.718,38.636h23.5c0.552,0,1-0.448,1-1c0-0.553-0.448-1-1-1h-23.5c-0.552,0-1,0.447-1,1
		C24.718,38.188,25.166,38.636,25.718,38.636z"/>
	<path d="M25.718,47.552h23.5c0.552,0,1-0.447,1-1c0-0.552-0.448-1-1-1h-23.5c-0.552,0-1,0.448-1,1
		C24.718,47.104,25.166,47.552,25.718,47.552z"/>
	<path d="M50.218,55.719c0-0.552-0.448-1-1-1h-23.5c-0.552,0-1,0.448-1,1s0.448,1,1,1h23.5
		C49.77,56.719,50.218,56.271,50.218,55.719z"/>
</g>
</svg>
