<?xml version="1.0" encoding="utf-8"?>
<!-- Generator: Adobe Illustrator 16.0.4, SVG Export Plug-In . SVG Version: 6.00 Build 0)  -->
<!DOCTYPE svg PUBLIC "-//W3C//DTD SVG 1.1//EN" "http://www.w3.org/Graphics/SVG/1.1/DTD/svg11.dtd">
<svg version="1.1" id="Layer_1" xmlns="http://www.w3.org/2000/svg" xmlns:xlink="http://www.w3.org/1999/xlink" x="0px" y="0px"
	 width="100px" height="100px" viewBox="0 0 100 100" enable-background="new 0 0 100 100" xml:space="preserve">
<g>
	<path d="M71.021,27.505H28.691c-2.115,0-3.835,1.72-3.835,3.835v42.33c0,2.114,1.72,3.835,3.835,3.835h42.331
		c2.114,0,3.834-1.721,3.834-3.835V31.34C74.855,29.225,73.136,27.505,71.021,27.505z M28.691,29.505h42.331
		c1.012,0,1.834,0.823,1.834,1.835v6.415h-46V31.34C26.856,30.328,27.679,29.505,28.691,29.505z M71.021,75.505H28.691
		c-1.012,0-1.835-0.823-1.835-1.835V39.755h46V73.67C72.855,74.682,72.033,75.505,71.021,75.505z"/>
	<path d="M39.231,34.671h28.25c0.553,0,1-0.448,1-1s-0.447-1-1-1h-28.25c-0.552,0-1,0.448-1,1S38.679,34.671,39.231,34.671z"/>
	<path d="M34.543,34.671h0.688c0.552,0,1-0.448,1-1s-0.448-1-1-1h-0.688c-0.552,0-1,0.448-1,1S33.991,34.671,34.543,34.671z"/>
	<path d="M30.512,34.671H31.2c0.552,0,1-0.448,1-1s-0.448-1-1-1h-0.688c-0.552,0-1,0.448-1,1S29.96,34.671,30.512,34.671z"/>
</g>
</svg>
