<?xml version="1.0" encoding="utf-8"?>
<!-- Generator: Adobe Illustrator 16.0.0, SVG Export Plug-In . SVG Version: 6.00 Build 0)  -->
<!DOCTYPE svg PUBLIC "-//W3C//DTD SVG 1.1//EN" "http://www.w3.org/Graphics/SVG/1.1/DTD/svg11.dtd">
<svg version="1.1" id="Layer_1" xmlns="http://www.w3.org/2000/svg" xmlns:xlink="http://www.w3.org/1999/xlink" x="0px" y="0px"
	 width="100px" height="100px" viewBox="0 0 100 100" enable-background="new 0 0 100 100" xml:space="preserve">
<g>
	<path d="M63.379,66.026c0,2.508-2.04,4.547-4.546,4.547H33.075c-2.507,0-4.546-2.039-4.546-4.547V40.269
		c0-2.506,2.04-4.546,4.546-4.546h21.713l2-2H33.075c-3.61,0-6.546,2.937-6.546,6.546v25.758c0,3.61,2.937,6.547,6.546,6.547h25.758
		c3.61,0,6.546-2.937,6.546-6.547V43.049l-2,2V66.026z"/>
	<path d="M71.423,28.047c-1.322-1.323-3.627-1.322-4.95,0L46.438,48.081c-0.206,0.205-0.752,0.751-1.115,4.981l-0.102,1.187
		l1.186-0.105c4.24-0.373,4.777-0.91,4.979-1.112l20.036-20.036C72.787,31.631,72.787,29.411,71.423,28.047z M70.009,31.582
		L50.042,51.549c-0.35,0.149-1.447,0.335-2.6,0.476c0.138-1.151,0.324-2.248,0.476-2.595l19.97-19.97
		c0.567-0.566,1.554-0.566,2.122,0C70.593,30.045,70.593,30.997,70.009,31.582z"/>
</g>
</svg>
