<?xml version="1.0" encoding="utf-8"?>
<!-- Generator: Adobe Illustrator 16.0.0, SVG Export Plug-In . SVG Version: 6.00 Build 0)  -->
<!DOCTYPE svg PUBLIC "-//W3C//DTD SVG 1.1//EN" "http://www.w3.org/Graphics/SVG/1.1/DTD/svg11.dtd">
<svg version="1.1" id="Layer_1" xmlns="http://www.w3.org/2000/svg" xmlns:xlink="http://www.w3.org/1999/xlink" x="0px" y="0px"
	 width="100px" height="100px" viewBox="0 0 100 100" enable-background="new 0 0 100 100" xml:space="preserve">
<g>
	<path d="M42.375,50H56c0.552,0,1-0.447,1-1c0-0.552-0.448-1-1-1H42.375c-0.552,0-1,0.448-1,1C41.375,49.553,41.822,50,42.375,50z"
		/>
	<path d="M42.375,43H52h4c0.552,0,1-0.447,1-1c0-0.552-0.448-1-1-1h-4h-9.625c-0.552,0-1,0.448-1,1
		C41.375,42.553,41.822,43,42.375,43z"/>
	<path d="M24.1,77.675c0.048,0.045,0.107,0.067,0.162,0.101c-0.06-0.037-0.124-0.068-0.173-0.117
		C24.093,77.664,24.095,77.67,24.1,77.675z"/>
	<path d="M74,49L74,49v-3.087c0-0.001,0-0.003,0-0.004c0-0.004,0-0.011,0-0.011V45.17v-0.268l-9.943-6.547l-2.028-1.391L58,34.159
		V34h0.01l-8.672-6.039c-0.389-0.363-0.94-0.268-1.325,0.103L39.903,34H34v4.101c0,0-9.938,7.091-9.933,7.09
		c-0.002,0.001,0.023,0.002,0.021,0.004c-0.048,0.048-0.083,0.109-0.12,0.165c-0.036,0.055-0.085,0.207-0.11,0.266
		C23.824,45.712,23.816,46,23.806,46H23.8c-0.004,0,0.031,31.153,0.031,31.153l0.043,0.063c0,0.035-0.003,0.081,0.011,0.113
		c0.021,0.048,0.048,0.091,0.077,0.135c0.042,0.065,0.073,0.135,0.131,0.191c0.05,0.048,0.111,0.081,0.17,0.118
		c0.048,0.03,0.091,0.07,0.143,0.091c0.054,0.022,48.983,0.222,48.983,0.222S74,78.024,74,77.681c0-0.001,0-0.004,0-0.005v-2.588V49
		z M64,40.774l7.545,5.209L64,53.424V40.774z M48.771,30.256L54.237,34h-2.124h-8.652L48.771,30.256z M36,39.136v-2.466V36h1.109
		h3.516h11.488h3.175h2.005L62,39.403v15.978l-4.693,4.753c-2.642-2.519-4.986-4.768-6.541-6.216
		c-0.989-0.921-1.665-1.324-2.293-1.35c-1.099-0.038-2.44,1.104-2.699,1.336c-1.431,1.276-3.503,3.251-5.739,5.511L36,55.461V39.136
		z M34,40.546v12.958l-7.597-7.531L34,40.546z M26,74.087V48.279l12.607,12.593c-0.003,0.003,0.022,0.006,0.02,0.009l0.043,0.083
		C33.899,65.834,28,71.516,26,74.4V74.087z M27,76v0.085l0.035-0.012c2.659-3.004,18.631-19.413,20.048-20.676
		c0.428-0.381,0.859-0.809,1.292-0.818c0.441,0.025,0.674,0.279,1.292,0.856C54.382,59.825,66.365,71,70.965,76H27z M72,74.591
		c-2-2.652-8.185-8.09-13.271-12.941c0,0,4.822-4.841,4.909-4.885L72,48.279V74.591z"/>
</g>
</svg>
