<?xml version="1.0" encoding="utf-8"?>
<!-- Generator: Adobe Illustrator 16.0.0, SVG Export Plug-In . SVG Version: 6.00 Build 0)  -->
<!DOCTYPE svg PUBLIC "-//W3C//DTD SVG 1.1//EN" "http://www.w3.org/Graphics/SVG/1.1/DTD/svg11.dtd">
<svg version="1.1" id="Layer_1" xmlns="http://www.w3.org/2000/svg" xmlns:xlink="http://www.w3.org/1999/xlink" x="0px" y="0px"
	 width="100px" height="100px" viewBox="0 0 100 100" enable-background="new 0 0 100 100" xml:space="preserve">
<path d="M50.019,25.3v-2.358c0-0.552-0.447-1-1-1c-0.552,0-1,0.448-1,1V25.3c-16.631,0.531-30,14.217-30,30.975
	c0,0.127,0.004,0.252,0.009,0.378l0.007,0.223c0.008,0.489,0.371,0.901,0.855,0.972c0.49,0.068,0.949-0.22,1.098-0.687
	c0.942-2.971,3.671-4.967,6.789-4.967c2.736,0,5.263,1.604,6.436,4.087c0.166,0.35,0.518,0.573,0.904,0.573s0.739-0.224,0.904-0.573
	c1.174-2.482,3.7-4.087,6.437-4.087c2.878,0,5.446,1.713,6.562,4.364V73.06c0,0.146,0.036,0.284,0.093,0.41
	c0.212,2.563,2.342,4.59,4.958,4.59c2.758,0,5-2.242,5-5c0-0.552-0.447-1-1-1c-0.552,0-1,0.448-1,1c0,1.654-1.346,3-3,3
	s-3-1.346-3-3c0-0.088-0.028-0.168-0.051-0.251V56.354c1.162-2.531,3.66-4.161,6.461-4.161c2.736,0,5.263,1.604,6.436,4.087
	c0.166,0.35,0.518,0.573,0.904,0.573s0.739-0.224,0.904-0.573c1.174-2.482,3.701-4.087,6.437-4.087c3.208,0,6.034,2.165,6.87,5.267
	c0.119,0.44,0.518,0.74,0.965,0.74c0.039,0,0.078-0.003,0.117-0.008c0.492-0.057,0.867-0.467,0.883-0.963l0.008-0.232
	c0.008-0.24,0.016-0.48,0.016-0.723C80.019,39.517,66.65,25.831,50.019,25.3z M26.776,50.193c-2.549,0-4.894,1.041-6.57,2.783
	c1.465-12.897,11.429-23.247,24.136-25.317c-10.601,7.596-11.313,20.979-11.267,25.095C31.402,51.151,29.156,50.193,26.776,50.193z
	 M41.457,50.193c-2.419,0-4.702,0.989-6.383,2.641c-0.065-3.91,0.559-18.417,12.894-25.089v25.199
	C46.287,51.222,43.969,50.193,41.457,50.193z M56.479,50.193c-2.512,0-4.83,1.029-6.512,2.751V27.745
	c12.336,6.672,12.961,21.179,12.895,25.088C61.181,51.183,58.899,50.193,56.479,50.193z M71.16,50.193
	c-2.38,0-4.626,0.958-6.299,2.561c0.047-4.119-0.669-17.526-11.3-25.117c12.819,2.026,22.875,12.476,24.287,25.486
	C76.163,51.303,73.76,50.193,71.16,50.193z"/>
</svg>
