<?xml version="1.0" encoding="utf-8"?>
<!-- Generator: Adobe Illustrator 16.0.0, SVG Export Plug-In . SVG Version: 6.00 Build 0)  -->
<!DOCTYPE svg PUBLIC "-//W3C//DTD SVG 1.1//EN" "http://www.w3.org/Graphics/SVG/1.1/DTD/svg11.dtd">
<svg version="1.1" id="Layer_1" xmlns="http://www.w3.org/2000/svg" xmlns:xlink="http://www.w3.org/1999/xlink" x="0px" y="0px"
	 width="100px" height="100px" viewBox="0 0 100 100" enable-background="new 0 0 100 100" xml:space="preserve">
<path d="M71.279,28.72H56.285c-2.395,0-4.493,1.273-5.67,3.174c-1.176-1.9-3.273-3.174-5.669-3.174H29.951
	c-3.678,0-6.669,2.991-6.669,6.669v26.328c0,3.678,2.991,6.669,6.669,6.669h14.995c2.294,0,4.276,1.711,4.612,3.979
	c0.072,0.491,0.493,0.854,0.988,0.854c0.024,0,0.045-0.01,0.068-0.012c0.023,0.002,0.045,0.012,0.068,0.012
	c0.496,0,0.917-0.362,0.99-0.854c0.336-2.269,2.318-3.979,4.611-3.979h14.994c3.678,0,6.67-2.991,6.67-6.669V35.389
	C77.949,31.711,74.957,28.72,71.279,28.72z M44.946,66.386H29.951c-2.574,0-4.669-2.095-4.669-4.669V35.389
	c0-2.574,2.095-4.669,4.669-4.669h14.995c2.575,0,4.669,2.095,4.669,4.669v32.925C48.4,67.118,46.74,66.386,44.946,66.386z
	 M75.949,61.717c0,2.574-2.095,4.669-4.67,4.669H56.285c-1.794,0-3.455,0.732-4.67,1.928V35.389c0-2.574,2.096-4.669,4.67-4.669
	h14.994c2.575,0,4.67,2.095,4.67,4.669V61.717z"/>
</svg>
