<?xml version="1.0" encoding="utf-8"?>
<!-- Generator: Adobe Illustrator 16.0.0, SVG Export Plug-In . SVG Version: 6.00 Build 0)  -->
<!DOCTYPE svg PUBLIC "-//W3C//DTD SVG 1.1//EN" "http://www.w3.org/Graphics/SVG/1.1/DTD/svg11.dtd">
<svg version="1.1" id="Layer_1" xmlns="http://www.w3.org/2000/svg" xmlns:xlink="http://www.w3.org/1999/xlink" x="0px" y="0px"
	 width="100px" height="100px" viewBox="0 0 100 100" enable-background="new 0 0 100 100" xml:space="preserve">
<path d="M74.27,75.678c0-0.073-0.008-0.394-0.023-0.462l-0.414-31.458c-0.001-0.055-0.017-0.105-0.026-0.158
	c-0.006-0.035-0.007-0.069-0.017-0.104c-0.031-0.107-0.076-0.208-0.14-0.298c-0.022-0.033-0.056-0.057-0.083-0.087
	c-0.049-0.055-0.102-0.105-0.163-0.148c-0.022-0.016-0.034-0.039-0.058-0.053L50.264,29.07c-0.04-0.024-0.084-0.027-0.126-0.045
	c-0.066-0.028-0.128-0.057-0.198-0.07c-0.063-0.012-0.125-0.01-0.188-0.01c-0.064,0-0.126-0.002-0.19,0.01
	c-0.069,0.013-0.131,0.041-0.196,0.069c-0.042,0.018-0.087,0.021-0.128,0.045l-23.21,13.841c-0.016,0.009-0.024,0.026-0.04,0.036
	c-0.083,0.056-0.154,0.121-0.216,0.196c-0.014,0.017-0.032,0.03-0.044,0.048c-0.066,0.094-0.114,0.199-0.146,0.311
	c-0.008,0.03-0.009,0.061-0.015,0.092c-0.01,0.056-0.026,0.11-0.027,0.167l-0.29,31.659c-0.001,0.091,0.015,0.18,0.037,0.265
	c-0.052,0.206-0.045,0.462,0.041,0.667C25.483,76.722,25.847,77,26.25,77h47c0.004,0,0.008,0,0.011,0c0.003,0,0.006,0,0.009,0
	c0.013,0,0.024-0.043,0.037-0.043c0.06-0.005,0.118-0.033,0.175-0.053c0.447-0.095,0.789-0.468,0.789-0.945
	c0-0.042-0.01-0.084-0.015-0.124C74.262,75.784,74.27,75.728,74.27,75.678z M42.084,58.565L28.131,43.984l21.618-12.892
	l21.518,12.902L57.126,59.11l-7.141-7.038C49.798,51.884,49.543,52,49.277,52c-0.001,0-0.002,0-0.003,0
	c-0.267,0-0.522-0.113-0.709,0.077L42.084,58.565z M27.518,46.236l13.087,13.676L27.272,73.02L27.518,46.236z M58.544,60.492
	l13.322-14.228l0.354,26.852L58.695,60.637L58.544,60.492z M28.639,75l20.643-20.95L70.767,75H28.639z"/>
</svg>
