<?xml version="1.0" encoding="utf-8"?>
<!-- Generator: Adobe Illustrator 16.0.0, SVG Export Plug-In . SVG Version: 6.00 Build 0)  -->
<!DOCTYPE svg PUBLIC "-//W3C//DTD SVG 1.1//EN" "http://www.w3.org/Graphics/SVG/1.1/DTD/svg11.dtd">
<svg version="1.1" id="Layer_1" xmlns="http://www.w3.org/2000/svg" xmlns:xlink="http://www.w3.org/1999/xlink" x="0px" y="0px"
	 width="100px" height="100px" viewBox="0 0 100 100" enable-background="new 0 0 100 100" xml:space="preserve">
<g>
	<g>
		<path d="M31.472,65.802h-2.497c-3.678,0-6.669-2.992-6.669-6.669V35.805c0-3.678,2.992-6.669,6.669-6.669h34.328
			c3.678,0,6.669,2.992,6.669,6.669v3.164c0,0.552-0.448,1-1,1H37.141c-2.575,0-4.669,2.095-4.669,4.669v20.164
			C32.472,65.354,32.024,65.802,31.472,65.802z M28.975,31.136c-2.575,0-4.669,2.095-4.669,4.669v23.328
			c0,2.575,2.095,4.669,4.669,4.669h1.497V44.639c0-3.678,2.992-6.669,6.669-6.669h30.831v-2.164c0-2.575-2.095-4.669-4.669-4.669
			H28.975z"/>
	</g>
	<g>
		<path d="M71.469,74.636H37.141c-3.678,0-6.669-2.992-6.669-6.669V44.639c0-3.678,2.992-6.669,6.669-6.669h34.328
			c3.678,0,6.669,2.992,6.669,6.669v23.328C78.138,71.644,75.146,74.636,71.469,74.636z M37.141,39.969
			c-2.575,0-4.669,2.095-4.669,4.669v23.328c0,2.575,2.095,4.669,4.669,4.669h34.328c2.575,0,4.669-2.095,4.669-4.669V44.639
			c0-2.575-2.095-4.669-4.669-4.669H37.141z"/>
	</g>
</g>
</svg>
