<?xml version="1.0" encoding="utf-8"?>
<!-- Generator: Adobe Illustrator 16.0.0, SVG Export Plug-In . SVG Version: 6.00 Build 0)  -->
<!DOCTYPE svg PUBLIC "-//W3C//DTD SVG 1.1//EN" "http://www.w3.org/Graphics/SVG/1.1/DTD/svg11.dtd">
<svg version="1.1" id="Layer_1" xmlns="http://www.w3.org/2000/svg" xmlns:xlink="http://www.w3.org/1999/xlink" x="0px" y="0px"
	 width="100px" height="100px" viewBox="0 0 100 100" enable-background="new 0 0 100 100" xml:space="preserve">
<path d="M68.411,45.293c-0.006-0.085-0.022-0.167-0.049-0.249c-0.012-0.033-0.021-0.066-0.036-0.1
	c-0.048-0.105-0.109-0.205-0.194-0.29h0l0,0c0-0.001-0.001-0.002-0.001-0.002L51.063,27.585c-0.086-0.086-0.188-0.147-0.294-0.196
	c-0.029-0.013-0.058-0.021-0.088-0.031c-0.085-0.03-0.172-0.048-0.262-0.053c-0.021-0.002-0.041-0.013-0.062-0.013H39.078
	c-3.678,0-6.669,2.992-6.669,6.67v34.016c0,3.678,2.992,6.669,6.669,6.669h22.677c3.677,0,6.669-2.991,6.669-6.669V45.36
	C68.424,45.337,68.412,45.316,68.411,45.293z M51.355,30.706L65.01,44.36h-8.986c-2.575,0-4.669-2.094-4.669-4.669V30.706z
	 M61.755,72.646H39.078c-2.575,0-4.669-2.095-4.669-4.669V33.962c0-2.575,2.095-4.67,4.669-4.67h10.277v10.399
	c0,3.678,2.992,6.669,6.669,6.669h10.4v21.617C66.424,70.552,64.33,72.646,61.755,72.646z"/>
</svg>
