<?xml version="1.0" encoding="utf-8"?>
<!-- Generator: Adobe Illustrator 16.0.0, SVG Export Plug-In . SVG Version: 6.00 Build 0)  -->
<!DOCTYPE svg PUBLIC "-//W3C//DTD SVG 1.1//EN" "http://www.w3.org/Graphics/SVG/1.1/DTD/svg11.dtd">
<svg version="1.1" id="Layer_1" xmlns="http://www.w3.org/2000/svg" xmlns:xlink="http://www.w3.org/1999/xlink" x="0px" y="0px"
	 width="100px" height="100px" viewBox="0 0 100 100" enable-background="new 0 0 100 100" xml:space="preserve">
<path d="M72.862,32.196h-1v-1.83c0-3.678-2.992-6.67-6.669-6.67H35.198c-3.678,0-6.669,2.992-6.669,6.67v1.83h-0.917
	c-0.05,0-0.099,0.005-0.148,0.012c-0.671,0.1-1.563,0.282-1.998,0.579c-0.421,0.286-0.896,1.016-1.22,1.576
	c-0.088,0.152-0.134,0.325-0.134,0.5v8.833c0,0.135,0.027,0.268,0.079,0.391c0.274,0.647,0.685,1.494,1.086,1.854
	c0.401,0.359,1.289,0.678,1.963,0.88c0.093,0.028,0.19,0.042,0.288,0.042h20.572c0.399,0.079,0.847,0.206,1.088,0.305
	c0.029,0.249,0.034,0.69,0.006,1.112v7.984c-2.73,0.405-4.833,2.758-4.833,5.599V75.53c0,3.125,2.542,5.666,5.667,5.666
	c3.125,0,5.667-2.541,5.667-5.666V61.863c0-2.725-1.934-5.005-4.5-5.544l-0.002-7.966c0.086-1.185-0.04-2.004-0.374-2.436
	c-0.353-0.456-1.175-0.806-2.443-1.038c-0.06-0.011-0.12-0.017-0.18-0.017H27.68c-0.468-0.148-0.962-0.341-1.041-0.385
	c-0.098-0.114-0.333-0.558-0.527-0.99v-8.349c0.2-0.325,0.411-0.633,0.441-0.676c0.14-0.069,0.667-0.192,1.136-0.268h0.839v1.831
	c0,3.678,2.992,6.669,6.669,6.669h29.994c3.678,0,6.669-2.991,6.669-6.669v-1.831h1c0.552,0,1-0.447,1-1
	C73.862,32.644,73.415,32.196,72.862,32.196z M53.695,61.863V75.53c0,2.021-1.645,3.666-3.667,3.666
	c-2.021,0-3.667-1.645-3.667-3.666V61.863c0-1.75,1.235-3.213,2.877-3.575c0.255-0.057,0.518-0.092,0.79-0.092
	c0.387,0,0.753,0.077,1.104,0.188C52.613,58.856,53.695,60.228,53.695,61.863z M69.862,36.027c0,2.575-2.095,4.669-4.669,4.669
	H35.198c-2.575,0-4.669-2.094-4.669-4.669v-1.831v-2v-1.83c0-2.574,2.095-4.67,4.669-4.67h29.994c2.575,0,4.669,2.096,4.669,4.67
	v1.83v2V36.027z"/>
</svg>
