<?xml version="1.0" encoding="utf-8"?>
<!-- Generator: Adobe Illustrator 16.0.0, SVG Export Plug-In . SVG Version: 6.00 Build 0)  -->
<!DOCTYPE svg PUBLIC "-//W3C//DTD SVG 1.1//EN" "http://www.w3.org/Graphics/SVG/1.1/DTD/svg11.dtd">
<svg version="1.1" id="Layer_1" xmlns="http://www.w3.org/2000/svg" xmlns:xlink="http://www.w3.org/1999/xlink" x="0px" y="0px"
	 width="100px" height="100px" viewBox="0 0 100 100" enable-background="new 0 0 100 100" xml:space="preserve">
<g>
	<g>
		<path d="M68.08,71.094H32.419c-3.678,0-6.669-2.992-6.669-6.669V45.263c0-3.678,2.992-6.669,6.669-6.669h4.373
			c0.375-3.324,3.205-5.917,6.627-5.917H57.08c3.423,0,6.252,2.592,6.627,5.917h4.373c3.678,0,6.669,2.992,6.669,6.669v19.161
			C74.75,68.102,71.758,71.094,68.08,71.094z M32.419,40.594c-2.575,0-4.669,2.095-4.669,4.669v19.161
			c0,2.575,2.095,4.669,4.669,4.669H68.08c2.575,0,4.669-2.095,4.669-4.669V45.263c0-2.575-2.095-4.669-4.669-4.669H62.75
			c-0.552,0-1-0.448-1-1v-0.247c0-2.575-2.095-4.669-4.669-4.669H43.419c-2.575,0-4.669,2.095-4.669,4.669v0.247
			c0,0.552-0.448,1-1,1H32.419z"/>
	</g>
	<g>
		<path d="M50.25,65.344c-6.617,0-12-5.383-12-12s5.383-12,12-12s12,5.383,12,12S56.866,65.344,50.25,65.344z M50.25,43.344
			c-5.514,0-10,4.486-10,10s4.486,10,10,10s10-4.486,10-10S55.764,43.344,50.25,43.344z"/>
	</g>
	<g>
		<path d="M50.25,61.177c-4.319,0-7.833-3.514-7.833-7.833s3.514-7.833,7.833-7.833s7.833,3.514,7.833,7.833
			S54.569,61.177,50.25,61.177z M50.25,47.51c-3.217,0-5.833,2.617-5.833,5.833s2.617,5.833,5.833,5.833s5.833-2.617,5.833-5.833
			S53.466,47.51,50.25,47.51z"/>
	</g>
</g>
</svg>
