<?xml version="1.0" encoding="utf-8"?>
<!-- Generator: Adobe Illustrator 16.0.0, SVG Export Plug-In . SVG Version: 6.00 Build 0)  -->
<!DOCTYPE svg PUBLIC "-//W3C//DTD SVG 1.1//EN" "http://www.w3.org/Graphics/SVG/1.1/DTD/svg11.dtd">
<svg version="1.1" id="Layer_1" xmlns="http://www.w3.org/2000/svg" xmlns:xlink="http://www.w3.org/1999/xlink" x="0px" y="0px"
	 width="100px" height="100px" viewBox="0 0 100 100" enable-background="new 0 0 100 100" xml:space="preserve">
<path d="M49.48,27.351c-13.837,0-25.095,11.257-25.095,25.095c0,13.837,11.257,25.094,25.095,25.094s25.095-11.257,25.095-25.094
	C74.575,38.608,63.317,27.351,49.48,27.351z M65.42,35.758L49.804,51.375l-8.998-20.327c2.68-1.09,5.606-1.696,8.673-1.696
	C55.658,29.351,61.272,31.794,65.42,35.758z M26.385,52.446c0-8.958,5.13-16.735,12.604-20.563l9.299,21.009L32.792,68.386
	C28.828,64.238,26.385,58.624,26.385,52.446z M49.48,75.54c-5.839,0-11.174-2.182-15.245-5.768L50.187,53.82l16.619-16.619
	c3.586,4.071,5.769,9.406,5.769,15.245C72.575,65.18,62.214,75.54,49.48,75.54z"/>
</svg>
