<?xml version="1.0" encoding="utf-8"?>
<!-- Generator: Adobe Illustrator 16.0.0, SVG Export Plug-In . SVG Version: 6.00 Build 0)  -->
<!DOCTYPE svg PUBLIC "-//W3C//DTD SVG 1.1//EN" "http://www.w3.org/Graphics/SVG/1.1/DTD/svg11.dtd">
<svg version="1.1" id="Layer_1" xmlns="http://www.w3.org/2000/svg" xmlns:xlink="http://www.w3.org/1999/xlink" x="0px" y="0px"
	 width="100px" height="100px" viewBox="0 0 100 100" enable-background="new 0 0 100 100" xml:space="preserve">
<g>
	<g>
		<path d="M67.007,33.384c-4.809-4.81-11.213-7.458-18.031-7.458c-6.819,0-13.223,2.648-18.031,7.458
			c-9.943,9.941-9.943,26.119,0,36.062c4.809,4.809,11.212,7.456,18.031,7.458c0,0,0.001,0,0.002,0
			c6.816,0,13.221-2.648,18.029-7.458c4.809-4.809,7.457-11.212,7.457-18.03C74.464,44.596,71.815,38.192,67.007,33.384z
			 M65.593,68.031c-4.432,4.431-10.332,6.872-16.615,6.872h-0.002c-6.285-0.001-12.187-2.441-16.617-6.872
			c-9.162-9.163-9.162-24.071,0-33.233c4.431-4.432,10.332-6.872,16.617-6.872c6.284,0,12.186,2.44,16.617,6.872
			c4.431,4.431,6.871,10.332,6.871,16.617C72.464,57.698,70.023,63.601,65.593,68.031z"/>
	</g>
	<g>
		<path d="M47.065,58.144c-0.023-1.734,0.143-3.059,0.496-3.972c0.353-0.913,1.11-1.997,2.272-3.253
			c0.468-0.536,0.923-1.062,1.367-1.575c0.626-0.753,1.104-1.478,1.436-2.175c0.331-0.707,0.495-1.541,0.495-2.5
			c0-1.096-0.26-2.088-0.779-2.979c-0.565-0.879-1.501-1.336-2.806-1.369c-1.802,0.057-2.985,0.667-3.55,1.832
			c-0.301,0.535-0.503,1.141-0.607,1.814c-0.139,0.707-0.207,1.432-0.207,2.174h-2.937c-0.091-2.208,0.407-4.114,1.493-5.719
			c1.062-1.64,2.855-2.481,5.378-2.527c2.16,0.023,3.874,0.608,5.141,1.758c1.278,1.16,1.929,2.764,1.95,4.811
			c0,1.142-0.137,2.111-0.41,2.911c-0.309,0.845-0.731,1.593-1.268,2.243c-0.492,0.65-1.068,1.318-1.73,2.002
			c-0.65,0.697-1.313,1.479-1.987,2.346c-0.239,0.377-0.429,0.777-0.565,1.199c-0.16,0.959-0.217,1.951-0.171,2.979H47.065z
			 M47.065,64.146v-3.484h3.076v3.484H47.065z"/>
	</g>
</g>
</svg>
