<?xml version="1.0" encoding="utf-8"?>
<!-- Generator: Adobe Illustrator 16.0.0, SVG Export Plug-In . SVG Version: 6.00 Build 0)  -->
<!DOCTYPE svg PUBLIC "-//W3C//DTD SVG 1.1//EN" "http://www.w3.org/Graphics/SVG/1.1/DTD/svg11.dtd">
<svg version="1.1" id="Layer_1" xmlns="http://www.w3.org/2000/svg" xmlns:xlink="http://www.w3.org/1999/xlink" x="0px" y="0px"
	 width="100px" height="100px" viewBox="0 0 100 100" enable-background="new 0 0 100 100" xml:space="preserve">
<g>
	<path d="M68.997,32.023h-2.394v-8.532c0-0.552-0.447-1-1-1c-0.552,0-1,0.448-1,1v8.532H31.003c-3.678,0-6.669,2.991-6.669,6.669
		v24.829c0,3.678,2.991,6.669,6.669,6.669h37.994c3.678,0,6.669-2.991,6.669-6.669V38.692
		C75.666,35.015,72.675,32.023,68.997,32.023z M73.666,63.521c0,2.574-2.094,4.669-4.669,4.669H31.003
		c-2.575,0-4.669-2.095-4.669-4.669V38.692c0-2.575,2.094-4.669,4.669-4.669h37.994c2.575,0,4.669,2.094,4.669,4.669V63.521z"/>
	<circle cx="42.729" cy="39.461" r="1.438"/>
	<circle cx="42.729" cy="45.523" r="1.438"/>
	<circle cx="42.729" cy="51.461" r="1.438"/>
	<circle cx="48.061" cy="48.492" r="1.438"/>
	<circle cx="48.061" cy="54.43" r="1.438"/>
	<circle cx="37.186" cy="48.492" r="1.438"/>
	<circle cx="37.186" cy="54.43" r="1.438"/>
	<circle cx="42.729" cy="57.336" r="1.438"/>
	<circle cx="42.729" cy="63.523" r="1.438"/>
	<circle cx="36.229" cy="61.523" r="1.438"/>
	<circle cx="49.229" cy="61.523" r="1.438"/>
	<circle cx="53.291" cy="57.336" r="1.438"/>
	<circle cx="55.166" cy="51.461" r="1.438"/>
	<circle cx="53.291" cy="45.523" r="1.438"/>
	<circle cx="49.229" cy="41.523" r="1.438"/>
	<circle cx="36.229" cy="41.461" r="1.438"/>
	<circle cx="32.166" cy="45.648" r="1.438"/>
	<circle cx="30.291" cy="51.523" r="1.438"/>
	<circle cx="32.166" cy="57.461" r="1.438"/>
	<circle cx="65.604" cy="40.898" r="3.188"/>
</g>
</svg>
