<?xml version="1.0" encoding="utf-8"?>
<!-- Generator: Adobe Illustrator 16.0.0, SVG Export Plug-In . SVG Version: 6.00 Build 0)  -->
<!DOCTYPE svg PUBLIC "-//W3C//DTD SVG 1.1//EN" "http://www.w3.org/Graphics/SVG/1.1/DTD/svg11.dtd">
<svg version="1.1" id="Layer_1" xmlns="http://www.w3.org/2000/svg" xmlns:xlink="http://www.w3.org/1999/xlink" x="0px" y="0px"
	 width="100px" height="100px" viewBox="0 0 100 100" enable-background="new 0 0 100 100" xml:space="preserve">
<path d="M26.156,52.603l22.416,17.568c0.349,0.299,0.841,0.369,1.26,0.178c0.418-0.191,0.687-0.609,0.687-1.07V54.163l20.424,16.008
	c0.349,0.299,0.841,0.369,1.26,0.178c0.418-0.191,0.687-0.609,0.687-1.07V33.552c0-0.465-0.272-0.885-0.696-1.074
	c-0.423-0.191-0.918-0.115-1.265,0.193L50.518,49.204V33.552c0-0.465-0.272-0.885-0.696-1.074c-0.423-0.191-0.918-0.115-1.265,0.193
	L26.142,50.829c-0.254,0.227-0.4,0.562-0.396,0.889C25.75,52.058,25.898,52.38,26.156,52.603z M70.533,36.175V66.71l-19.45-15.016
	L70.533,36.175z M48.163,36.175v15.322c-0.014,0.074-0.047,0.146-0.046,0.221c0,0.072,0.033,0.137,0.046,0.207V66.71l-19.45-15.016
	L48.163,36.175z"/>
</svg>
