<?xml version="1.0" encoding="utf-8"?>
<!-- Generator: Adobe Illustrator 16.0.0, SVG Export Plug-In . SVG Version: 6.00 Build 0)  -->
<!DOCTYPE svg PUBLIC "-//W3C//DTD SVG 1.1//EN" "http://www.w3.org/Graphics/SVG/1.1/DTD/svg11.dtd">
<svg version="1.1" id="Layer_1" xmlns="http://www.w3.org/2000/svg" xmlns:xlink="http://www.w3.org/1999/xlink" x="0px" y="0px"
	 width="100px" height="100px" viewBox="0 0 100 100" enable-background="new 0 0 100 100" xml:space="preserve">
<g>
	<g>
		<g>
			<path d="M54.662,40.813H41.037c-0.552,0-1-0.448-1-1s0.448-1,1-1h13.625c0.552,0,1,0.448,1,1S55.214,40.813,54.662,40.813z"/>
		</g>
	</g>
	<g>
		<g>
			<path d="M54.662,49.28H41.037c-0.552,0-1-0.447-1-1c0-0.552,0.448-1,1-1h13.625c0.552,0,1,0.448,1,1
				C55.662,48.833,55.214,49.28,54.662,49.28z"/>
		</g>
	</g>
	<g>
		<g>
			<path d="M54.662,56.324H41.037c-0.552,0-1-0.448-1-1c0-0.552,0.448-1,1-1h13.625c0.552,0,1,0.448,1,1
				C55.662,55.876,55.214,56.324,54.662,56.324z"/>
		</g>
	</g>
	<g>
		<path d="M67.662,75.862l-19.167-9.596l-19.167,9.596V30.009h38.333V75.862z M31.329,32.009v39.815l17.167-8.071l17.167,8.071
			V32.009H31.329z"/>
	</g>
</g>
</svg>
