<?xml version="1.0" encoding="utf-8"?>
<!-- Generator: Adobe Illustrator 16.0.0, SVG Export Plug-In . SVG Version: 6.00 Build 0)  -->
<!DOCTYPE svg PUBLIC "-//W3C//DTD SVG 1.1//EN" "http://www.w3.org/Graphics/SVG/1.1/DTD/svg11.dtd">
<svg version="1.1" id="Layer_1" xmlns="http://www.w3.org/2000/svg" xmlns:xlink="http://www.w3.org/1999/xlink" x="0px" y="0px"
	 width="100px" height="100px" viewBox="0 0 100 100" enable-background="new 0 0 100 100" xml:space="preserve">
<g>
	<path d="M66.894,37.975l2.608-2.609l1.875,1.875c0.195,0.195,0.451,0.293,0.707,0.293s0.512-0.098,0.707-0.293
		c0.391-0.391,0.391-1.023,0-1.414l-4.748-4.748c-0.391-0.391-1.023-0.391-1.414,0s-0.391,1.023,0,1.414l1.458,1.459l-2.644,2.645
		c-3.899-3.409-8.927-5.553-14.444-5.785v-4.157c0-0.552-0.448-1-1-1s-1,0.448-1,1v4.157c-12.496,0.526-22.5,10.852-22.5,23.475
		c0,12.958,10.542,23.5,23.5,23.5s23.5-10.542,23.5-23.5C73.5,47.955,70.979,42.205,66.894,37.975z M50,75.786
		c-11.855,0-21.5-9.645-21.5-21.5s9.645-21.5,21.5-21.5s21.5,9.645,21.5,21.5S61.855,75.786,50,75.786z"/>
	<path d="M53.536,53.286H51V37.97c0-0.552-0.448-1-1-1s-1,0.448-1,1v15.315h-2.464c-0.552,0-1,0.448-1,1s0.448,1,1,1H49v5.118
		c0,0.552,0.448,1,1,1s1-0.448,1-1v-5.118h2.536c0.552,0,1-0.448,1-1S54.088,53.286,53.536,53.286z"/>
</g>
</svg>
