<?xml version="1.0" encoding="utf-8"?>
<!-- Generator: Adobe Illustrator 16.0.0, SVG Export Plug-In . SVG Version: 6.00 Build 0)  -->
<!DOCTYPE svg PUBLIC "-//W3C//DTD SVG 1.1//EN" "http://www.w3.org/Graphics/SVG/1.1/DTD/svg11.dtd">
<svg version="1.1" id="Layer_1" xmlns="http://www.w3.org/2000/svg" xmlns:xlink="http://www.w3.org/1999/xlink" x="0px" y="0px"
	 width="100px" height="100px" viewBox="0 0 100 100" enable-background="new 0 0 100 100" xml:space="preserve">
<g>
	<path d="M52.113,74.351c0,2.541-2.061,4.602-4.602,4.602s-4.602-2.061-4.602-4.602H52.113z"/>
	<path fill="none" d="M32.07,46.496c-0.008,0.095-0.027,0.187-0.059,0.272l-0.084,23.822h15.584V32.128
		c-0.577,0-1.154,0.042-1.859,0.126C38.318,33.134,32.605,39.123,32.07,46.496z"/>
	<path d="M65.012,46.422c0-0.15-0.033-0.292-0.093-0.42c-0.745-8.03-6.938-14.524-14.913-15.667c0.082-0.25,0.135-0.511,0.135-0.788
		c0-1.452-1.178-2.629-2.629-2.629c-1.452,0-2.629,1.177-2.629,2.629c0,0.277,0.053,0.539,0.133,0.788
		c-7.974,1.143-14.168,7.637-14.912,15.667c-0.059,0.128-0.092,0.27-0.092,0.42l-0.084,19.752v4.415v1c0,0.553,0.448,1,1,1h16.584
		h16.582c0.553,0,1-0.447,1-1v-1v-4.415L65.012,46.422z M47.512,70.589H31.928l0.084-23.822c0.031-0.085,0.051-0.177,0.059-0.272
		c0.535-7.373,6.248-13.361,13.582-14.241c0.705-0.084,1.282-0.126,1.859-0.126c0.576,0,1.153,0.042,1.858,0.126
		c7.335,0.88,13.047,6.869,13.583,14.241c0.007,0.095,0.027,0.187,0.059,0.272l0.082,23.822H47.512z"/>
</g>
</svg>
