<?xml version="1.0" encoding="utf-8"?>
<!-- Generator: Adobe Illustrator 16.0.0, SVG Export Plug-In . SVG Version: 6.00 Build 0)  -->
<!DOCTYPE svg PUBLIC "-//W3C//DTD SVG 1.1//EN" "http://www.w3.org/Graphics/SVG/1.1/DTD/svg11.dtd">
<svg version="1.1" id="Layer_1" xmlns="http://www.w3.org/2000/svg" xmlns:xlink="http://www.w3.org/1999/xlink" x="0px" y="0px"
	 width="100px" height="100px" viewBox="0 0 100 100" enable-background="new 0 0 100 100" xml:space="preserve">
<g>
	<path d="M45.717,68.674c-2.481,0-4.5,2.02-4.5,4.5c0,2.481,2.019,4.5,4.5,4.5s4.5-2.019,4.5-4.5
		C50.217,70.694,48.198,68.674,45.717,68.674z M45.717,75.674c-1.378,0-2.5-1.121-2.5-2.5c0-1.378,1.122-2.5,2.5-2.5
		s2.5,1.122,2.5,2.5C48.217,74.553,47.095,75.674,45.717,75.674z"/>
	<path d="M65.818,68.674c-2.481,0-4.5,2.02-4.5,4.5c0,2.481,2.019,4.5,4.5,4.5s4.5-2.019,4.5-4.5
		C70.318,70.694,68.299,68.674,65.818,68.674z M65.818,75.674c-1.378,0-2.5-1.121-2.5-2.5c0-1.378,1.122-2.5,2.5-2.5
		s2.5,1.122,2.5,2.5C68.318,74.553,67.196,75.674,65.818,75.674z"/>
	<path d="M71.521,40.586l-0.099-0.02l-5.464,0.032c-0.425-0.041-0.948-0.034-1.195,0l-8.079,0.04l-7.99-0.034
		c-0.437-0.045-0.974-0.041-1.197-0.011l-5.561-0.027l-0.099,0.02c-2.046,0.405-3.688,1.714-4.595,3.428l-3.885-16.486
		C33.252,27.075,32.849,27,32.383,27H24.05c-0.552,0-1,0.448-1,1c0,0.553,0.448,1,1,1h7.539l7.212,30.815
		c0.001,0.005,0.004-0.114,0.006-0.109c0.551,2.687,2.646,4.671,5.344,5.158c0.12,0.032,0.24,0.034,0.363,0.058l0.1,0.005
		l0.637-0.011l-0.005-1.004l0.133,0.999l11.297-0.057l11.307,0.056l0.005-1.001l0.123,1l0.637,0.004l0.1-0.021
		c0.123-0.024,0.243-0.057,0.351-0.089c2.725-0.488,4.832-2.556,5.368-5.266l2.202-11.111
		C77.481,44.818,75.128,41.301,71.521,40.586z M74.805,48.037l-2.202,11.111c-0.375,1.897-1.851,3.344-3.759,3.686l-0.157,0.038
		c-0.048,0.013-0.097,0.026-0.146,0.038l-11.867-0.058L44.817,62.91c-0.049-0.012-0.097-0.025-0.146-0.038l-0.157-0.038
		c-1.908-0.342-3.383-1.788-3.759-3.686l-2.202-11.111c-0.494-2.494,1.107-4.927,3.58-5.469l5.451,0.021
		c0.296-0.026,0.506-0.032,1.001,0.01l8.099,0.04l8.188-0.045c0.305-0.031,0.502-0.036,1,0l5.354-0.026
		C73.698,43.11,75.299,45.542,74.805,48.037z"/>
</g>
</svg>
