<?xml version="1.0" encoding="utf-8"?>
<!-- Generator: Adobe Illustrator 16.0.0, SVG Export Plug-In . SVG Version: 6.00 Build 0)  -->
<!DOCTYPE svg PUBLIC "-//W3C//DTD SVG 1.1//EN" "http://www.w3.org/Graphics/SVG/1.1/DTD/svg11.dtd">
<svg version="1.1" id="Layer_1" xmlns="http://www.w3.org/2000/svg" xmlns:xlink="http://www.w3.org/1999/xlink" x="0px" y="0px"
	 width="100px" height="100px" viewBox="0 0 100 100" enable-background="new 0 0 100 100" xml:space="preserve">
<g>
	<path d="M67.082,57.117c-0.391-0.391-1.023-0.391-1.414,0c-0.391,0.391-0.391,1.024,0,1.415l6.216,6.217H60.556
		c-0.421-0.102-0.876-0.239-0.97-0.286c-0.166-0.126-0.671-0.743-1.079-1.321c-0.026-0.038-0.056-0.073-0.087-0.106L37.886,41.087
		c-0.327-0.467-1.05-1.446-1.558-1.785c-0.422-0.281-1.336-0.506-1.844-0.615c-0.069-0.016-0.141-0.022-0.211-0.022h-8.416
		c-0.553,0-1,0.447-1,1c0,0.552,0.447,1,1,1h8.307c0.452,0.102,0.945,0.246,1.047,0.297c0.168,0.126,0.67,0.747,1.075,1.328
		c0.027,0.04,0.058,0.077,0.091,0.112l20.536,21.951c0.327,0.46,1.05,1.43,1.554,1.767c0.402,0.27,1.27,0.494,1.75,0.604
		c0.074,0.017,0.148,0.025,0.223,0.025h11.097l-5.296,5.297c-0.391,0.39-0.391,1.023,0,1.414c0.195,0.195,0.451,0.293,0.707,0.293
		s0.512-0.098,0.707-0.293l7.177-7.177c0.391-0.391,0.391-1.023,0-1.415L67.082,57.117z"/>
	<path d="M36.377,63.01c-0.033,0.036-0.063,0.073-0.091,0.112c-0.403,0.581-0.906,1.201-1.044,1.309
		c-0.13,0.069-0.625,0.214-1.078,0.317h-8.307c-0.553,0-1,0.447-1,1c0,0.552,0.447,1,1,1h8.416c0.07,0,0.142-0.008,0.211-0.023
		c0.508-0.109,1.422-0.334,1.844-0.616c0.508-0.339,1.23-1.318,1.558-1.785l7.561-8.081l-1.37-1.464L36.377,63.01z"/>
	<path d="M58.42,42.377c0.031-0.034,0.061-0.069,0.087-0.106c0.408-0.579,0.913-1.195,1.05-1.302
		c0.121-0.065,0.578-0.203,0.999-0.305h11.44l-5.756,5.757c-0.391,0.391-0.391,1.023,0,1.414c0.195,0.195,0.451,0.293,0.707,0.293
		s0.512-0.098,0.707-0.293l7.177-7.177c0.391-0.391,0.391-1.024,0-1.415l-0.286-0.286c0,0,0-0.001,0-0.001l-7.463-7.463
		c-0.391-0.391-1.023-0.391-1.414,0c-0.391,0.39-0.391,1.023,0,1.415l5.756,5.757H60.439c-0.074,0-0.148,0.008-0.223,0.024
		c-0.48,0.11-1.348,0.334-1.75,0.604c-0.503,0.337-1.227,1.307-1.554,1.767l-7.585,8.107l1.369,1.464L58.42,42.377z"/>
</g>
</svg>
