<?xml version="1.0" encoding="utf-8"?>
<!-- Generator: Adobe Illustrator 16.0.0, SVG Export Plug-In . SVG Version: 6.00 Build 0)  -->
<!DOCTYPE svg PUBLIC "-//W3C//DTD SVG 1.1//EN" "http://www.w3.org/Graphics/SVG/1.1/DTD/svg11.dtd">
<svg version="1.1" id="Layer_1" xmlns="http://www.w3.org/2000/svg" xmlns:xlink="http://www.w3.org/1999/xlink" x="0px" y="0px"
	 width="100px" height="100px" viewBox="0 0 100 100" enable-background="new 0 0 100 100" xml:space="preserve">
<path d="M76.889,37.609c-0.242-0.707-0.597-1.315-1.037-1.797c-0.44-0.482-0.968-0.837-1.556-1.034
	c-0.251-0.084-0.514-0.134-0.784-0.158c-0.058-0.005-0.113-0.015-0.172-0.017c0.168-0.071,0.314-0.146,0.449-0.221
	c1.458-0.814,0.875-1.787-1.723-2.395l-9.614-2.246l-9.614-2.245c-3.251-0.76-8.428-0.661-11.545,0.217l-9.235,2.605l-9.233,2.605
	c-1.355,0.382-2.1,0.849-2.242,1.318c-0.057,0.185-0.014,0.368,0.114,0.547c-0.268,0.093-0.522,0.219-0.763,0.374
	c-0.275,0.18-0.533,0.395-0.765,0.648c-0.44,0.481-0.794,1.09-1.037,1.797c-0.242,0.706-0.373,1.509-0.368,2.383l0.066,11.395
	L17.908,64.7c0.005,0.848,0.144,1.69,0.391,2.489c0.246,0.799,0.6,1.556,1.037,2.23c0.438,0.674,0.957,1.267,1.533,1.738
	c0.578,0.471,1.215,0.821,1.883,1.008l17.992,5.045l1.889,0.529c0.715,0.2,1.402,0.214,2.03,0.067
	c0.63-0.147,1.202-0.456,1.685-0.901c0.291-0.266,0.536-0.596,0.756-0.955c0.148-0.24,0.293-0.487,0.404-0.766
	c0.002-0.002,0.002-0.005,0.003-0.008c0.001,0.003,0.001,0.006,0.002,0.008c0.112,0.278,0.256,0.525,0.404,0.766
	c0.22,0.359,0.466,0.689,0.756,0.955c0.483,0.445,1.056,0.754,1.685,0.901c0.629,0.146,1.315,0.133,2.031-0.067l1.888-0.529
	l17.993-5.045c0.668-0.187,1.304-0.537,1.882-1.008c0.577-0.472,1.097-1.064,1.534-1.738c0.437-0.675,0.791-1.432,1.037-2.23
	s0.385-1.642,0.391-2.489l0.078-13.313l0.066-11.395C77.262,39.118,77.131,38.315,76.889,37.609z M26.427,33.766l18.468-5.209
	c1.209-0.341,3.219-0.38,4.484-0.084l19.228,4.492c1.259,0.293,1.3,0.811,0.091,1.152l-18.468,5.209
	c-1.209,0.342-3.22,0.379-4.479,0.085L26.523,34.92C25.258,34.624,25.217,34.107,26.427,33.766z M46.365,72.37
	c-0.008,0.622-0.117,1.185-0.311,1.671c-0.193,0.485-0.469,0.894-0.806,1.207c-0.337,0.313-0.735,0.531-1.175,0.635
	c-0.439,0.105-0.92,0.097-1.423-0.043l-19.904-5.516c-0.468-0.129-0.914-0.373-1.319-0.703c-0.406-0.329-0.771-0.744-1.078-1.217
	c-0.308-0.474-0.557-1.005-0.73-1.566s-0.271-1.154-0.273-1.75l-0.123-24.764c-0.002-0.613,0.091-1.177,0.262-1.672
	c0.172-0.494,0.422-0.92,0.73-1.257c0.311-0.337,0.682-0.584,1.094-0.722c0.412-0.137,0.867-0.164,1.346-0.06l20.348,4.433
	c0.514,0.111,1.002,0.35,1.447,0.683c0.444,0.334,0.844,0.765,1.178,1.261c0.335,0.497,0.604,1.06,0.787,1.659
	s0.281,1.233,0.273,1.874L46.365,72.37z M75.676,65.088c-0.004,0.596-0.101,1.188-0.273,1.75c-0.174,0.562-0.424,1.093-0.73,1.566
	c-0.307,0.473-0.673,0.888-1.078,1.217c-0.406,0.33-0.852,0.574-1.32,0.703L52.369,75.84c-0.502,0.14-0.982,0.148-1.422,0.043
	c-0.439-0.104-0.838-0.322-1.176-0.635c-0.336-0.313-0.611-0.722-0.805-1.207c-0.193-0.486-0.304-1.049-0.312-1.671l-0.321-25.847
	c-0.008-0.641,0.09-1.274,0.273-1.874c0.183-0.6,0.451-1.162,0.786-1.659c0.334-0.496,0.733-0.927,1.179-1.261
	c0.444-0.333,0.934-0.571,1.447-0.683l20.348-4.433c0.479-0.104,0.934-0.077,1.346,0.06c0.412,0.138,0.783,0.385,1.093,0.722
	s0.56,0.763,0.73,1.257c0.171,0.495,0.265,1.059,0.262,1.672L75.676,65.088z"/>
</svg>
