<?xml version="1.0" encoding="utf-8"?>
<!-- Generator: Adobe Illustrator 16.0.0, SVG Export Plug-In . SVG Version: 6.00 Build 0)  -->
<!DOCTYPE svg PUBLIC "-//W3C//DTD SVG 1.1//EN" "http://www.w3.org/Graphics/SVG/1.1/DTD/svg11.dtd">
<svg version="1.1" id="Layer_1" xmlns="http://www.w3.org/2000/svg" xmlns:xlink="http://www.w3.org/1999/xlink" x="0px" y="0px"
	 width="100px" height="100px" viewBox="0 0 100 100" enable-background="new 0 0 100 100" xml:space="preserve">
<path d="M62.024,28.342c-0.209,0-0.421,0.007-0.65,0.021c-3.938,0.302-7.985-0.578-11.918-1.43
	c-3.49-0.754-7.098-1.535-10.702-1.535c-0.496,0-0.978,0.025-1.449,0.055c-0.086-0.025-0.172-0.055-0.266-0.055
	c-3.678,0-6.669,2.992-6.669,6.669v1.444v13.742V73.23c0,0.552,0.448,1,1,1s1-0.448,1-1V51.428c1.037,0.762,2.401,1.175,3.988,1.175
	c0.249,0,0.502-0.01,0.772-0.03c0.632-0.059,1.295-0.087,1.969-0.087c3.282,0,6.67,0.686,9.948,1.349
	c3.374,0.683,6.862,1.389,10.344,1.389c0.734,0,1.458-0.031,2.137-0.094c3.772-0.293,6.592-4.472,6.592-8.012V33.648
	C68.12,30.426,65.727,28.342,62.024,28.342z M66.12,47.117c0,2.559-2.117,5.814-4.76,6.02c-0.632,0.057-1.295,0.086-1.969,0.086
	c-3.282,0-6.67-0.686-9.948-1.349c-3.374-0.683-6.862-1.389-10.344-1.389c-0.734,0-1.458,0.032-2.137,0.093
	c-1.458,0.113-2.716-0.18-3.524-0.83c-0.708-0.57-1.067-1.41-1.067-2.494V33.512c0-2.605,2.111-5.886,4.746-6.052
	c3.937-0.303,7.985,0.579,11.918,1.43c3.49,0.755,7.098,1.535,10.702,1.535c0.609,0,1.211-0.023,1.778-0.066
	c0.172-0.011,0.343-0.017,0.511-0.017c1.231,0,4.096,0.322,4.096,3.307V47.117z"/>
</svg>
