<?xml version="1.0" encoding="utf-8"?>
<!-- Generator: Adobe Illustrator 16.0.0, SVG Export Plug-In . SVG Version: 6.00 Build 0)  -->
<!DOCTYPE svg PUBLIC "-//W3C//DTD SVG 1.1//EN" "http://www.w3.org/Graphics/SVG/1.1/DTD/svg11.dtd">
<svg version="1.1" id="Layer_1" xmlns="http://www.w3.org/2000/svg" xmlns:xlink="http://www.w3.org/1999/xlink" x="0px" y="0px"
	 width="100px" height="100px" viewBox="0 0 100 100" enable-background="new 0 0 100 100" xml:space="preserve">
<g>
	<g>
		<path d="M76.962,77.463H34.301c-3.678,0-6.669-2.992-6.669-6.67V42.799c0-3.678,2.992-6.67,6.669-6.67h42.661
			c3.678,0,6.669,2.992,6.669,6.67v27.994C83.631,74.471,80.64,77.463,76.962,77.463z M34.301,38.129
			c-2.575,0-4.669,2.096-4.669,4.67v27.994c0,2.575,2.095,4.67,4.669,4.67h42.661c2.575,0,4.669-2.095,4.669-4.67V42.799
			c0-2.574-2.095-4.67-4.669-4.67H34.301z"/>
	</g>
	<g>
		<path d="M76.506,33.296h-41.75c-0.552,0-1-0.448-1-1s0.448-1,1-1h41.75c0.552,0,1,0.448,1,1S77.059,33.296,76.506,33.296z"/>
	</g>
	<g>
		<path d="M72.631,29.296h-34c-0.552,0-1-0.448-1-1s0.448-1,1-1h34c0.552,0,1,0.448,1,1S73.184,29.296,72.631,29.296z"/>
	</g>
</g>
</svg>
