<?xml version="1.0" encoding="utf-8"?>
<!-- Generator: Adobe Illustrator 16.0.0, SVG Export Plug-In . SVG Version: 6.00 Build 0)  -->
<!DOCTYPE svg PUBLIC "-//W3C//DTD SVG 1.1//EN" "http://www.w3.org/Graphics/SVG/1.1/DTD/svg11.dtd">
<svg version="1.1" id="Layer_1" xmlns="http://www.w3.org/2000/svg" xmlns:xlink="http://www.w3.org/1999/xlink" x="0px" y="0px"
	 width="100px" height="100px" viewBox="0 0 100 100" enable-background="new 0 0 100 100" xml:space="preserve">
<g>
	<g>
		<path d="M53.27,59.779c-0.238,0-0.475-0.085-0.66-0.249l-4.623-4.071h-5.051c-0.552,0-1-0.448-1-1V47.26c0-0.552,0.448-1,1-1
			h4.688l5.077-3.508c0.306-0.211,0.703-0.234,1.033-0.062c0.329,0.173,0.535,0.514,0.535,0.886v15.203
			c0,0.394-0.23,0.749-0.588,0.911C53.549,59.75,53.409,59.779,53.27,59.779z M43.936,53.458h4.428c0.243,0,0.479,0.089,0.66,0.249
			l3.246,2.858V45.482l-3.766,2.602c-0.166,0.115-0.365,0.177-0.568,0.177h-4V53.458z"/>
	</g>
	<g>
		<path d="M49.639,75.729c-13.461,0-24.412-10.951-24.412-24.412s10.951-24.412,24.412-24.412s24.412,10.951,24.412,24.412
			S63.1,75.729,49.639,75.729z M49.639,28.905c-12.357,0-22.412,10.055-22.412,22.412c0,12.358,10.055,22.412,22.412,22.412
			s22.412-10.054,22.412-22.412C72.051,38.959,61.996,28.905,49.639,28.905z"/>
	</g>
</g>
</svg>
