<?xml version="1.0" encoding="utf-8"?>
<!-- Generator: Adobe Illustrator 16.0.0, SVG Export Plug-In . SVG Version: 6.00 Build 0)  -->
<!DOCTYPE svg PUBLIC "-//W3C//DTD SVG 1.1//EN" "http://www.w3.org/Graphics/SVG/1.1/DTD/svg11.dtd">
<svg version="1.1" id="Layer_1" xmlns="http://www.w3.org/2000/svg" xmlns:xlink="http://www.w3.org/1999/xlink" x="0px" y="0px"
	 width="100px" height="100px" viewBox="0 0 100 100" enable-background="new 0 0 100 100" xml:space="preserve">
<g>
	<g>
		<path d="M49.726,74.979c-13.047,0-23.662-10.614-23.662-23.662s10.615-23.662,23.662-23.662c4.478,0,8.836,1.257,12.604,3.633
			c0.468,0.294,0.607,0.912,0.312,1.379c-0.294,0.467-0.913,0.606-1.379,0.312c-3.449-2.175-7.438-3.324-11.538-3.324
			c-11.943,0-21.662,9.718-21.662,21.662s9.719,21.662,21.662,21.662c4.65,0,9.082-1.45,12.816-4.195
			c0.444-0.328,1.07-0.231,1.397,0.214c0.327,0.444,0.231,1.07-0.214,1.397C59.646,73.394,54.806,74.979,49.726,74.979z"/>
	</g>
	<g>
		<path d="M66.575,67.472c-0.238,0-0.477-0.085-0.668-0.258c-0.41-0.369-0.443-1.001-0.074-1.412
			c3.582-3.98,5.556-9.125,5.556-14.485c0-5.229-1.889-10.278-5.318-14.218c-0.362-0.416-0.319-1.048,0.098-1.41
			s1.048-0.319,1.411,0.098c3.746,4.303,5.81,9.818,5.81,15.53c0,5.855-2.155,11.476-6.069,15.823
			C67.122,67.36,66.85,67.472,66.575,67.472z"/>
	</g>
	<g>
		<path d="M62.942,64.35c-0.256,0-0.512-0.098-0.707-0.293c-0.391-0.391-0.391-1.023,0-1.414c6.246-6.245,6.246-16.407,0-22.652
			c-0.391-0.391-0.391-1.023,0-1.414s1.023-0.391,1.414,0c7.025,7.024,7.025,18.456,0,25.48
			C63.454,64.252,63.198,64.35,62.942,64.35z"/>
	</g>
	<g>
		<path d="M58.511,59.918c-0.256,0-0.512-0.098-0.707-0.293c-0.391-0.391-0.391-1.023,0-1.414c3.802-3.802,3.802-9.987,0-13.789
			c-0.391-0.391-0.391-1.023,0-1.414s1.023-0.391,1.414,0c4.582,4.581,4.582,12.036,0,16.617
			C59.022,59.821,58.767,59.918,58.511,59.918z"/>
	</g>
	<g>
		<path d="M53.437,59.918c-0.239,0-0.475-0.085-0.661-0.249l-4.623-4.071h-5.05c-0.553,0-1-0.448-1-1V47.4c0-0.552,0.447-1,1-1
			h4.688l5.078-3.508c0.305-0.211,0.704-0.234,1.032-0.062c0.329,0.173,0.536,0.514,0.536,0.886v15.203
			c0,0.394-0.23,0.749-0.589,0.911C53.716,59.889,53.575,59.918,53.437,59.918z M44.103,53.598h4.428
			c0.242,0,0.478,0.089,0.66,0.249l3.246,2.858V45.622l-3.766,2.602c-0.167,0.115-0.365,0.177-0.568,0.177h-4V53.598z"/>
	</g>
</g>
</svg>
