<?xml version="1.0" encoding="utf-8"?>
<!-- Generator: Adobe Illustrator 16.0.0, SVG Export Plug-In . SVG Version: 6.00 Build 0)  -->
<!DOCTYPE svg PUBLIC "-//W3C//DTD SVG 1.1//EN" "http://www.w3.org/Graphics/SVG/1.1/DTD/svg11.dtd">
<svg version="1.1" id="Layer_1" xmlns="http://www.w3.org/2000/svg" xmlns:xlink="http://www.w3.org/1999/xlink" x="0px" y="0px"
	 width="100px" height="100px" viewBox="0 0 100 100" enable-background="new 0 0 100 100" xml:space="preserve">
<path d="M62.577,27.471h-2.875c-0.293,0-0.58,0.025-0.862,0.062H33.228c-0.283-0.036-0.57-0.062-0.862-0.062H29.49
	c-3.688,0-6.688,3-6.688,6.688s3,6.688,6.688,6.688h0.056v1.044v2.821l0.135,0.135c0.227,8.491,6.936,15.375,15.354,15.888V76.4
	h-7.813v2h17.625v-2h-7.813V60.734c8.371-0.51,15.05-7.321,15.346-15.748l0.131,0.132l0.035-0.033v-2.821v-1.417h0.031
	c3.688,0,6.688-3,6.688-6.688S66.265,27.471,62.577,27.471z M29.546,29.533v9.313H29.49c-2.585,0-4.688-2.104-4.688-4.688
	c0-2.585,2.103-4.688,4.688-4.688h0.056V29.533z M60.409,44.409c0,7.927-6.449,14.375-14.375,14.375s-14.375-6.448-14.375-14.375
	v-3.563v-2v-9.313h1.319h4.205h23.226V44.409z M62.521,27.534h-0.112v-0.001L62.521,27.534L62.521,27.534z M62.577,38.846h-0.031
	v-9.313v-0.062h0.031c2.584,0,4.688,2.103,4.688,4.688C67.265,36.743,65.161,38.846,62.577,38.846z"/>
</svg>
