<?xml version="1.0" encoding="utf-8"?>
<!-- Generator: Adobe Illustrator 16.0.0, SVG Export Plug-In . SVG Version: 6.00 Build 0)  -->
<!DOCTYPE svg PUBLIC "-//W3C//DTD SVG 1.1//EN" "http://www.w3.org/Graphics/SVG/1.1/DTD/svg11.dtd">
<svg version="1.1" id="Layer_1" xmlns="http://www.w3.org/2000/svg" xmlns:xlink="http://www.w3.org/1999/xlink" x="0px" y="0px"
	 width="100px" height="100px" viewBox="0 0 100 100" enable-background="new 0 0 100 100" xml:space="preserve">
<path d="M70.378,37.376c0-0.097-0.029-0.185-0.055-0.274c-0.764-6.396-10.289-11.295-22.32-11.295s-21.556,4.898-22.32,11.295
	c-0.026,0.09-0.055,0.178-0.055,0.274c0,0.094,0.009,0.186,0.013,0.278c-0.004,0.093-0.013,0.184-0.013,0.277v29.027
	c0,6.799,9.828,12.125,22.375,12.125s22.375-5.326,22.375-12.125V37.932c0-0.094-0.009-0.185-0.013-0.277
	C70.369,37.562,70.378,37.47,70.378,37.376z M48.003,27.807c10.856,0,20.035,4.482,20.346,9.848
	c-0.311,5.364-9.49,9.847-20.346,9.847s-20.035-4.482-20.346-9.847C27.968,32.29,37.147,27.807,48.003,27.807z M68.378,66.959
	c0,5.488-9.331,10.125-20.375,10.125s-20.375-4.637-20.375-10.125v-4.84c3.489,4.188,11.203,7.035,20.375,7.035
	s16.886-2.848,20.375-7.035V66.959z M68.378,57.03c0,5.488-9.331,10.125-20.375,10.125S27.628,62.518,27.628,57.03v-5.043
	c3.489,4.188,11.203,7.035,20.375,7.035s16.886-2.848,20.375-7.035V57.03z M68.378,46.897c0,5.488-9.331,10.125-20.375,10.125
	s-20.375-4.637-20.375-10.125v-4.431c3.489,4.187,11.203,7.035,20.375,7.035s16.886-2.849,20.375-7.035V46.897z"/>
</svg>
