<?xml version="1.0" encoding="utf-8"?>
<!-- Generator: Adobe Illustrator 16.0.0, SVG Export Plug-In . SVG Version: 6.00 Build 0)  -->
<!DOCTYPE svg PUBLIC "-//W3C//DTD SVG 1.1//EN" "http://www.w3.org/Graphics/SVG/1.1/DTD/svg11.dtd">
<svg version="1.1" id="Layer_1" xmlns="http://www.w3.org/2000/svg" xmlns:xlink="http://www.w3.org/1999/xlink" x="0px" y="0px"
	 width="100px" height="100px" viewBox="0 0 100 100" enable-background="new 0 0 100 100" xml:space="preserve">
<path d="M71.519,38.541H58.636v-2.172c0-2.114-1.721-3.834-3.834-3.834H48.97c-2.113,0-3.834,1.72-3.834,3.834v2.172H32.253
	c-2.115,0-3.834,1.721-3.834,3.834v30.582c0,2.113,1.719,3.834,3.834,3.834h39.266c2.115,0,3.836-1.721,3.836-3.834V42.375
	C75.354,40.262,73.634,38.541,71.519,38.541z M47.136,36.369c0-1.012,0.822-1.834,1.834-1.834h5.832
	c1.012,0,1.834,0.822,1.834,1.834v2.172h-9.5V36.369z M73.354,72.957c0,1.012-0.824,1.834-1.836,1.834H32.253
	c-1.012,0-1.834-0.822-1.834-1.834V58.666h42.936V72.957z M73.354,56.666H30.419V42.375c0-1.012,0.822-1.834,1.834-1.834h12.883h2
	h9.5h2h12.883c1.012,0,1.836,0.822,1.836,1.834V56.666z"/>
</svg>
