<?xml version="1.0" encoding="utf-8"?>
<!-- Generator: Adobe Illustrator 16.0.0, SVG Export Plug-In . SVG Version: 6.00 Build 0)  -->
<!DOCTYPE svg PUBLIC "-//W3C//DTD SVG 1.1//EN" "http://www.w3.org/Graphics/SVG/1.1/DTD/svg11.dtd">
<svg version="1.1" id="Layer_1" xmlns="http://www.w3.org/2000/svg" xmlns:xlink="http://www.w3.org/1999/xlink" x="0px" y="0px"
	 width="100px" height="100px" viewBox="0 0 100 100" enable-background="new 0 0 100 100" xml:space="preserve">
<g>
	<path d="M57.641,25.602h-24.2c-2.219,0-4.024,1.762-4.024,3.927v46.814c0,2.165,1.806,3.926,4.024,3.926h24.2
		c2.22,0,4.025-1.761,4.025-3.926V29.529C61.666,27.364,59.86,25.602,57.641,25.602z M33.44,27.602h24.2
		c1.116,0,2.025,0.865,2.025,1.927v2.407h-28.25v-2.407C31.416,28.467,32.324,27.602,33.44,27.602z M59.666,33.936v32.833h-28.25
		V33.936H59.666z M57.641,78.269h-24.2c-1.116,0-2.024-0.863-2.024-1.926v-7.574h28.25v7.574
		C59.666,77.406,58.757,78.269,57.641,78.269z"/>
	<circle cx="45.541" cy="73.124" r="3.063"/>
</g>
</svg>
