<?xml version="1.0" encoding="utf-8"?>
<!-- Generator: Adobe Illustrator 16.0.0, SVG Export Plug-In . SVG Version: 6.00 Build 0)  -->
<!DOCTYPE svg PUBLIC "-//W3C//DTD SVG 1.1//EN" "http://www.w3.org/Graphics/SVG/1.1/DTD/svg11.dtd">
<svg version="1.1" id="Layer_1" xmlns="http://www.w3.org/2000/svg" xmlns:xlink="http://www.w3.org/1999/xlink" x="0px" y="0px"
	 width="100px" height="100px" viewBox="0 0 100 100" enable-background="new 0 0 100 100" xml:space="preserve">
<g>
	<path d="M43.027,39.501c-0.553,0-1,0.448-1,1v30.25c0,0.552,0.447,1,1,1s1-0.448,1-1v-30.25
		C44.027,39.949,43.58,39.501,43.027,39.501z"/>
	<path d="M50.111,39.501c-0.553,0-1,0.448-1,1v30.25c0,0.552,0.447,1,1,1c0.552,0,1-0.448,1-1v-30.25
		C51.111,39.949,50.663,39.501,50.111,39.501z"/>
	<path d="M56.777,40.501v30.25c0,0.552,0.447,1,1,1s1-0.448,1-1v-30.25c0-0.552-0.447-1-1-1S56.777,39.949,56.777,40.501z"/>
	<path d="M68.611,32.702h-8.834v-0.465c0-3.678-2.992-6.669-6.67-6.669H46.78c-3.678,0-6.669,2.992-6.669,6.669v0.465h-8.5
		c-0.553,0-1,0.448-1,1v36.964c0,3.678,2.991,6.669,6.669,6.669h25.661c3.678,0,6.67-2.992,6.67-6.669V33.702
		C69.611,33.149,69.163,32.702,68.611,32.702z M42.111,32.237c0-2.575,2.094-4.669,4.669-4.669h6.327c2.575,0,4.67,2.095,4.67,4.669
		v0.465H42.111V32.237z M67.611,70.666c0,2.575-2.096,4.669-4.67,4.669H37.28c-2.575,0-4.669-2.095-4.669-4.669V34.702h8.5h17.666
		h8.834V70.666z"/>
</g>
</svg>
