<?xml version="1.0" encoding="utf-8"?>
<!-- Generator: Adobe Illustrator 16.0.0, SVG Export Plug-In . SVG Version: 6.00 Build 0)  -->
<!DOCTYPE svg PUBLIC "-//W3C//DTD SVG 1.1//EN" "http://www.w3.org/Graphics/SVG/1.1/DTD/svg11.dtd">
<svg version="1.1" id="Layer_1" xmlns="http://www.w3.org/2000/svg" xmlns:xlink="http://www.w3.org/1999/xlink" x="0px" y="0px"
	 width="100px" height="100px" viewBox="0 0 100 100" enable-background="new 0 0 100 100" xml:space="preserve">
<path d="M74.187,44.039l0.003-0.002l-9.753-10.526H36.38l-9.471,10.78l0.004,0.004c-0.983,1.162-1.58,2.662-1.58,4.301v13.162
	c0,3.678,2.992,6.67,6.67,6.67H69.33c3.678,0,6.669-2.992,6.669-6.67V48.596C75.999,46.834,75.308,45.233,74.187,44.039z
	 M37.286,35.511h26.277l5.953,6.427c-0.063-0.002-0.123-0.01-0.187-0.01H57.333v2.998c0,3.404-3.574,3.668-4.67,3.668h-3.994
	c-1.096,0-4.67-0.264-4.67-3.668v-2.998H32.003c-0.125,0-0.247,0.012-0.371,0.018L37.286,35.511z M73.999,61.758
	c0,2.575-2.094,4.67-4.669,4.67H32.003c-2.575,0-4.67-2.095-4.67-4.67V48.596c0-2.574,2.095-4.668,4.67-4.668h9.996v0.998
	c0,3.443,2.618,5.668,6.67,5.668h3.994c4.053,0,6.67-2.225,6.67-5.668v-0.998h9.997c1.287,0,2.454,0.523,3.3,1.368l0.002,0.002
	c0.844,0.845,1.367,2.011,1.367,3.298V61.758z"/>
</svg>
