<?xml version="1.0" encoding="utf-8"?>
<!-- Generator: Adobe Illustrator 16.0.0, SVG Export Plug-In . SVG Version: 6.00 Build 0)  -->
<!DOCTYPE svg PUBLIC "-//W3C//DTD SVG 1.1//EN" "http://www.w3.org/Graphics/SVG/1.1/DTD/svg11.dtd">
<svg version="1.1" id="Layer_1" xmlns="http://www.w3.org/2000/svg" xmlns:xlink="http://www.w3.org/1999/xlink" x="0px" y="0px"
	 width="100px" height="100px" viewBox="0 0 100 100" enable-background="new 0 0 100 100" xml:space="preserve">
<g>
	<path d="M71.605,48.785c-0.552,0-1,0.448-1,1v11.192c0,2.575-2.095,4.67-4.669,4.67H29.77l8.474-8.475
		c0.391-0.391,0.391-1.023,0-1.414s-1.023-0.391-1.414,0l-10.18,10.181c-0.093,0.093-0.166,0.203-0.217,0.325
		c-0.102,0.245-0.102,0.52,0,0.765c0.051,0.122,0.124,0.233,0.217,0.325l9.971,9.972c0.195,0.195,0.451,0.293,0.707,0.293
		s0.512-0.098,0.707-0.293c0.391-0.391,0.391-1.023,0-1.414l-8.265-8.265h36.167c3.678,0,6.669-2.992,6.669-6.67V49.785
		C72.605,49.233,72.157,48.785,71.605,48.785z"/>
	<path d="M73.326,37.598l-9.972-9.972c-0.391-0.391-1.023-0.391-1.414,0s-0.391,1.024,0,1.415l8.369,8.369H33.024
		c-3.678,0-6.669,2.992-6.669,6.669v11.206c0,0.553,0.448,1,1,1s1-0.447,1-1V44.079c0-2.575,2.095-4.669,4.669-4.669h37.076
		l-8.369,8.37c-0.391,0.391-0.391,1.023,0,1.414c0.195,0.195,0.451,0.293,0.707,0.293s0.512-0.098,0.707-0.293l10.181-10.181
		C73.717,38.622,73.717,37.989,73.326,37.598z"/>
</g>
</svg>
