<?xml version="1.0" encoding="utf-8"?>
<!-- Generator: Adobe Illustrator 16.0.0, SVG Export Plug-In . SVG Version: 6.00 Build 0)  -->
<!DOCTYPE svg PUBLIC "-//W3C//DTD SVG 1.1//EN" "http://www.w3.org/Graphics/SVG/1.1/DTD/svg11.dtd">
<svg version="1.1" id="Layer_1" xmlns="http://www.w3.org/2000/svg" xmlns:xlink="http://www.w3.org/1999/xlink" x="0px" y="0px"
	 width="100px" height="100px" viewBox="0 0 100 100" enable-background="new 0 0 100 100" xml:space="preserve">
<g>
	<g>
		<path d="M37.576,73.363c-1.024,0-1.987-0.399-2.712-1.124l-7.305-7.305c-1.495-1.495-1.494-3.928,0-5.423l16.615-16.615
			c1.496-1.496,3.93-1.494,5.423,0l5.126,5.126c0.391,0.391,0.391,1.023,0,1.414s-1.023,0.391-1.414,0l-5.126-5.126
			c-0.715-0.715-1.879-0.715-2.595,0L28.974,60.926c-0.715,0.716-0.715,1.88,0,2.595l7.305,7.305c0.693,0.693,1.902,0.693,2.596,0
			l11.43-11.43c0.391-0.391,1.023-0.391,1.414,0s0.391,1.023,0,1.414l-11.43,11.43C39.563,72.964,38.601,73.363,37.576,73.363z"/>
	</g>
	<g>
		<path d="M52.749,58.188c-0.982,0-1.965-0.374-2.712-1.121l-5.126-5.126c-0.391-0.391-0.391-1.023,0-1.414s1.023-0.391,1.414,0
			l5.126,5.126c0.715,0.715,1.879,0.715,2.595,0l16.615-16.615c0.715-0.715,0.715-1.88,0-2.595l-7.306-7.305
			c-0.693-0.693-1.901-0.693-2.595,0l-11.43,11.43c-0.391,0.391-1.023,0.391-1.414,0s-0.391-1.023,0-1.414l11.43-11.43
			c1.449-1.449,3.975-1.449,5.423,0l7.306,7.305c1.494,1.496,1.494,3.929,0,5.423L55.46,57.067
			C54.712,57.814,53.73,58.188,52.749,58.188z"/>
	</g>
</g>
</svg>
