<?xml version="1.0" encoding="utf-8"?>
<!-- Generator: Adobe Illustrator 16.0.0, SVG Export Plug-In . SVG Version: 6.00 Build 0)  -->
<!DOCTYPE svg PUBLIC "-//W3C//DTD SVG 1.1//EN" "http://www.w3.org/Graphics/SVG/1.1/DTD/svg11.dtd">
<svg version="1.1" id="Layer_1" xmlns="http://www.w3.org/2000/svg" xmlns:xlink="http://www.w3.org/1999/xlink" x="0px" y="0px"
	 width="100px" height="100px" viewBox="0 0 100 100" enable-background="new 0 0 100 100" xml:space="preserve">
<path d="M82.066,51.317c0-8.409-6.841-15.25-15.25-15.25s-15.25,6.841-15.25,15.25c0,3.427,1.11,6.663,3.209,9.36
	c0.339,0.436,0.967,0.513,1.403,0.174s0.514-0.967,0.175-1.402c-1.824-2.343-2.788-5.154-2.788-8.132
	c0-7.306,5.944-13.25,13.25-13.25s13.25,5.944,13.25,13.25s-5.944,13.25-13.25,13.25H32.984c-7.306,0-13.25-5.944-13.25-13.25
	s5.944-13.25,13.25-13.25s13.25,5.944,13.25,13.25c0,2.978-0.964,5.789-2.788,8.132c-0.339,0.436-0.261,1.063,0.175,1.402
	c0.435,0.339,1.063,0.262,1.403-0.174c2.1-2.697,3.209-5.934,3.209-9.36c0-8.409-6.841-15.25-15.25-15.25s-15.25,6.841-15.25,15.25
	s6.841,15.25,15.25,15.25h34.833c0.119,0,0.229-0.03,0.335-0.067C75.937,65.819,82.066,59.275,82.066,51.317z"/>
</svg>
