<?xml version="1.0" encoding="utf-8"?>
<!-- Generator: Adobe Illustrator 16.0.0, SVG Export Plug-In . SVG Version: 6.00 Build 0)  -->
<!DOCTYPE svg PUBLIC "-//W3C//DTD SVG 1.1//EN" "http://www.w3.org/Graphics/SVG/1.1/DTD/svg11.dtd">
<svg version="1.1" id="Layer_1" xmlns="http://www.w3.org/2000/svg" xmlns:xlink="http://www.w3.org/1999/xlink" x="0px" y="0px"
	 width="100px" height="100px" viewBox="0 0 100 100" enable-background="new 0 0 100 100" xml:space="preserve">
<path d="M61.294,48.281h-2.08h-20.5V31.2c0-2.575,2.094-4.669,4.669-4.669h10.161c2.574,0,4.67,2.094,4.67,4.669v7.235
	c0,0.553,0.447,1,1,1c0.552,0,1-0.447,1-1V31.2c0-3.678-2.992-6.669-6.67-6.669H43.383c-3.678,0-6.669,2.991-6.669,6.669v17.081
	h-1.081c-3.678,0-6.669,2.991-6.669,6.669v16.679c0,3.678,2.991,6.67,6.669,6.67h25.661c3.678,0,6.67-2.992,6.67-6.67V54.95
	C67.964,51.272,64.972,48.281,61.294,48.281z M65.964,71.629c0,2.574-2.096,4.67-4.67,4.67H35.633c-2.575,0-4.669-2.096-4.669-4.67
	V54.95c0-2.575,2.094-4.669,4.669-4.669h2.081h21.5h2.08c2.574,0,4.67,2.094,4.67,4.669V71.629z"/>
</svg>
