<?xml version="1.0" encoding="utf-8"?>
<!-- Generator: Adobe Illustrator 16.0.0, SVG Export Plug-In . SVG Version: 6.00 Build 0)  -->
<!DOCTYPE svg PUBLIC "-//W3C//DTD SVG 1.1//EN" "http://www.w3.org/Graphics/SVG/1.1/DTD/svg11.dtd">
<svg version="1.1" id="Layer_1" xmlns="http://www.w3.org/2000/svg" xmlns:xlink="http://www.w3.org/1999/xlink" x="0px" y="0px"
	 width="100px" height="100px" viewBox="0 0 100 100" enable-background="new 0 0 100 100" xml:space="preserve">
<path d="M68.416,24.268h-5.164c-2.114,0-3.835,1.72-3.835,3.835V52.9c0,5.515-4.484,10-9.998,10c-5.515,0-10-4.485-10-10V28.103
	c0-2.115-1.721-3.835-3.835-3.835H30.42c-2.114,0-3.835,1.72-3.835,3.835V52.9c0,1.698,0.194,3.409,0.576,5.087
	c2.379,10.449,11.531,17.746,22.258,17.746s19.879-7.299,22.258-17.748c0.377-1.662,0.57-3.359,0.574-5.123v-24.76
	C72.251,25.987,70.53,24.268,68.416,24.268z M63.252,26.268h5.164c1.012,0,1.835,0.823,1.835,1.835v4.94h-8.834v-4.94
	C61.417,27.091,62.24,26.268,63.252,26.268z M30.42,26.268h5.164c1.012,0,1.835,0.823,1.835,1.835v4.748h-8.834v-4.748
	C28.585,27.091,29.408,26.268,30.42,26.268z M69.726,57.542c-2.17,9.533-10.52,16.191-20.307,16.191s-18.137-6.658-20.308-16.19
	c-0.349-1.532-0.526-3.094-0.526-4.643v-18.05h8.834V52.9c0,6.616,5.383,12,12,12c6.615,0,11.998-5.384,11.998-12V35.043h8.834
	v17.894C70.247,54.474,70.071,56.023,69.726,57.542z"/>
</svg>
