<?xml version="1.0" encoding="utf-8"?>
<!-- Generator: Adobe Illustrator 16.0.0, SVG Export Plug-In . SVG Version: 6.00 Build 0)  -->
<!DOCTYPE svg PUBLIC "-//W3C//DTD SVG 1.1//EN" "http://www.w3.org/Graphics/SVG/1.1/DTD/svg11.dtd">
<svg version="1.1" id="Layer_1" xmlns="http://www.w3.org/2000/svg" xmlns:xlink="http://www.w3.org/1999/xlink" x="0px" y="0px"
	 width="100px" height="100px" viewBox="0 0 100 100" enable-background="new 0 0 100 100" xml:space="preserve">
<path d="M74.124,26.533c0.001-0.041-0.003-0.078-0.007-0.119c-0.008-0.08-0.025-0.158-0.053-0.234
	c-0.012-0.037-0.021-0.072-0.039-0.106c-0.048-0.099-0.109-0.19-0.19-0.271c-0.007-0.006-0.009-0.015-0.015-0.021
	c-0.002,0-0.003,0-0.004-0.002c-0.001,0-0.002-0.002-0.003-0.004c-0.09-0.084-0.194-0.143-0.304-0.188
	c-0.031-0.013-0.064-0.018-0.098-0.027c-0.081-0.024-0.162-0.039-0.246-0.041c-0.04-0.002-0.077-0.002-0.117,0.002
	c-0.081,0.007-0.16,0.025-0.238,0.053c-0.036,0.013-0.071,0.02-0.105,0.037c-0.013,0.006-0.026,0.006-0.039,0.013L26.465,50.007
	c-0.277,0.146-0.471,0.414-0.521,0.725c-0.05,0.309,0.048,0.624,0.265,0.852l24.384,25.492c0.19,0.199,0.452,0.309,0.723,0.309
	c0.058,0,0.116-0.004,0.175-0.015c0.329-0.059,0.607-0.278,0.741-0.584l21.817-49.877c0.004-0.009,0.004-0.021,0.008-0.03
	c0.014-0.031,0.017-0.065,0.026-0.1C74.105,26.697,74.122,26.615,74.124,26.533z M68.248,30.216L38.562,61.603L28.57,51.158
	L68.248,30.216z M51,74.609L39.945,63.05l29.973-31.689L51,74.609z"/>
</svg>
