<?xml version="1.0" encoding="utf-8"?>
<!-- Generator: Adobe Illustrator 16.0.4, SVG Export Plug-In . SVG Version: 6.00 Build 0)  -->
<!DOCTYPE svg PUBLIC "-//W3C//DTD SVG 1.1//EN" "http://www.w3.org/Graphics/SVG/1.1/DTD/svg11.dtd">
<svg version="1.1" id="Layer_1" xmlns="http://www.w3.org/2000/svg" xmlns:xlink="http://www.w3.org/1999/xlink" x="0px" y="0px"
	 width="100px" height="100px" viewBox="0 0 100 100" enable-background="new 0 0 100 100" xml:space="preserve">
<g>
	<path d="M63.247,53.225c-2.824,0-5.122,2.298-5.122,5.123c0,2.824,2.298,5.121,5.122,5.121s5.122-2.297,5.122-5.121
		C68.369,55.522,66.071,53.225,63.247,53.225z M63.247,61.469c-1.722,0-3.122-1.4-3.122-3.121c0-1.722,1.4-3.123,3.122-3.123
		s3.122,1.401,3.122,3.123C66.369,60.068,64.969,61.469,63.247,61.469z"/>
	<path d="M71.827,38.851h-4.58V35.02c0-3.677-2.992-6.669-6.67-6.669h-32.41h-0.42c-3.446,0-6.25,2.804-6.25,6.25
		c0,0.032,0.006,0.105,0.012,0.164c0,0.003-0.002,0.006-0.002,0.009c-0.005,0.083-0.01,0.164-0.01,0.247v34.912
		c0,3.678,2.992,6.67,6.67,6.67h43.66c3.678,0,6.67-2.992,6.67-6.67V45.52C78.497,41.843,75.505,38.851,71.827,38.851z
		 M65.247,35.02v3.831h-37.5c-2.3,0-4.149-1.797-4.231-4.098c0.14-2.471,2.174-4.402,4.651-4.402h32.41
		C63.152,30.351,65.247,32.445,65.247,35.02z M76.497,69.932c0,2.575-2.095,4.67-4.67,4.67h-43.66c-2.575,0-4.67-2.095-4.67-4.67
		V39.194c0.055,0.051,0.115,0.097,0.172,0.146c0.07,0.06,0.139,0.122,0.211,0.179c0.079,0.062,0.162,0.12,0.244,0.178
		c0.075,0.054,0.149,0.109,0.228,0.159c0.086,0.056,0.175,0.105,0.264,0.157c0.079,0.046,0.157,0.093,0.238,0.136
		c0.094,0.048,0.191,0.091,0.287,0.135c0.082,0.037,0.161,0.077,0.245,0.111c0.101,0.041,0.206,0.074,0.31,0.11
		c0.083,0.028,0.164,0.06,0.249,0.085c0.112,0.033,0.228,0.058,0.342,0.085c0.08,0.019,0.158,0.042,0.238,0.058
		c0.131,0.026,0.266,0.042,0.4,0.059c0.068,0.009,0.134,0.022,0.203,0.029c0.204,0.02,0.411,0.03,0.62,0.03h38.21
		c0.036,0.011,0.075,0.003,0.112,0.01c0.06,0.011,0.116,0.033,0.178,0.033c0.037,0,0.075-0.002,0.112-0.006
		c0.184-0.021,0.368-0.037,0.558-0.037h4.91c2.575,0,4.67,2.094,4.67,4.669V69.932z"/>
</g>
</svg>
