<?xml version="1.0" encoding="utf-8"?>
<!-- Generator: Adobe Illustrator 16.0.0, SVG Export Plug-In . SVG Version: 6.00 Build 0)  -->
<!DOCTYPE svg PUBLIC "-//W3C//DTD SVG 1.1//EN" "http://www.w3.org/Graphics/SVG/1.1/DTD/svg11.dtd">
<svg version="1.1" id="Layer_1" xmlns="http://www.w3.org/2000/svg" xmlns:xlink="http://www.w3.org/1999/xlink" x="0px" y="0px"
	 width="100px" height="100px" viewBox="0 0 100 100" enable-background="new 0 0 100 100" xml:space="preserve">
<path d="M63.162,58.763c-0.104-0.105-0.216-0.195-0.394-0.334c-0.397-0.319-0.972-0.287-1.332,0.073l-1.389,1.389l-6.594-6.594
	l9.805-9.805c1.228,0.454,2.515,0.684,3.837,0.684c2.945,0,5.715-1.146,7.797-3.229c3.242-3.241,4.137-8.227,2.225-12.404
	c-0.136-0.298-0.409-0.51-0.731-0.568c-0.323-0.058-0.653,0.045-0.884,0.277l-4,3.999l-3.283-0.253l-0.252-3.282l3.999-3.999
	c0.231-0.232,0.335-0.563,0.277-0.885s-0.271-0.596-0.568-0.732c-1.434-0.655-3.027-1.002-4.608-1.002
	c-2.946,0-5.715,1.146-7.796,3.228c-3.084,3.084-4.048,7.584-2.546,11.635l-9.804,9.805l-11.29-11.29l0.707-0.707
	c0.188-0.188,0.293-0.441,0.293-0.707c0-0.265-0.105-0.52-0.293-0.707l-7.528-7.528c-0.375-0.375-1.039-0.375-1.414,0l-2.828,2.829
	c-0.391,0.391-0.391,1.023,0,1.414l7.528,7.527c0.195,0.195,0.451,0.293,0.707,0.293s0.512-0.098,0.707-0.293l0.707-0.707
	l11.29,11.29l-8.333,8.333c-1.227-0.455-2.515-0.684-3.837-0.684c-2.946,0-5.715,1.146-7.797,3.228
	c-3.241,3.241-4.136,8.228-2.226,12.405c0.137,0.298,0.41,0.51,0.732,0.568c0.32,0.057,0.652-0.045,0.885-0.277l3.999-4l3.283,0.253
	l0.253,3.283l-4,3.999c-0.231,0.231-0.335,0.563-0.277,0.885c0.059,0.322,0.271,0.596,0.568,0.731
	c1.434,0.656,3.027,1.003,4.609,1.003h0.001c2.944,0,5.714-1.146,7.794-3.228c3.085-3.085,4.049-7.585,2.546-11.635l8.332-8.332
	l6.594,6.594l-1.389,1.389c-0.356,0.356-0.34,0.989-0.03,1.388c0.092,0.117,0.184,0.232,0.291,0.338l11.306,11.307
	c0.84,0.84,1.969,1.322,3.098,1.322c0.999,0,1.921-0.372,2.599-1.05l0.233-0.234c0.741-0.741,1.111-1.755,1.041-2.854
	c-0.067-1.051-0.533-2.061-1.313-2.84L63.162,58.763z M26.688,29.36l1.414-1.415l6.114,6.114l-0.706,0.707c-0.001,0-0.001,0-0.001,0
	s0,0,0,0.001l-0.707,0.706L26.688,29.36z M58.607,37.904c0.293-0.292,0.375-0.733,0.208-1.111c-1.524-3.448-0.79-7.396,1.869-10.055
	c1.704-1.704,3.97-2.642,6.382-2.642c0.799,0,1.601,0.107,2.374,0.316l-3.213,3.213c-0.206,0.207-0.313,0.492-0.29,0.784
	l0.354,4.595c0.038,0.492,0.429,0.883,0.92,0.921l4.597,0.354c0.29,0.022,0.577-0.083,0.784-0.29l3.213-3.213
	c0.83,3.086-0.026,6.457-2.326,8.756c-1.704,1.705-3.971,2.644-6.383,2.644c-1.275,0-2.51-0.261-3.672-0.774
	c-0.377-0.168-0.819-0.084-1.111,0.208L52.04,51.883l-3.705-3.705L58.607,37.904z M41.825,62.098
	c-0.292,0.292-0.374,0.733-0.208,1.111c1.525,3.448,0.791,7.395-1.869,10.055c-1.703,1.704-3.969,2.642-6.381,2.642
	c-0.799,0-1.602-0.107-2.375-0.316l3.213-3.213c0.207-0.207,0.313-0.492,0.291-0.783l-0.354-4.597
	c-0.039-0.491-0.43-0.882-0.921-0.92l-4.597-0.354c-0.289-0.02-0.577,0.083-0.783,0.291l-3.213,3.213
	c-0.831-3.086,0.025-6.457,2.325-8.756c1.704-1.705,3.972-2.643,6.383-2.643c1.274,0,2.511,0.26,3.671,0.773
	c0.378,0.167,0.819,0.084,1.111-0.208l8.802-8.801l3.705,3.705L41.825,62.098z M73.326,74.351l-0.232,0.234
	c-0.384,0.383-0.855,0.463-1.185,0.463c-0.603,0-1.216-0.269-1.683-0.736L59.341,63.427l2.828-2.829l10.886,10.886
	c0.436,0.436,0.695,0.987,0.732,1.553C73.819,73.554,73.656,74.021,73.326,74.351z"/>
</svg>
